<?xml version="1.0" encoding="UTF-8" standalone="no"?>
<svg
   xmlns:dc="http://purl.org/dc/elements/1.1/"
   xmlns:cc="http://creativecommons.org/ns#"
   xmlns:rdf="http://www.w3.org/1999/02/22-rdf-syntax-ns#"
   xmlns:svg="http://www.w3.org/2000/svg"
   xmlns="http://www.w3.org/2000/svg"
   xmlns:sodipodi="http://sodipodi.sourceforge.net/DTD/sodipodi-0.dtd"
   xmlns:inkscape="http://www.inkscape.org/namespaces/inkscape"
   inkscape:version="1.0 (unknown)"
   height="382.68103"
   width="427.43793"
   sodipodi:docname="cacheout-text.svg"
   viewBox="0 0 427.43793 382.68102"
   version="1.1"
   id="svg1026">
  <sodipodi:namedview
     inkscape:current-layer="svg1026"
     inkscape:window-maximized="1"
     inkscape:window-y="10"
     inkscape:window-x="1925"
     inkscape:cy="186.00391"
     inkscape:cx="220.05579"
     inkscape:zoom="1.6019205"
     fit-margin-left="5"
     fit-margin-right="5"
     fit-margin-bottom="5"
     fit-margin-top="5"
     showgrid="false"
     id="namedview865"
     inkscape:window-height="1047"
     inkscape:window-width="1903"
     inkscape:pageshadow="2"
     inkscape:pageopacity="0"
     guidetolerance="10"
     gridtolerance="10"
     objecttolerance="10"
     borderopacity="1"
     bordercolor="#666666"
     pagecolor="#ffffff" />
  <metadata
     id="metadata1030">
    <rdf:RDF>
      <cc:Work
         rdf:about="">
        <dc:format>image/svg+xml</dc:format>
        <dc:type
           rdf:resource="http://purl.org/dc/dcmitype/StillImage" />
        <dc:title>cache snipper</dc:title>
      </cc:Work>
    </rdf:RDF>
  </metadata>
  <defs
     id="defs968">
    <style
       id="style966">.a{fill:#2171b9;}</style>
  </defs>
  <title
     id="title970">cache snipper</title>
  <rect
     class="a"
     x="-197.55969"
     y="-299.22302"
     width="6.1500001"
     height="166"
     transform="rotate(168.58)"
     id="rect972" />
  <rect
     class="a"
     x="-96.639915"
     y="-299.23917"
     width="5.7600002"
     height="166"
     transform="rotate(168.58)"
     id="rect974" />
  <path
     class="a"
     d="m 81.9851,223.71218 -0.87,-4.31 q -9.16,1.18 -11.68,-8.93 l 6.37,-1.29 q 1.34,5.53 4.26,5.05 l -2.1,-10.41 a 32.59,32.59 0 0 1 -7.61,-4.71 9.86,9.86 0 0 1 -3.21,-5.51 8.24,8.24 0 0 1 1,-6.26 10,10 0 0 1 5.62,-4 l -0.19,-0.94 2.72,-0.55 0.19,0.95 q 7.88,-0.79 10.12,7.77 l -5.73,1.16 c -0.54,-2.33 -1.66,-3.6 -3.36,-3.83 l 1.76,8.72 a 31.08,31.08 0 0 1 8,5.24 11.65,11.65 0 0 1 3.34,6.1 9.1,9.1 0 0 1 -1.09,6.73 9.57,9.57 0 0 1 -5.77,4.19 l 0.87,4.31 z m -5.84,-28.87 -1.29,-6.42 a 2.62,2.62 0 0 0 -1.67,3 5,5 0 0 0 2.96,3.42 z m 5,10.86 1.61,8 a 3,3 0 0 0 1.6,-1.48 3.41,3.41 0 0 0 0.25,-2.19 6.68,6.68 0 0 0 -3.44,-4.33 z"
     id="path976" />
  <path
     class="a"
     d="m 184.7751,202.12218 -0.87,-4.3 q -9.15,1.17 -11.67,-8.94 l 6.37,-1.29 c 0.89,3.69 2.3,5.38 4.26,5.05 l -2.1,-10.4 a 32.91,32.91 0 0 1 -7.61,-4.72 9.83,9.83 0 0 1 -3.21,-5.5 8.26,8.26 0 0 1 1,-6.27 10,10 0 0 1 5.62,-4 l -0.19,-1 2.72,-0.55 0.19,0.95 q 7.86,-0.78 10.12,7.77 l -5.73,1.16 c -0.54,-2.33 -1.66,-3.6 -3.36,-3.83 l 1.76,8.72 a 31.61,31.61 0 0 1 8,5.24 11.75,11.75 0 0 1 3.34,6.11 9.13,9.13 0 0 1 -1.09,6.72 9.55,9.55 0 0 1 -5.77,4.2 l 0.87,4.3 z m -5.83,-28.86 -1.3,-6.43 a 2.63,2.63 0 0 0 -1.66,3.06 5.05,5.05 0 0 0 2.96,3.37 z m 5,10.86 1.61,8 a 2.91,2.91 0 0 0 1.59,-1.47 3.35,3.35 0 0 0 0.26,-2.19 6.66,6.66 0 0 0 -3.44,-4.34 z"
     id="path978" />
  <path
     class="a"
     d="m 282.1251,182.84218 -0.87,-4.3 q -9.16,1.17 -11.68,-8.94 l 6.37,-1.29 c 0.89,3.69 2.31,5.38 4.26,5.05 l -2.1,-10.4 a 32.91,32.91 0 0 1 -7.61,-4.72 9.83,9.83 0 0 1 -3.21,-5.5 8.26,8.26 0 0 1 1.05,-6.27 10,10 0 0 1 5.63,-4 l -0.19,-1 2.71,-0.55 0.19,0.95 q 7.88,-0.78 10.12,7.77 l -5.73,1.16 c -0.53,-2.33 -1.66,-3.6 -3.36,-3.83 l 1.76,8.72 a 31.43,31.43 0 0 1 8,5.24 11.69,11.69 0 0 1 3.34,6.1 9.1,9.1 0 0 1 -1.09,6.73 9.55,9.55 0 0 1 -5.77,4.2 l 0.87,4.3 z m -5.83,-28.86 -1.3,-6.43 a 2.61,2.61 0 0 0 -1.66,3.06 5,5 0 0 0 2.96,3.37 z m 5,10.86 1.61,8 a 2.93,2.93 0 0 0 1.6,-1.47 3.34,3.34 0 0 0 0.25,-2.19 6.64,6.64 0 0 0 -3.45,-4.34 z"
     id="path980" />
  <path
     class="a"
     d="m 110.3451,256.77218 a 12,12 0 0 0 -3.61,-3.76 c -0.4,-0.28 -0.39,-0.28 0,-0.57 a 10.86,10.86 0 0 0 3.23,-3.95 3.37,3.37 0 0 0 0.06,-3 5.32,5.32 0 0 0 -1.5,-1.8 27.17,27.17 0 0 0 -2.45,-1.54 5,5 0 0 1 -2.19,-2.42 1.66,1.66 0 0 1 0.7,-2.16 4.07,4.07 0 0 1 1.26,-0.51 9,9 0 0 1 3.76,0.07 1,1 0 0 0 1.2,-0.72 c 0.1,-0.34 0,-0.5 -0.33,-0.58 a 9.76,9.76 0 0 0 -3.61,-0.2 5.69,5.69 0 0 0 -2.84,1.18 3.53,3.53 0 0 0 -0.34,5.41 8.4,8.4 0 0 0 2.18,1.6 8.57,8.57 0 0 1 2.38,1.75 2.44,2.44 0 0 1 0.25,3.32 5.78,5.78 0 0 1 -2.67,2.14 3.23,3.23 0 0 0 -0.79,0.39 0.3,0.3 0 0 1 -0.42,0 c -0.24,-0.19 -0.5,-0.37 -0.75,-0.55 a 10.91,10.91 0 0 0 -15.43,2.19 c -1,1.39 -2,2.78 -3.1,4.16 -0.19,0.25 -0.14,0.36 0.09,0.53 q 4.68,3.48 9.35,7 c 0.22,0.16 0.35,0.16 0.52,-0.07 0.63,-0.86 1.27,-1.72 1.94,-2.57 0.21,-0.28 0.21,-0.44 -0.05,-0.71 a 2.91,2.91 0 0 1 -0.3,-4.09 c 0.61,-0.77 1.17,-1.57 1.75,-2.36 a 3.28,3.28 0 0 1 4.16,-0.92 c 0.23,0.14 0.34,0.08 0.48,-0.11 0.44,-0.61 0.91,-1.21 1.34,-1.82 0.18,-0.26 0.33,-0.29 0.57,-0.08 a 8.54,8.54 0 0 0 0.78,0.56 c 0.18,0.12 0.21,0.21 0.07,0.39 -0.47,0.59 -0.91,1.2 -1.35,1.8 -0.32,0.44 -0.32,0.44 0,0.84 a 2.89,2.89 0 0 1 0.18,3.89 c -0.58,0.8 -1.14,1.62 -1.78,2.38 a 3.09,3.09 0 0 1 -4.15,0.91 c -0.21,-0.14 -0.32,0 -0.44,0.11 l -2,2.73 c -0.15,0.19 -0.14,0.31 0.07,0.46 l 9.33,6.93 c 0.41,0.31 0.41,0.31 0.73,-0.12 1,-1.27 1.89,-2.55 2.84,-3.81 a 11,11 0 0 0 0.88,-12.32 z"
     id="path982" />
  <path
     class="a"
     d="m 98.8551,260.95218 a 1.8,1.8 0 0 0 2.52,-0.35 c 0.68,-0.87 1.34,-1.76 2,-2.66 a 1.71,1.71 0 0 0 0.29,-1.39 1.76,1.76 0 0 0 -1.31,-1.42 1.68,1.68 0 0 0 -1.86,0.59 c -0.7,0.89 -1.37,1.8 -2,2.72 a 1.8,1.8 0 0 0 0.36,2.51 z"
     id="path984" />
  <path
     class="a"
     d="m 278.8751,102.11218 -7.89,-5.870003 c -3,-2.23 -6,-4.45 -9,-6.69 -0.2,-0.15 -0.29,-0.1 -0.42,0.08 -0.7,1 -1.41,1.89 -2.12,2.84 -2.3,3.09 -4.6,6.2 -6.92,9.290003 a 14.09,14.09 0 0 0 -2.6,11 c 0.07,0.36 0.19,0.7 0.29,1 a 8.91,8.91 0 0 0 3,4.7 c 1.22,1 2.5,1.84 3.72,2.79 a 9,9 0 0 0 5,1.86 12.4,12.4 0 0 0 5.36,-0.83 13.26,13.26 0 0 0 6.16,-4.48 c 3.11,-4.15 6.19,-8.31 9.29,-12.47 0.15,-0.19 0.17,-0.3 0,-0.46 -1.31,-0.85 -2.59,-1.81 -3.87,-2.76 z"
     id="path986" />
  <path
     class="a"
     d="m 278.6751,91.592177 c 0.68,-0.87 1.33,-1.77 2,-2.66 a 1.72,1.72 0 0 0 0.29,-1.39 1.75,1.75 0 0 0 -1.29,-1.42 1.67,1.67 0 0 0 -1.86,0.59 c -0.7,0.88 -1.37,1.79 -2,2.71 a 1.82,1.82 0 0 0 2.86,2.17 z"
     id="path988" />
  <path
     class="a"
     d="m 53.1851,125.19218 c 0.73,3.35 1.64,4.94 2.74,4.72 l 11.75,-2.42 -3.93,30.29 a 0.48,0.48 0 0 0 0.31,0.36 c 0.53,0.25 2.75,0 6.64,-0.8 3.89,-0.8 5.88,-1.51 5.94,-2.16 l 2.91,-35.36 z"
     id="path990" />
  <path
     class="a"
     d="m 197.6751,119.49218 a 2.14,2.14 0 0 0 -2.52,-1.67 l -4.52,0.91 -1.21,-6.24 4.52,-0.91 a 2.1425744,2.1425744 0 0 0 -0.85,-4.2 l -4.52,0.91 -1.24,-6.17 4.51,-0.92 a 2.08,2.08 0 0 0 1.36,-0.91 2.14,2.14 0 0 0 -2.2,-3.280003 l -4.52,0.91 -0.14,-0.67 -36.37,7.350003 0.13,0.67 -4.51,0.91 a 2.14,2.14 0 0 0 -1.68,2.52 2.16,2.16 0 0 0 2.53,1.68 l 4.51,-0.92 1.25,6.18 -4.52,0.91 a 2.16,2.16 0 0 0 -1.36,0.92 2.15,2.15 0 0 0 0.6,3 2.18,2.18 0 0 0 1.61,0.31 l 4.52,-0.91 1.25,6.18 -4.52,0.91 a 2.1425744,2.1425744 0 0 0 0.85,4.2 l 4.51,-0.92 0.73,3.62 a 2.16,2.16 0 0 0 0.92,1.36 2.12,2.12 0 0 0 1.61,0.31 l 3.61,-0.73 0.92,4.52 a 2.11,2.11 0 0 0 0.91,1.36 2.08,2.08 0 0 0 1.18,0.36 3.28,3.28 0 0 0 0.43,0 2.15,2.15 0 0 0 1.67,-2.53 l -0.91,-4.51 6.18,-1.25 0.91,4.51 a 2.1415882,2.1415882 0 0 0 4.2,-0.84 l -0.92,-4.52 6.18,-1.25 0.91,4.52 a 2.1425744,2.1425744 0 0 0 4.2,-0.85 l -0.91,-4.52 3.61,-0.73 a 2.08,2.08 0 0 0 1.36,-0.91 2.14,2.14 0 0 0 0.32,-1.61 l -0.73,-3.61 4.52,-0.92 a 2.14,2.14 0 0 0 1.63,-2.53 z"
     id="path992" />
  <path
     class="a"
     d="m 284.0351,84.002177 c -0.39,-0.28 -0.38,-0.29 0,-0.58 a 10.72,10.72 0 0 0 3.24,-4 3.86,3.86 0 0 0 0.36,-1.64 l -1.32,0.26 a 2.65,2.65 0 0 1 -0.51,1.82 5.76,5.76 0 0 1 -2.67,2.13 3.74,3.74 0 0 0 -0.8,0.4 c -0.15,0.12 -0.27,0.08 -0.41,0 -0.14,-0.08 -0.5,-0.36 -0.75,-0.55 a 11.41,11.41 0 0 0 -4,-1.93 l -9.22,1.87 a 11.43,11.43 0 0 0 -2.24,2.26 c -1.04,1.45 -2.04,2.8 -3.04,4.17 -0.19,0.25 -0.14,0.37 0.09,0.54 q 4.68,3.46 9.35,7 c 0.22,0.16 0.35,0.16 0.52,-0.07 0.63,-0.87 1.27,-1.73 1.93,-2.57 0.22,-0.28 0.21,-0.44 0,-0.71 a 2.91,2.91 0 0 1 -0.3,-4.1 c 0.6,-0.76 1.17,-1.56 1.75,-2.35 a 3.27,3.27 0 0 1 4.15,-0.92 c 0.24,0.13 0.35,0.08 0.49,-0.12 0.44,-0.61 0.9,-1.2 1.34,-1.81 0.18,-0.26 0.33,-0.29 0.57,-0.09 a 7.43,7.43 0 0 0 0.78,0.57 c 0.18,0.12 0.21,0.2 0.06,0.38 -0.46,0.6 -0.9,1.2 -1.35,1.81 -0.32,0.43 -0.31,0.44 0,0.84 a 2.87,2.87 0 0 1 0.19,3.88 c -0.58,0.81 -1.15,1.62 -1.78,2.38 a 3.08,3.08 0 0 1 -4.15,0.91 c -0.21,-0.14 -0.32,-0.05 -0.44,0.12 -0.67,0.91 -1.34,1.82 -2,2.72 -0.15,0.2 -0.14,0.31 0.06,0.46 l 9.34,6.940003 c 0.4,0.3 0.41,0.3 0.73,-0.12 0.95,-1.27 1.88,-2.55 2.84,-3.81 a 11,11 0 0 0 0.88,-12.300003 11.79,11.79 0 0 0 -3.69,-3.79 z"
     id="path994" />
  <path
     class="a"
     d="m 72.9251,282.86218 a 9.69,9.69 0 0 0 1.44,3 l 26.58,-5.37 4.52,-6.06 c 0.14,-0.19 0.16,-0.3 -0.05,-0.45 l -3.85,-2.86 -7.89,-5.87 -9,-6.68 c -0.2,-0.15 -0.29,-0.11 -0.42,0.07 -0.7,1 -1.41,1.89 -2.12,2.84 -2.3,3.1 -4.6,6.21 -6.92,9.29 a 14.11,14.11 0 0 0 -2.54,11.06 9.22,9.22 0 0 0 0.25,1.03 z"
     id="path996" />
  <path
     class="a"
     d="m 185.8451,236.16218 11.75,-2.38 -3.63,27.92 12.78,-2.58 2.81,-34.07 a 10.57,10.57 0 0 0 -1.5,-2.35 4.37,4.37 0 0 0 -4.28,-1.78 l -20.23,4.14 c -0.61,0.13 -0.93,0.81 -0.93,2.06 a 18.14,18.14 0 0 0 0.37,3.78 c 0.75,3.74 1.69,5.49 2.86,5.26 z"
     id="path998" />
  <path
     class="a"
     d="m 322.1051,229.75218 a 2.15,2.15 0 0 0 -2.52,-1.68 l -4.52,0.92 -1.24,-6.18 4.51,-0.91 a 2.13,2.13 0 0 0 1.36,-0.92 2.14,2.14 0 0 0 -2.21,-3.28 l -4.51,0.91 -1.25,-6.12 4.52,-0.92 a 2.14,2.14 0 1 0 -0.85,-4.19 l -4.52,0.91 -0.73,-3.62 a 2.15,2.15 0 0 0 -2.52,-1.67 l -3.62,0.73 -0.91,-4.52 a 2.14,2.14 0 0 0 -0.91,-1.36 2.18,2.18 0 0 0 -1.61,-0.31 2.11,2.11 0 0 0 -1.36,0.91 2.14,2.14 0 0 0 -0.32,1.61 l 0.92,4.52 -6.14,1.19 -0.91,-4.51 a 2.1425744,2.1425744 0 1 0 -4.2,0.85 l 0.91,4.51 -6.18,1.25 -0.91,-4.52 a 2.14,2.14 0 0 0 -0.91,-1.36 2.18,2.18 0 0 0 -1.61,-0.31 2.14,2.14 0 0 0 -1.68,2.52 l 0.92,4.52 -3.62,0.73 a 2.13,2.13 0 0 0 -1.67,2.52 l 0.73,3.62 -4.52,0.91 a 2.1425744,2.1425744 0 0 0 0.85,4.2 l 4.52,-0.92 1.24,6.18 -4.51,0.91 a 2.1425744,2.1425744 0 1 0 0.85,4.2 l 4.51,-0.91 1.25,6.18 -4.52,0.91 a 2.1425744,2.1425744 0 0 0 0.85,4.2 l 4.52,-0.92 0.73,3.62 a 0.85,0.85 0 0 0 0.09,0.27 l 0.25,0.79 36.14,-7.3 -0.09,-0.84 v -0.13 l -0.76,-3.75 4.52,-0.92 a 2.13,2.13 0 0 0 1.64,-2.52 z"
     id="path1000" />
  <path
     class="a"
     d="m 58.8751,324.58218 q 4.21,1.56 4.22,4.22 a 15.17,15.17 0 0 1 -2,6.57 q -2,3.92 -3.38,3.92 a 1.44,1.44 0 0 1 -0.87,-0.42 7,7 0 0 0 -2.28,-0.91 11.91,11.91 0 0 0 -3.08,-0.5 8.94,8.94 0 0 0 -7.11,3.12 q -2.7,3.12 -2.7,9.54 0,6.42 2.78,9.53 a 9,9 0 0 0 7,3.12 17.68,17.68 0 0 0 3.91,-0.49 6.32,6.32 0 0 0 3.08,-1.41 0.9,0.9 0 0 1 0.61,-0.15 q 0.45,0 1.71,1.71 a 19.53,19.53 0 0 1 2.32,4.48 13.32,13.32 0 0 1 1.06,4.3 q 0,3 -4.56,4.71 a 30.24,30.24 0 0 1 -10.79,1.75 21.34,21.34 0 0 1 -16.49,-7.07 q -6.47,-7.07 -6.46,-19.95 0.01,-12.88 6.65,-20.25 a 21.41,21.41 0 0 1 16.6,-7.38 28.09,28.09 0 0 1 9.78,1.56 z"
     id="path1002" />
  <path
     class="a"
     d="m 105.7251,377.06218 q -6.61,0 -7.14,-2.13 l -2.51,-9.8 h -12.08 l -2.21,9.42 c -0.3,1.57 -2.74,2.36 -7.29,2.36 a 25.14,25.14 0 0 1 -5.4,-0.42 c -1.17,-0.28 -1.75,-0.5 -1.75,-0.65 l 13.45,-51.45 c 0,-0.4 3.47,-0.61 10.41,-0.61 6.94,0 10.42,0.21 10.42,0.61 l 13.14,51.53 c 0,0.35 -1.16,0.63 -3.49,0.84 -2.33,0.21 -4.18,0.3 -5.55,0.3 z m -19.84,-21.57 h 8 l -3.42,-15.74 h -0.45 z"
     id="path1004" />
  <path
     class="a"
     d="m 151.2851,324.58218 q 4.21,1.56 4.22,4.22 a 15.14,15.14 0 0 1 -2,6.57 c -1.35,2.61 -2.47,3.92 -3.39,3.92 a 1.44,1.44 0 0 1 -0.87,-0.42 7,7 0 0 0 -2.28,-0.91 11.85,11.85 0 0 0 -3.08,-0.5 8.92,8.92 0 0 0 -7.1,3.12 q -2.7,3.12 -2.7,9.54 0,6.42 2.77,9.53 a 9,9 0 0 0 7,3.12 17.76,17.76 0 0 0 3.92,-0.49 6.28,6.28 0 0 0 3.07,-1.41 0.92,0.92 0 0 1 0.61,-0.15 q 0.47,0 1.71,1.71 a 19.14,19.14 0 0 1 2.32,4.48 13.13,13.13 0 0 1 1.07,4.3 q 0,3 -4.56,4.71 a 30.26,30.26 0 0 1 -10.8,1.75 21.36,21.36 0 0 1 -16.49,-7.07 q -6.47,-7.07 -6.46,-19.95 0.01,-12.88 6.65,-20.25 a 21.43,21.43 0 0 1 16.61,-7.38 28.07,28.07 0 0 1 9.78,1.56 z"
     id="path1006" />
  <path
     class="a"
     d="m 203.7651,375.61218 q 0,1.31 -7.67,1.3 -7.67,-0.01 -7.68,-1.3 v -17.47 h -10.64 v 17.47 q 0,1.31 -7.68,1.3 c -5.12,0 -7.67,-0.43 -7.67,-1.3 v -50.38 c 0,-1.07 2.55,-1.6 7.67,-1.6 5.12,0 7.68,0.53 7.68,1.6 v 17.86 h 10.64 v -17.71 c 0,-0.71 1.27,-1.22 3.8,-1.52 1.32,-0.1 2.61,-0.15 3.88,-0.15 l 3.87,0.15 c 2.53,0.3 3.8,0.81 3.8,1.52 z"
     id="path1008" />
  <path
     class="a"
     d="m 236.0651,344.84218 c 1,0 1.45,1.77 1.45,5.31 a 24.53,24.53 0 0 1 -0.35,3.77 c -0.23,1.44 -0.64,2.16 -1.25,2.16 h -9.65 v 7.6 h 14 c 0.86,0 1.44,1.12 1.75,3.35 a 19.94,19.94 0 0 1 0.23,3.07 25.81,25.81 0 0 1 -0.46,4.22 c -0.3,1.73 -0.81,2.59 -1.52,2.59 h -26 c -1.93,0 -2.89,-0.79 -2.89,-2.36 v -48.87 c 0,-1.31 0.58,-2 1.75,-2 h 27.21 q 1.59,0 1.59,6.72 0,6.72 -1.59,6.73 h -14.07 v 7.68 z"
     id="path1010" />
  <path
     class="a"
     d="m 285.7351,377.67218 q -10.68,0 -17.41,-7 -6.73,-7 -6.73,-20.41 0,-13.41 6.81,-20.33 6.81,-6.92 17.55,-6.92 10.75,0 17.37,6.8 6.62,6.8 6.61,20.6 0,13.8 -6.76,20.52 -6.76,6.72 -17.44,6.74 z m 0,-40.06 a 7.36,7.36 0 0 0 -6.11,3.35 q -2.48,3.34 -2.47,9.39 0.01,6.05 2.35,9.27 a 7.57,7.57 0 0 0 12.43,0 q 2.38,-3.27 2.39,-9.35 0.01,-6.08 -2.47,-9.35 a 7.45,7.45 0 0 0 -6.09,-3.31 z"
     id="path1012" />
  <path
     class="a"
     d="m 340.8651,325.23218 c 0,-1 2.75,-1.52 8.25,-1.52 5.5,0 8.24,0.5 8.24,1.52 v 34.88 a 16.11,16.11 0 0 1 -5.54,12.66 q -5.55,4.89 -15.32,4.9 -9.77,0.01 -15.88,-5.06 -6.12,-5.06 -6.12,-13.64 v -33.67 q 0,-1.51 8.25,-1.52 8.25,-0.01 8.24,1.52 v 34.28 a 2.73,2.73 0 0 0 1.6,2.43 7.17,7.17 0 0 0 3.5,0.91 6.58,6.58 0 0 0 3.3,-0.83 2.71,2.71 0 0 0 1.48,-2.51 z"
     id="path1014" />
  <path
     class="a"
     d="m 386.6151,375.69218 c 0,1 -2.5,1.52 -7.52,1.52 -5.02,0 -7.52,-0.5 -7.52,-1.52 v -38.15 h -9.12 c -0.87,0 -1.47,-1.17 -1.83,-3.5 a 25.54,25.54 0 0 1 0,-6.84 c 0.36,-2.33 1,-3.49 1.83,-3.49 h 33.06 c 0.86,0 1.47,1.16 1.82,3.49 a 25.54,25.54 0 0 1 0,6.84 c -0.35,2.33 -1,3.5 -1.82,3.5 h -8.9 z"
     id="path1016" />
  <path
     class="a"
     d="m 386.2851,201.27218 a 10.66,10.66 0 0 0 16.34,-11 l -13.31,-65.88 -20.89,4.22 13.31,65.88 a 10.59,10.59 0 0 0 4.55,6.78 z"
     id="path1018" />
  <path
     class="a"
     d="m 422.1951,206.66218 -14.85,-73.5 a 12.16,12.16 0 0 0 -14.32,-9.51 l -0.77,0.16 13.31,65.88 a 13.66,13.66 0 0 1 -10.68,16.09 14,14 0 0 1 -2.71,0.27 13.68,13.68 0 0 1 -13.38,-10.95 l -13.31,-65.88 -20.06,4 -11.44,-56.590003 a 26.86,26.86 0 0 0 -31.61,-21 l -275.85,55.750003 a 26.86,26.86 0 0 0 -20.9999995,31.61 l 29.4399995,145.61 a 26.77,26.77 0 0 0 31.6,21 l 275.85,-55.73 v 0 a 26.87,26.87 0 0 0 21.31,-23 l 49,-9.89 a 12.15,12.15 0 0 0 9.47,-14.32 z m -71.9,29.65 a 15.75,15.75 0 0 1 -10.05,6.76 l -275.86,55.73 a 15.84,15.84 0 0 1 -18.64,-12.38 l -29.42,-145.61 a 15.83,15.83 0 0 1 12.35,-18.65 l 275.88,-55.730003 a 16.29,16.29 0 0 1 3.17,-0.31 15.83,15.83 0 0 1 15.48,12.69 l 29.41,145.610003 a 15.7,15.7 0 0 1 -2.32,11.89 z"
     id="path1020" />
  <path
     id="path2169"
     d="m 359.12382,5.0005776 a 24.64,24.64 0 1 0 5.04688,48.7929684 24.64,24.64 0 0 0 8.75,-44.6816401 24.64,24.64 0 0 0 -13.79688,-4.1113283 z m -1.45312,2.492188 c -8,3.0000004 -16,10.9999994 -19,18.9999994 0,-5 2,-9 6,-12.999999 3,-3 7.97664,-6.0250084 13,-6.0000004 z"
     style="fill:#2171b9;fill-opacity:1" />
  <path
     class="a"
     d="m 402.6751,190.29218 -27.88,-137.750003 a 27.78,27.78 0 0 1 -15.51,4.74 27.43,27.43 0 0 1 -5.38,-0.56 l 27.83,137.770003 a 10.678525,10.678525 0 0 0 20.94,-4.2 z"
     id="path1024" />
</svg>
