<?xml version="1.0" encoding="UTF-8" standalone="no"?>
<svg
   xmlns:dc="http://purl.org/dc/elements/1.1/"
   xmlns:cc="http://creativecommons.org/ns#"
   xmlns:rdf="http://www.w3.org/1999/02/22-rdf-syntax-ns#"
   xmlns:svg="http://www.w3.org/2000/svg"
   xmlns="http://www.w3.org/2000/svg"
   xmlns:sodipodi="http://sodipodi.sourceforge.net/DTD/sodipodi-0.dtd"
   xmlns:inkscape="http://www.inkscape.org/namespaces/inkscape"
   inkscape:version="1.0 (unknown)"
   sodipodi:docname="cacheout.svg"
   id="svg2173"
   version="1.1"
   viewBox="0 0 426.5 312.41">
  <metadata
     id="metadata2177">
    <rdf:RDF>
      <cc:Work
         rdf:about="">
        <dc:format>image/svg+xml</dc:format>
        <dc:type
           rdf:resource="http://purl.org/dc/dcmitype/StillImage" />
        <dc:title>cache snipper</dc:title>
      </cc:Work>
    </rdf:RDF>
  </metadata>
  <sodipodi:namedview
     inkscape:current-layer="svg2173"
     inkscape:window-maximized="0"
     inkscape:window-y="0"
     inkscape:window-x="0"
     inkscape:cy="207.50281"
     inkscape:cx="408.9994"
     inkscape:zoom="2.8167679"
     showgrid="true"
     id="namedview2175"
     inkscape:window-height="2160"
     inkscape:window-width="3840"
     inkscape:pageshadow="2"
     inkscape:pageopacity="0"
     guidetolerance="10"
     gridtolerance="10"
     objecttolerance="10"
     borderopacity="1"
     bordercolor="#666666"
     pagecolor="#ffffff">
    <inkscape:grid
       id="grid2742"
       type="xygrid" />
  </sodipodi:namedview>
  <defs
     id="defs2131">
    <style
       id="style2129">.a{fill:#2171b9;}</style>
  </defs>
  <title
     id="title2133">cache snipper</title>
  <rect
     id="rect2135"
     transform="translate(494.58 290.45) rotate(168.58)"
     height="166"
     width="6.15"
     y="86.96"
     x="229.69"
     class="a" />
  <rect
     id="rect2137"
     transform="translate(303.04 349.5) rotate(168.58)"
     height="166"
     width="5.76"
     y="106.9"
     x="131.17"
     class="a" />
  <path
     id="path2139"
     d="M81.31,220.22l-.87-4.31q-9.16,1.18-11.68-8.93l6.37-1.29q1.34,5.53,4.26,5.05l-2.1-10.41a32.59,32.59,0,0,1-7.61-4.71,9.86,9.86,0,0,1-3.21-5.51,8.24,8.24,0,0,1,1-6.26,10,10,0,0,1,5.62-4l-.19-.94,2.72-.55.19.95q7.88-.79,10.12,7.77l-5.73,1.16c-.54-2.33-1.66-3.6-3.36-3.83l1.76,8.72a31.08,31.08,0,0,1,8,5.24,11.65,11.65,0,0,1,3.34,6.1,9.15,9.15,0,0,1-1.09,6.73,9.57,9.57,0,0,1-5.77,4.19l.87,4.31Zm-5.84-28.87-1.29-6.42a2.62,2.62,0,0,0-1.67,3A5,5,0,0,0,75.47,191.35Zm5,10.86,1.61,8a3,3,0,0,0,1.6-1.48,3.41,3.41,0,0,0,.25-2.19A6.68,6.68,0,0,0,80.49,202.21Z"
     class="a" />
  <path
     id="path2141"
     d="M184.1,198.63l-.87-4.3q-9.16,1.17-11.67-8.94l6.37-1.29c.88,3.69,2.3,5.38,4.26,5.05l-2.1-10.4a33.23,33.23,0,0,1-7.62-4.72,9.87,9.87,0,0,1-3.2-5.5,8.26,8.26,0,0,1,1-6.27,10,10,0,0,1,5.62-4l-.19-1,2.71-.55.2.95q7.86-.78,10.11,7.77l-5.72,1.16c-.54-2.33-1.66-3.6-3.36-3.83l1.76,8.72a31.61,31.61,0,0,1,8,5.24,11.75,11.75,0,0,1,3.34,6.11,9.13,9.13,0,0,1-1.09,6.72,9.57,9.57,0,0,1-5.77,4.2l.87,4.3Zm-5.83-28.86-1.3-6.43a2.62,2.62,0,0,0-1.66,3.06A5.05,5.05,0,0,0,178.27,169.77Zm5,10.86,1.61,8a2.91,2.91,0,0,0,1.59-1.47,3.35,3.35,0,0,0,.26-2.19A6.69,6.69,0,0,0,183.29,180.63Z"
     class="a" />
  <path
     id="path2143"
     d="M281.44,179.35l-.87-4.3q-9.17,1.17-11.67-8.94l6.37-1.29c.89,3.69,2.3,5.38,4.26,5.05l-2.1-10.4a32.91,32.91,0,0,1-7.61-4.72,9.83,9.83,0,0,1-3.21-5.5,8.26,8.26,0,0,1,1.05-6.27,10,10,0,0,1,5.62-4l-.19-1,2.72-.55.19.95q7.86-.78,10.12,7.77l-5.73,1.16c-.54-2.33-1.66-3.6-3.36-3.83l1.76,8.72a31.61,31.61,0,0,1,8,5.24,11.76,11.76,0,0,1,3.34,6.1,9.15,9.15,0,0,1-1.09,6.73,9.58,9.58,0,0,1-5.77,4.2l.87,4.3Zm-5.83-28.86-1.3-6.43a2.63,2.63,0,0,0-1.66,3.06A5.05,5.05,0,0,0,275.61,150.49Zm5,10.86,1.61,8a2.91,2.91,0,0,0,1.59-1.47,3.35,3.35,0,0,0,.26-2.19A6.64,6.64,0,0,0,280.63,161.35Z"
     class="a" />
  <path
     id="path2145"
     d="M109.67,253.28a12,12,0,0,0-3.61-3.76c-.4-.28-.39-.28,0-.57a10.86,10.86,0,0,0,3.23-3.95,3.37,3.37,0,0,0,.06-3,5.32,5.32,0,0,0-1.5-1.8,27.17,27.17,0,0,0-2.45-1.54,5,5,0,0,1-2.19-2.42,1.66,1.66,0,0,1,.7-2.16,4.07,4.07,0,0,1,1.26-.51,9,9,0,0,1,3.76.07,1,1,0,0,0,1.2-.72c.1-.34,0-.5-.33-.58a9.76,9.76,0,0,0-3.61-.2,5.69,5.69,0,0,0-2.84,1.18,3.53,3.53,0,0,0-.34,5.41,8.4,8.4,0,0,0,2.18,1.6,8.57,8.57,0,0,1,2.38,1.75,2.44,2.44,0,0,1,.25,3.32,5.78,5.78,0,0,1-2.67,2.14,3.23,3.23,0,0,0-.79.39.3.3,0,0,1-.42,0c-.24-.19-.5-.37-.75-.55a10.91,10.91,0,0,0-15.43,2.19c-1,1.39-2,2.78-3.1,4.16-.19.25-.14.36.09.53q4.68,3.48,9.35,7c.22.16.35.16.52-.07.63-.86,1.27-1.72,1.94-2.57.21-.28.21-.44-.05-.71a2.91,2.91,0,0,1-.3-4.09c.61-.77,1.17-1.57,1.75-2.36a3.28,3.28,0,0,1,4.16-.92c.23.14.34.08.48-.11.44-.61.91-1.21,1.34-1.82.18-.26.33-.29.57-.08a8.54,8.54,0,0,0,.78.56c.18.12.21.21.07.39-.47.59-.91,1.2-1.35,1.8-.32.44-.32.44,0,.84a2.89,2.89,0,0,1,.18,3.89c-.58.8-1.14,1.62-1.78,2.38a3.09,3.09,0,0,1-4.15.91c-.21-.14-.32,0-.44.11l-2,2.73c-.15.19-.14.31.07.46l9.33,6.93c.41.31.41.31.73-.12,1-1.27,1.89-2.55,2.84-3.81A11,11,0,0,0,109.67,253.28Z"
     class="a" />
  <path
     id="path2147"
     d="M98.18,257.46a1.8,1.8,0,0,0,2.52-.35c.68-.87,1.34-1.76,2-2.66a1.71,1.71,0,0,0,.29-1.39,1.76,1.76,0,0,0-1.31-1.42,1.68,1.68,0,0,0-1.86.59c-.7.89-1.37,1.8-2,2.72A1.8,1.8,0,0,0,98.18,257.46Z"
     class="a" />
  <path
     id="path2149"
     d="M278.2,98.62l-7.89-5.87c-3-2.23-6-4.45-9-6.69-.2-.15-.29-.1-.42.08-.7,1-1.41,1.89-2.12,2.84-2.3,3.09-4.6,6.2-6.92,9.29a14.09,14.09,0,0,0-2.6,11c.07.36.19.7.29,1a8.91,8.91,0,0,0,3,4.7c1.22,1,2.5,1.84,3.72,2.79a9,9,0,0,0,5,1.86,12.4,12.4,0,0,0,5.36-.83,13.26,13.26,0,0,0,6.16-4.48c3.11-4.15,6.19-8.31,9.29-12.47.15-.19.17-.3,0-.46C280.76,100.53,279.48,99.57,278.2,98.62Z"
     class="a" />
  <path
     id="path2151"
     d="M278,88.1c.68-.87,1.33-1.77,2-2.66a1.72,1.72,0,0,0,.29-1.39A1.75,1.75,0,0,0,279,82.63a1.67,1.67,0,0,0-1.86.59c-.7.88-1.37,1.79-2,2.71A1.82,1.82,0,0,0,278,88.1Z"
     class="a" />
  <path
     id="path2153"
     d="M52.51,121.7c.73,3.35,1.64,4.94,2.74,4.72L67,124l-3.93,30.29a.48.48,0,0,0,.31.36c.53.25,2.75,0,6.64-.8s5.88-1.51,5.94-2.16l2.91-35.36Z"
     class="a" />
  <path
     id="path2155"
     d="M197,116a2.14,2.14,0,0,0-2.52-1.67l-4.52.91L188.75,109l4.52-.91a2.14,2.14,0,0,0-.85-4.2l-4.52.91-1.24-6.17,4.51-.92a2.08,2.08,0,0,0,1.36-.91,2.14,2.14,0,0,0-2.2-3.28l-4.52.91-.14-.67-36.37,7.35.13.67-4.51.91a2.14,2.14,0,0,0-1.68,2.52,2.16,2.16,0,0,0,2.53,1.68l4.51-.92,1.25,6.18-4.52.91a2.16,2.16,0,0,0-1.36.92,2.15,2.15,0,0,0,.6,3,2.18,2.18,0,0,0,1.61.31l4.52-.91,1.25,6.18-4.52.91a2.14,2.14,0,0,0,.85,4.2l4.51-.92.73,3.62a2.16,2.16,0,0,0,.92,1.36,2.12,2.12,0,0,0,1.61.31l3.61-.73.92,4.52a2.11,2.11,0,0,0,.91,1.36,2.08,2.08,0,0,0,1.18.36,3.28,3.28,0,0,0,.43,0,2.15,2.15,0,0,0,1.67-2.53l-.91-4.51,6.18-1.25.91,4.51a2.14,2.14,0,0,0,4.2-.84l-.92-4.52,6.18-1.25.91,4.52a2.14,2.14,0,0,0,4.2-.85l-.91-4.52,3.61-.73a2.08,2.08,0,0,0,1.36-.91,2.14,2.14,0,0,0,.32-1.61l-.73-3.61,4.52-.92A2.14,2.14,0,0,0,197,116Z"
     class="a" />
  <path
     id="path2157"
     d="M283.36,80.51c-.39-.28-.38-.29,0-.58a10.72,10.72,0,0,0,3.24-4,3.86,3.86,0,0,0,.36-1.64l-1.32.26a2.65,2.65,0,0,1-.51,1.82,5.76,5.76,0,0,1-2.67,2.13,3.74,3.74,0,0,0-.8.4c-.15.12-.27.08-.41,0s-.5-.36-.75-.55a11.41,11.41,0,0,0-4-1.93l-9.22,1.87a11.43,11.43,0,0,0-2.24,2.26C264,82,263,83.35,262,84.72c-.19.25-.14.37.09.54q4.68,3.46,9.35,7c.22.16.35.16.52-.07.63-.87,1.27-1.73,1.93-2.57.22-.28.21-.44,0-.71a2.91,2.91,0,0,1-.3-4.1c.6-.76,1.17-1.56,1.75-2.35a3.27,3.27,0,0,1,4.15-.92c.24.13.35.08.49-.12.44-.61.9-1.2,1.34-1.81.18-.26.33-.29.57-.09a7.43,7.43,0,0,0,.78.57c.18.12.21.2.06.38-.46.6-.9,1.2-1.35,1.81-.32.43-.31.44,0,.84a2.87,2.87,0,0,1,.19,3.88c-.58.81-1.15,1.62-1.78,2.38a3.08,3.08,0,0,1-4.15.91c-.21-.14-.32-.05-.44.12-.67.91-1.34,1.82-2,2.72-.15.2-.14.31.06.46l9.34,6.94c.4.3.41.3.73-.12.95-1.27,1.88-2.55,2.84-3.81a11,11,0,0,0,.88-12.3A11.79,11.79,0,0,0,283.36,80.51Z"
     class="a" />
  <path
     id="path2159"
     d="M72.25,279.37a9.69,9.69,0,0,0,1.44,3L100.27,277l4.52-6.06c.14-.19.16-.3-.05-.45l-3.85-2.86L93,261.76l-9-6.68c-.2-.15-.29-.11-.42.07-.7,1-1.41,1.89-2.12,2.84-2.3,3.1-4.6,6.21-6.92,9.29A14.11,14.11,0,0,0,72,278.34,9.22,9.22,0,0,0,72.25,279.37Z"
     class="a" />
  <path
     id="path2161"
     d="M185.17,232.67l11.75-2.38-3.63,27.92,12.78-2.58,2.81-34.07a10.57,10.57,0,0,0-1.5-2.35,4.37,4.37,0,0,0-4.28-1.78l-20.23,4.14c-.61.13-.93.81-.93,2.06a18.14,18.14,0,0,0,.37,3.78C183.06,231.15,184,232.9,185.17,232.67Z"
     class="a" />
  <path
     id="path2163"
     d="M321.43,226.26a2.15,2.15,0,0,0-2.52-1.68l-4.52.92-1.24-6.18,4.51-.91a2.13,2.13,0,0,0,1.36-.92,2.14,2.14,0,0,0-2.21-3.28l-4.51.91L311.05,209l4.52-.92a2.14,2.14,0,1,0-.85-4.19l-4.52.91-.73-3.62a2.15,2.15,0,0,0-2.52-1.67l-3.62.73-.91-4.52a2.14,2.14,0,0,0-.91-1.36,2.18,2.18,0,0,0-1.61-.31,2.11,2.11,0,0,0-1.36.91,2.14,2.14,0,0,0-.32,1.61l.92,4.52L293,202.28l-.91-4.51a2.14,2.14,0,1,0-4.2.85l.91,4.51-6.18,1.25-.91-4.52a2.14,2.14,0,0,0-.91-1.36,2.18,2.18,0,0,0-1.61-.31,2.14,2.14,0,0,0-1.68,2.52l.92,4.52-3.62.73a2.13,2.13,0,0,0-1.67,2.52l.73,3.62-4.52.91a2.14,2.14,0,0,0,.85,4.2l4.52-.92,1.24,6.18-4.51.91a2.14,2.14,0,1,0,.85,4.2l4.51-.91,1.25,6.18-4.52.91a2.14,2.14,0,0,0,.85,4.2l4.52-.92.73,3.62a.85.85,0,0,0,.09.27l.25.79,36.14-7.3-.09-.84v-.13l-.76-3.75,4.52-.92A2.13,2.13,0,0,0,321.43,226.26Z"
     class="a" />
  <path
     id="path2165"
     d="M385.61,197.78a10.66,10.66,0,0,0,16.34-11l-13.31-65.88-20.89,4.22L381.06,191A10.59,10.59,0,0,0,385.61,197.78Z"
     class="a" />
  <path
     id="path2167"
     d="M421.52,203.17l-14.85-73.5a12.16,12.16,0,0,0-14.32-9.51l-.77.16,13.31,65.88a13.66,13.66,0,0,1-10.68,16.09,14,14,0,0,1-2.71.27,13.68,13.68,0,0,1-13.38-10.95l-13.31-65.88-20.06,4L333.31,73.14a26.86,26.86,0,0,0-31.61-21L25.85,107.89a26.86,26.86,0,0,0-21,31.61L34.29,285.11a26.77,26.77,0,0,0,31.6,21l275.85-55.73h0a26.87,26.87,0,0,0,21.31-23l49-9.89A12.15,12.15,0,0,0,421.52,203.17Zm-71.9,29.65a15.75,15.75,0,0,1-10.05,6.76L63.71,295.31a15.84,15.84,0,0,1-18.64-12.38L15.65,137.32A15.83,15.83,0,0,1,28,118.67L303.88,62.94a16.29,16.29,0,0,1,3.17-.31,15.83,15.83,0,0,1,15.48,12.69l29.41,145.61A15.7,15.7,0,0,1,349.62,232.82Z"
     class="a" />
  <path
     style="fill:#2171b9;fill-opacity:1"
     d="M 358.45312 1.5078125 A 24.64 24.64 0 1 0 363.5 50.300781 A 24.64 24.64 0 0 0 372.25 5.6191406 A 24.64 24.64 0 0 0 358.45312 1.5078125 z M 357 4 C 349 7 341 15 338 23 C 338 18 340 14 344 10 C 347 7 351.97664 3.974992 357 4 z "
     id="path2169" />
  <path
     id="path2171"
     d="M402,186.8,374.12,49.05a27.78,27.78,0,0,1-15.51,4.74,27.43,27.43,0,0,1-5.38-.56L381.06,191A10.66,10.66,0,0,0,402,186.8Z"
     class="a" />
</svg>
