<svg width="120" height="120" xmlns="http://www.w3.org/2000/svg" xmlns:xlink="http://www.w3.org/1999/xlink" overflow="hidden"><defs><clipPath id="clip0"><rect x="0" y="0" width="120" height="120"/></clipPath></defs><g clip-path="url(#clip0)"><rect x="0" y="0" width="120" height="120" fill="#FFFFFF" fill-opacity="0"/><g><g><g><path d="M22 34 29 34 29 38 22 38Z" fill="#C04F15"/><path d="M22 26 29 26 29 30 22 30Z" fill="#C04F15"/><path d="M22 42 29 42 29 46 22 46Z" fill="#C04F15"/><path d="M22 66 29 66 29 70 22 70Z" fill="#C04F15"/><path d="M22 58 29 58 29 62 22 62Z" fill="#C04F15"/><path d="M22 50 29 50 29 54 22 54Z" fill="#C04F15"/><path d="M91 58 98 58 98 62 91 62Z" fill="#C04F15"/><path d="M91 66 98 66 98 70 91 70Z" fill="#C04F15"/><path d="M91 50 98 50 98 54 91 54Z" fill="#C04F15"/><path d="M91 26 98 26 98 30 91 30Z" fill="#C04F15"/><path d="M91 42 98 42 98 46 91 46Z" fill="#C04F15"/><path d="M91 34 98 34 98 38 91 38Z" fill="#C04F15"/><path d="M62 10 66 10 66 17 62 17Z" fill="#C04F15"/><path d="M78 10 82 10 82 17 78 17Z" fill="#C04F15"/><path d="M70 10 74 10 74 17 70 17Z" fill="#C04F15"/><path d="M54 10 58 10 58 17 54 17Z" fill="#C04F15"/><path d="M38 10 42 10 42 17 38 17Z" fill="#C04F15"/><path d="M46 10 50 10 50 17 46 17Z" fill="#C04F15"/><path d="M46 79 50 79 50 86 46 86Z" fill="#C04F15"/><path d="M38 79 42 79 42 86 38 86Z" fill="#C04F15"/><path d="M54 79 58 79 58 86 54 86Z" fill="#C04F15"/><path d="M62 79 66 79 66 86 62 86Z" fill="#C04F15"/><path d="M70 79 74 79 74 86 70 86Z" fill="#C04F15"/><path d="M78 79 82 79 82 86 78 86Z" fill="#C04F15"/><path d="M47 35 73 35 73 61 47 61Z" fill="#C04F15"/><path d="M83 21 37 21C34.7909 21 33 22.7909 33 25L33 71C33 73.2091 34.7909 75 37 75L83 75C85.2091 75 87 73.2091 87 71L87 25C87 22.7909 85.2091 21 83 21ZM77 65 43 65 43 31 77 31Z" fill="#C04F15"/></g></g></g><path d="M32 25.2503C32 22.9029 33.9029 21 36.2503 21L83.7496 21C86.0971 21 88 22.9029 88 25.2503L88 70.7497C88 73.0971 86.0971 75 83.7496 75L36.2503 75C33.9029 75 32 73.0971 32 70.7497Z" fill="#C04F15" fill-rule="evenodd"/><g><g><g><path d="M69.5675 36.6042C68.3842 36.3171 67.1348 36.541 66.125 37.2212 64.0083 38.6446 63.2533 41.7425 63.0267 43.0083 62.9087 43.6667 62.8446 44.8058 62.7704 46.125 62.655 48.1738 62.5112 50.7237 62.1287 52 61.8337 52.9842 61.4467 53.9479 61.0362 54.9679 60.4973 56.2442 60.0304 57.5497 59.6379 58.8783 58.8207 61.5974 60.3626 64.4641 63.0816 65.2812 64.39 65.6744 65.8011 65.5307 67.0033 64.8817 68.186 64.2531 69.0617 63.1699 69.4283 61.8817L69.4283 61.8817C69.8838 60.2846 71.4804 55.0067 72.0117 53.7408 72.2844 53.2032 72.5959 52.6861 72.9437 52.1937 73.8638 50.7979 75.1237 48.8858 75.5171 46.7733 76.1617 43.3254 73.9458 37.5354 69.5675 36.6042ZM68.6462 43.0367 68.41 43.2033C67.2796 43.9817 65.1142 45.6746 64.5196 47.5729 63.7279 50.0962 64.5408 52.9987 64.5488 53.0275 64.6405 53.3603 64.4452 53.7044 64.1124 53.7962 63.7848 53.8865 63.445 53.6985 63.3475 53.3729 63.3092 53.24 62.4221 50.0875 63.3262 47.1996 64.1304 44.6325 67.0921 42.5521 68.1212 41.8917L68.285 41.0017C68.3474 40.6621 68.6732 40.4374 69.0127 40.4998 69.3522 40.5622 69.577 40.888 69.5146 41.2275L69.3825 41.9467C70.0754 42.8217 73.72 47.6721 72.5471 51.4167 71.5713 54.5304 70.3296 55.4617 70.1913 55.5575 69.9044 55.7495 69.5162 55.6725 69.3242 55.3856 69.1388 55.1084 69.2037 54.7344 69.4717 54.5358 69.5062 54.5092 70.52 53.7054 71.3542 51.0429 72.2008 48.3404 69.8125 44.65 68.7729 43.2167Z" fill="#262626"/><path d="M57.3958 38.1792C57.4512 36.8942 57.39 33.7062 55.6354 31.855 54.7987 30.9703 53.6283 30.4785 52.4108 30.5L52.3504 30.5C47.9046 30.5 44.5079 35.6358 44.3825 39.125 44.305 41.2742 45.1167 43.4167 45.7083 44.9779 45.9406 45.5345 46.1318 46.1072 46.2804 46.6917 46.5254 48.0429 46.9308 53.5433 47.0262 55.2008L47.0262 55.2008C47.1036 56.5376 47.7217 57.7852 48.7383 58.6567 49.682 59.4714 50.887 59.9202 52.1338 59.9212 52.275 59.9212 52.4171 59.915 52.5583 59.9033 55.3531 59.6475 57.4314 57.2055 57.2371 54.4058 57.1444 53.024 56.9741 51.6485 56.7271 50.2858 56.5496 49.2025 56.3817 48.175 56.3104 47.15 56.2154 45.8204 56.6321 43.3 56.9671 41.275 57.1808 39.9721 57.3671 38.8471 57.3958 38.1792ZM51.7379 37.1321C50.4046 38.3083 47.2796 41.3879 47.515 44.2008 47.7504 47.0137 48.5821 48.0121 48.5904 48.0217 48.8187 48.2806 48.7939 48.6755 48.535 48.9038 48.4198 49.0053 48.2714 49.0609 48.1179 49.06 47.9454 49.0602 47.7808 48.9879 47.6642 48.8608 47.55 48.7358 46.5413 47.5571 46.2692 44.305 45.9425 40.395 50.5575 36.4583 51.425 35.7546L51.4529 35.0242C51.47 34.6809 51.7581 34.4141 52.1017 34.4233 52.4466 34.4367 52.7154 34.727 52.7021 35.072 52.7021 35.072 52.7021 35.072 52.7021 35.0721L52.6675 35.9762C53.5279 36.845 55.9637 39.5221 56.1883 42.2029 56.4404 45.2183 54.8867 48.1012 54.82 48.2225 54.6444 48.5197 54.2612 48.6183 53.964 48.4427 53.6814 48.2757 53.5761 47.9186 53.7229 47.625 53.7375 47.5987 55.1629 44.9433 54.9421 42.3088 54.7754 40.3254 53.0321 38.2 52.0988 37.1942L51.9075 36.9858Z" fill="#262626"/></g></g></g><path d="M37.5001 29.8846C37.5001 28.0154 39.0154 26.5001 40.8846 26.5001L79.1155 26.5001C80.9847 26.5001 82.5001 28.0154 82.5001 29.8846L82.5001 66.1155C82.5001 67.9847 80.9847 69.5001 79.1155 69.5001L40.8846 69.5001C39.0154 69.5001 37.5001 67.9847 37.5001 66.1155Z" stroke="#FFFFFF" stroke-width="3" stroke-miterlimit="8" fill="none" fill-rule="evenodd"/><text fill="#C04F15" font-family="Roboto,Roboto_MSFontService,sans-serif" font-weight="400" font-size="24" transform="translate(31.0833 115)">FLOP</text></g></svg>