<?xml version="1.0" encoding="utf-8"?>
<!-- Generator: Adobe Illustrator 22.1.0, SVG Export Plug-In . SVG Version: 6.00 Build 0)  -->
<svg version="1.1" id="Layer_1" xmlns="http://www.w3.org/2000/svg" xmlns:xlink="http://www.w3.org/1999/xlink" x="0px" y="0px"
	 viewBox="0 0 2000 2000" style="enable-background:new 0 0 2000 2000;" xml:space="preserve">
<style type="text/css">
	.st0{opacity:0.75;fill:#181716;enable-background:new    ;}
	.st1{opacity:0.75;}
	.st2{fill:#181716;}
	.st3{fill:#FFFFFF;}
	.st4{fill:#CD1C20;}
</style>
<g id="Layer_3">
</g>
<g id="Foreshadow_Logo">
	<g>
		<polygon id="_x32_" class="st0" points="1615.5,681.8 1662.5,656.7 1679.9,704.8 1594.1,702.5 		"/>
		<polygon id="_x31_" class="st0" points="1589.5,604 1596.1,568.9 1640.5,577.1 1592.6,639 		"/>
		<g id="Shadow" class="st1">
			<path class="st2" d="M1677.3,757.8c-7.5-1.6-37.4-7.4-97.4-14.3l-26.2-3l21,91.4l-50.1,128.6L1556,1142l-60,115.6l116,69.6
				l-87.7,158.5l14.8,88.9l-3.6,73.4c46.5-4.6,127.5-32.8,152.9-44.7c18.3-8.6,29.1-21.3,29.1-39.1V798.9
				C1717.6,777,1701.3,762.3,1677.3,757.8z"/>
			<path class="st2" d="M1562.2,525.4c-0.2-119-37.3-218.7-107.3-288.3c-32.8-32.7-72-57.9-116.5-75
				c-43.6-16.7-91.2-25.2-141.4-25.2c-44.3,0-86.7,8.4-126,23.8c14.6,20,55.5,99.2,61,118.3c14.4-2.4,50.9-12.7,66.4-12.8
				c69.5-0.6,125,19.2,165,58.9c44.9,44.5,68.6,113.6,68.6,199.9l0.5,41.1c0.3,22.1,17.8,39.8,39.8,40.3c13.6,0.3,33,0.9,48,1.3
				c11.2,0.3,21.7-3.8,29.7-11.6s12.4-18.3,12.3-29.5L1562.2,525.4z"/>
			<path class="st2" d="M1508.8,1337.1l-91.9-96.9l64-116.2l-35.1-141.2l53.4-130.4l-45.2-76.3v-44l-17-1.5
				c-42.9-3.7-73.6-7.4-127-10c-2.1,4.2,4.2,697.6-1.7,708.6c-10.1,16.8-242.6,115-631.9,77.7v51.3c0,17.9,11.8,33.6,29.3,39.1
				c120.8,38.2,234.9,62.3,348.8,73.5c48.8,4.8,97,7.2,145.1,7.2c69,0,137.8-4.9,207.7-14.9l10.1-1.4l26.2-57.8l-13.2-125.8
				L1508.8,1337.1z"/>
			<path class="st2" d="M954.4,594.3c1.3-0.2,2.8-0.3,4.2-0.5l0.8-68.6V525v-0.2c-0.9-76.7,23.9-144.7,69.6-191.4
				c3.4-3.4,17.1-12.6,20.7-15.8c-3.2-13.6-48.7-83.1-64.9-108.2c-92.5,70.6-153,185.9-153,316l0.3,62.1
				C872.4,593.5,912.6,598.9,954.4,594.3z"/>
		</g>
		<path class="st3" d="M1287.3,627.9c0,0-51.1-6.6-132.3-14l0.4-198.7C1155,173.7,999.4,43.8,807.6,43.8S459.7,210.4,459.7,415.2
			l0.9,191.2c-46.9,5.3-91.7,12.4-132.8,21.5c-13.6,3-24,8.5-24,19v10.3V1286v133.4c0,9.7,6.6,18.4,16.4,21.4
			c322.2,102,630.5,111.4,975,0.1c9.7-3.1,16.3-11.8,16.3-21.4v-133.4V657.3v-10.3C1311.3,636.4,1300.6,627.9,1287.3,627.9z
			 M808.7,136.2c162.8-1.5,253.4,105.2,253.4,278.5v191.5c-144.5-10.7-337.5-19.2-513.6-7.5l1.8-183.9
			C548.5,258.3,646.2,137.6,808.7,136.2z"/>
		<g id="Lock">
			<path class="st4" d="M1326.9,648.1v-0.6c0-19.7-17.9-35.7-40.1-36.3c-7-0.9-49.5-6.2-114.5-12.3l0.4-182.3
				c-0.2-119-37.3-218.7-107.3-288.3c-32.8-32.7-72-57.9-116.5-75C905.3,36.5,857.8,28,807.6,28c-201.4,0-365.2,174.3-365.2,388.6
				v0.1l1.1,175.1c-43,5.3-82.3,11.9-117.7,19.8c-9.8,2.2-17.5,5.3-23.3,9.5c-9.2,6.5-14.2,15.9-14.2,26.4v0.7
				c-0.9,3.5-1.2,6.8-1.2,9.6V1417c0,17.9,11.8,33.6,29.3,39.1c167.6,53.1,325.6,79.5,482.8,80.6c3.7,0,7.3,0,10.9,0
				c161.2,0,321.3-26.4,489-80.6l0,0c17.4-5.6,29.1-21.3,29.1-39.1V657.8C1328.1,654.5,1327.7,651.2,1326.9,648.1z M324.3,657.8
				L324.3,657.8c0.5-0.6,2.9-2.6,10.1-4.5c50.1-13.4,108.8-23.5,174.9-30.3c0.2,0,46.4-4.3,52.2-4.6c108.9-8,235.3-7.9,375.6,0.5
				c192.3,11.5,344.2,34.6,345.7,34.8l1.4,0.2h1.4c3.1,0,5.3,2.1,5.3,3.9v626.7c-0.5,0.3-1.2,0.6-2.1,0.8
				c-324.8,88-630.6,88-962.4-0.1c-0.9-0.2-1.6-0.5-2.1-0.8L324.3,657.8L324.3,657.8z M955.6,582.7c-5.3-0.3-10.6-0.7-15.9-1
				c-114-6.8-219.7-8.3-314.1-4.4c-19.7,0.8-38.9,1.9-57.7,3.2l2.2-164.1c0-0.2,0-0.3,0-0.5c-0.9-76.7,23.9-144.7,69.6-191.4
				c42.5-43.4,101.1-66.6,169.4-67.2c69.5-0.6,125,19.2,165,58.9c44.9,44.5,68.6,113.6,68.6,199.9v172
				C1015,586.1,985.9,584.3,955.6,582.7z M480.7,585.2l-1-168.7c0-193.7,147.1-351.3,327.9-351.3c198.8,0,327.6,137.9,327.9,351.3
				l-0.4,169.7c-7.2-0.2-16.3-0.5-27.3-0.8c-9.9-0.3-19.9-0.5-28-0.7V416.1c0-96.5-27.5-174.8-79.6-226.4
				c-23.3-23.1-51.4-40.7-83.4-52.5c-32.2-11.8-68.6-17.6-108.2-17.2c-78.4,0.7-146.1,27.8-195.6,78.4
				c-52.7,53.8-81.2,131-80.2,217.7l-2.2,167.2c-9.6,0.7-19,1.5-28.2,2.3C494.6,585.4,487.1,585.3,480.7,585.2z M1287.6,1420.8
				c-324,104.7-629.1,104.7-960.1-0.1c-1.9-0.6-3.3-2.1-3.3-3.6v-96.3c164.8,43.2,320.2,64.7,474.9,65.7c3.6,0,7.3,0,10.9,0
				c158.5,0,316-21.5,480.8-65.6v96.3C1290.9,1418.7,1289.5,1420.1,1287.6,1420.8z"/>
			<path class="st4" d="M807.6,865.9c-50,0-90.6,42.4-90.6,94.7c0,39.2,22.8,72.8,55.2,87.2L747,1168.9h125.3l-24.2-123.6
				c29.7-15.6,50-47.6,50-84.7C898.2,908.3,857.6,865.9,807.6,865.9z"/>
		</g>
	</g>
</g>
<g id="Text">
	<path class="st4" d="M296,1906.1v70.2h-30.8v-183.6h101.5v29.4H296v54.5h65.3v29.4L296,1906.1L296,1906.1z"/>
	<path class="st4" d="M461.2,1829.7c42.4,0,74.8,32.1,74.8,74.8c0,42.4-32.4,74.5-74.8,74.5s-74.5-32.1-74.5-74.5
		C386.7,1861.8,418.8,1829.7,461.2,1829.7z M461.2,1950.4c25.9,0,45.3-20.2,45.3-45.9c0-25.9-19.4-46.2-45.3-46.2
		c-25.6,0-45.3,20.2-45.3,46.2C415.8,1930.1,435.5,1950.4,461.2,1950.4z"/>
	<path class="st4" d="M565.4,1832.4h48.9c28.1,0,47.2,15.1,47.2,41.6c0,20.5-12.1,32.7-26.5,36.7c-0.5,0.5,33.2,65.7,32.9,65.6
		h-29.4c-0.3-0.7-25.8-54.6-25.7-54.5h-19.1v54.5h-28.3L565.4,1832.4L565.4,1832.4z M613.7,1859.7h-20v34.8h20
		c10.5,0,18.6-6.2,18.6-17.3C632.3,1865.9,624.2,1859.7,613.7,1859.7z"/>
	<path class="st4" d="M697.4,1976.3v-143.9h81.5v27.3h-53.2v30.5h48.9v27.3h-48.9v31.6h53.2v27.3h-81.5V1976.3z"/>
	<path class="st4" d="M885.5,1867c-7.3-5.4-20-10.5-32.1-10.5c-11.6,0-17.5,6.5-17.5,14c0,5.7,3,9.7,8.9,13.5l21.9,13
		c19.2,10.5,25.9,23.5,25.9,39.4c0,22.4-15.1,42.6-48,42.6c-14.3,0-27.3-3.8-36.2-7.6v-31.6c7.6,6.2,21.3,12.4,35.1,12.4
		c12.4,0,18.9-6.5,18.9-14.3c0-5.4-3.8-10.5-10.8-14.8l-21.6-13.5c-18.9-10.5-24.6-22.4-24.6-38.6c0-19.7,12.7-41.3,49.4-41.3
		c11.1,0,22.1,3,30.8,6.7v30.6H885.5z"/>
	<path class="st4" d="M1019.9,1917.5h-68.3v58.8h-28.3v-143.9h28.3v57.8h68.3v-57.8h28.3v143.9h-28.3L1019.9,1917.5L1019.9,1917.5z"
		/>
	<path class="st4" d="M1166.5,1944.2h-52.6l-11.1,32.1H1071l53.7-143.9h31.6l53.4,143.9h-31.9L1166.5,1944.2z M1123.6,1916.9h33.7
		l-17-47.5L1123.6,1916.9z"/>
	<path class="st4" d="M1232.7,1832.4h53.2c43.5,0,71,29.7,71,72.1c0,41.8-27.5,71.8-71,71.8h-53.2V1832.4z M1261,1859.7v89.3h24.6
		c26.7,0,41.8-19.2,41.8-44.5c0-25.6-15.1-44.8-41.8-44.8H1261z"/>
	<path class="st4" d="M1451.6,1829.7c42.4,0,74.8,32.1,74.8,74.8c0,42.4-32.4,74.5-74.8,74.5s-74.5-32.1-74.5-74.5
		C1377.1,1861.8,1409.2,1829.7,1451.6,1829.7z M1451.6,1950.4c25.9,0,45.3-20.2,45.3-45.9c0-25.9-19.4-46.2-45.3-46.2
		c-25.6,0-45.3,20.2-45.3,46.2C1406.2,1930.1,1425.9,1950.4,1451.6,1950.4z"/>
	<path class="st4" d="M1539.3,1832.4h31.9l25.4,108.2l36.4-108.2h18.1l30.8,108.2l25.1-108.2h31.9l-38.9,143.9h-31.9l-26.7-88.3
		l-31.3,88.3h-31.6L1539.3,1832.4z"/>
</g>
</svg>
