<?xml version="1.0" encoding="utf-8"?>
<!-- Generator: Adobe Illustrator 23.0.1, SVG Export Plug-In . SVG Version: 6.00 Build 0)  -->
<svg version="1.1" id="Layer_1" xmlns="http://www.w3.org/2000/svg" xmlns:xlink="http://www.w3.org/1999/xlink" x="0px" y="0px"
	 viewBox="0 0 800 800" style="enable-background:new 0 0 800 800;" xml:space="preserve">
<style type="text/css">
	.st0{fill:#488DCB;}
	.st1{fill:#EF5123;}
	.st2{fill-rule:evenodd;clip-rule:evenodd;fill:#488DCB;}
	.st3{fill:none;stroke:#478DCB;stroke-width:3;stroke-miterlimit:10;}
	.st4{fill:#478DCB;}
</style>
<g>
	<g>
		<path class="st0" d="M321.28,366.82c0.67-0.67,1.75-0.67,2.42,0c0.67,0.67,0.67,1.75,0,2.42l-25.14,25.14
			c-0.67,0.67-1.75,0.67-2.42,0c-0.67-0.67-0.67-1.75,0-2.42L321.28,366.82z"/>
	</g>
	<g>
		<path class="st1" d="M325.56,370.48c0.36-0.87,1.36-1.28,2.23-0.92c0.87,0.36,1.28,1.36,0.92,2.23l-8.31,20.03
			c-0.36,0.87-1.36,1.28-2.23,0.92c-0.87-0.36-1.28-1.36-0.92-2.23L325.56,370.48z"/>
	</g>
	<g>
		<path class="st1" d="M318.72,361.79c0.87-0.36,1.87,0.05,2.23,0.93c0.36,0.87-0.06,1.87-0.93,2.23l-20.04,8.29
			c-0.87,0.36-1.87-0.05-2.23-0.93c-0.36-0.87,0.05-1.87,0.93-2.23L318.72,361.79z"/>
	</g>
	<g>
		<path class="st0" d="M341.45,369.17c-0.66-0.66-0.66-1.74,0-2.4c0.66-0.66,1.74-0.66,2.4,0l24.92,24.92c0.66,0.66,0.66,1.74,0,2.4
			c-0.66,0.66-1.74,0.66-2.4,0L341.45,369.17z"/>
	</g>
	<g>
		<path class="st0" d="M330.9,372.13c0-0.94,0.76-1.7,1.7-1.7c0.94,0,1.7,0.76,1.7,1.7l0,11.42c0,0.94-0.76,1.7-1.7,1.7
			c-0.94,0-1.7-0.76-1.7-1.7L330.9,372.13z"/>
	</g>
	<g>
		<path class="st0" d="M318.38,356.22c0.94,0,1.7,0.76,1.7,1.7c0,0.94-0.76,1.7-1.7,1.7l-13.03,0c-0.94,0-1.7-0.76-1.7-1.7
			c0-0.94,0.76-1.7,1.7-1.7H318.38z"/>
	</g>
	<g>
		<path class="st0" d="M323.75,346.66c0.66,0.66,0.66,1.74,0,2.4c-0.66,0.66-1.74,0.66-2.4,0l-24.92-24.92
			c-0.66-0.66-0.66-1.74,0-2.4c0.66-0.66,1.74-0.66,2.4,0L323.75,346.66z"/>
	</g>
	<g>
		<path class="st0" d="M334.3,343.7c0,0.94-0.76,1.7-1.7,1.7c-0.94,0-1.7-0.76-1.7-1.7v-35.24c0-0.94,0.76-1.7,1.7-1.7
			c0.94,0,1.7,0.76,1.7,1.7L334.3,343.7z"/>
	</g>
	<g>
		<path class="st0" d="M346.82,359.61c-0.94,0-1.7-0.76-1.7-1.7c0-0.94,0.76-1.7,1.7-1.7l35.24,0c0.94,0,1.7,0.76,1.7,1.7
			c0,0.94-0.76,1.7-1.7,1.7H346.82z"/>
	</g>
	<g>
		<path class="st1" d="M344.85,364.56c-0.85-0.36-1.26-1.34-0.9-2.19s1.34-1.26,2.19-0.9l19.7,8.17c0.85,0.36,1.26,1.34,0.9,2.19
			c-0.36,0.85-1.34,1.26-2.19,0.9L344.85,364.56z"/>
	</g>
	<g>
		<path class="st1" d="M314.89,320.25c-0.35-0.86,0.06-1.84,0.91-2.19s1.84,0.06,2.19,0.91l0.63,1.43c0.35,0.86-0.06,1.84-0.91,2.19
			c-0.86,0.35-1.84-0.06-2.19-0.91L314.89,320.25z"/>
	</g>
	<g>
		<path class="st1" d="M336.47,371.7c-0.36-0.86,0.05-1.85,0.92-2.21c0.86-0.36,1.85,0.05,2.21,0.92l8.22,19.87
			c0.36,0.86-0.05,1.85-0.92,2.21c-0.86,0.36-1.85-0.05-2.21-0.92L336.47,371.7z"/>
	</g>
	<g>
		<path class="st1" d="M320.12,350.91c0.86,0.36,1.27,1.35,0.91,2.21c-0.36,0.86-1.35,1.27-2.21,0.91l-19.86-8.24
			c-0.86-0.36-1.27-1.35-0.91-2.21c0.36-0.86,1.35-1.27,2.21-0.91L320.12,350.91z"/>
	</g>
	<g>
		<path class="st1" d="M328.62,343.92c0.35,0.86-0.05,1.84-0.91,2.19c-0.86,0.35-1.84-0.05-2.19-0.91l-8.15-19.71
			c-0.35-0.86,0.05-1.84,0.91-2.19c0.86-0.35,1.84,0.05,2.19,0.91L328.62,343.92z"/>
	</g>
	<g>
		<path class="st2" d="M327.47,352.79c-2.82,2.82-2.82,7.43,0,10.26c2.82,2.82,7.43,2.82,10.26,0s2.82-7.43,0-10.26
			C334.9,349.96,330.3,349.96,327.47,352.79z"/>
	</g>
	<g>
		
			<rect x="310.76" y="302.4" transform="matrix(0.7071 -0.7071 0.7071 0.7071 -102.934 361.8591)" class="st2" width="149.16" height="5.55"/>
	</g>
	<g>
		<path class="st1" d="M339.65,344.01c-0.39,0.93-1.46,1.37-2.39,0.98c-0.93-0.39-1.37-1.46-0.98-2.39l8.91-21.47
			c0.39-0.93,1.46-1.37,2.39-0.98c0.93,0.39,1.37,1.46,0.98,2.39L339.65,344.01z"/>
	</g>
	<g>
		<path class="st1" d="M347.97,354.32c-0.93,0.39-2-0.06-2.39-0.99c-0.39-0.93,0.06-2,0.99-2.39l21.48-8.88
			c0.93-0.39,2.01,0.06,2.39,0.99c0.39,0.93-0.06,2-0.99,2.39L347.97,354.32z"/>
	</g>
</g>
<g>
	<path class="st0" d="M287.79,449.44h10.24v40.2h24.47v8.81h-34.71V449.44z"/>
	<path class="st0" d="M338.73,498.45h-10.17v-49.01h10.17V498.45z"/>
	<path class="st0" d="M381.25,464.73c-0.78-3.35-2.67-5.69-5.69-7.02c-1.68-0.73-3.56-1.1-5.62-1.1c-3.95,0-7.19,1.49-9.73,4.46
		c-2.54,2.98-3.81,7.45-3.81,13.42c0,6.02,1.37,10.28,4.12,12.78c2.75,2.5,5.87,3.75,9.38,3.75c3.44,0,6.25-0.99,8.45-2.96
		c2.19-1.97,3.55-4.55,4.06-7.75h-11.34v-8.18h20.42v26.3h-6.78l-1.03-6.12c-1.97,2.32-3.75,3.95-5.32,4.9
		c-2.7,1.65-6.03,2.48-9.98,2.48c-6.5,0-11.82-2.25-15.96-6.75c-4.32-4.52-6.48-10.7-6.48-18.54c0-7.93,2.18-14.29,6.55-19.07
		c4.37-4.79,10.14-7.18,17.32-7.18c6.23,0,11.23,1.58,15.01,4.74c3.78,3.16,5.95,7.1,6.5,11.82H381.25z"/>
	<path class="st0" d="M401.21,498.45v-49.01h10.17v18.69h19.05v-18.69h10.17v49.01h-10.17v-21.88h-19.05v21.88H401.21z"/>
	<path class="st0" d="M486.06,449.44v8.68H471.4v40.33h-10.31v-40.33h-14.73v-8.68H486.06z"/>
	<path class="st0" d="M190.32,529.06c3.95-4.03,8.97-6.05,15.07-6.05c8.16,0,14.12,2.7,17.9,8.11c2.08,3.04,3.2,6.08,3.35,9.14
		H216.4c-0.65-2.35-1.49-4.12-2.51-5.32c-1.82-2.13-4.53-3.19-8.11-3.19c-3.65,0-6.53,1.5-8.63,4.5c-2.11,3-3.16,7.25-3.16,12.75
		c0,5.5,1.11,9.62,3.33,12.35c2.22,2.74,5.05,4.11,8.47,4.11c3.51,0,6.19-1.17,8.03-3.52c1.02-1.26,1.86-3.16,2.54-5.69h10.17
		c-0.88,5.34-3.12,9.69-6.73,13.03c-3.61,3.35-8.23,5.02-13.86,5.02c-6.97,0-12.46-2.26-16.45-6.78
		c-3.99-4.54-5.99-10.77-5.99-18.69C183.51,540.29,185.78,533.7,190.32,529.06z"/>
	<path class="st0" d="M272.56,568.6c-3.7,3.81-9.06,5.72-16.06,5.72c-7,0-12.36-1.91-16.06-5.72c-4.97-4.68-7.45-11.42-7.45-20.22
		c0-8.98,2.48-15.72,7.45-20.22c3.7-3.81,9.06-5.72,16.06-5.72c7,0,12.36,1.91,16.06,5.72c4.94,4.5,7.42,11.24,7.42,20.22
		C279.97,557.18,277.5,563.92,272.56,568.6z M266.16,561.15c2.38-2.99,3.57-7.25,3.57-12.77c0-5.5-1.19-9.75-3.57-12.75
		c-2.38-3-5.6-4.5-9.66-4.5s-7.29,1.5-9.71,4.49c-2.42,2.99-3.62,7.25-3.62,12.77s1.21,9.78,3.62,12.77
		c2.42,2.99,5.65,4.49,9.71,4.49S263.77,564.14,266.16,561.15z"/>
	<path class="st0" d="M320.3,523.94h14.74v49.01h-9.54V539.8c0-0.95,0.01-2.29,0.03-4.01c0.02-1.72,0.03-3.04,0.03-3.97l-9.29,41.13
		h-9.95l-9.22-41.13c0,0.93,0.01,2.26,0.03,3.97c0.02,1.72,0.03,3.05,0.03,4.01v33.15h-9.54v-49.01h14.9l8.92,38.54L320.3,523.94z"
		/>
	<path class="st0" d="M377.03,523.94h14.74v49.01h-9.54V539.8c0-0.95,0.01-2.29,0.03-4.01c0.02-1.72,0.03-3.04,0.03-3.97L373,572.95
		h-9.95l-9.22-41.13c0,0.93,0.01,2.26,0.03,3.97c0.02,1.72,0.03,3.05,0.03,4.01v33.15h-9.54v-49.01h14.9l8.92,38.54L377.03,523.94z"
		/>
	<path class="st0" d="M415.25,523.94h11.59l17.34,49.01h-11.11l-3.23-10.08h-18.05l-3.32,10.08h-10.71L415.25,523.94z
		 M414.58,554.43h12.55l-6.19-19.29L414.58,554.43z"/>
	<path class="st0" d="M450.25,523.94h10.74l19.46,34.17v-34.17h9.54v49.01h-10.24l-19.95-34.78v34.78h-9.54V523.94z"/>
	<path class="st0" d="M528.31,525.01c3.44,1.13,6.22,3.2,8.35,6.22c1.71,2.44,2.87,5.08,3.49,7.91c0.62,2.84,0.93,5.54,0.93,8.11
		c0,6.52-1.31,12.04-3.93,16.56c-3.55,6.1-9.03,9.14-16.44,9.14h-21.13v-49.01h21.13C523.77,523.99,526.29,524.34,528.31,525.01z
		 M509.54,532.45v31.99H519c4.84,0,8.21-2.38,10.12-7.15c1.04-2.62,1.57-5.73,1.57-9.34c0-4.99-0.78-8.82-2.35-11.49
		c-1.57-2.67-4.68-4.01-9.34-4.01H509.54z"/>
	<path class="st0" d="M556.15,557.82c0.32,2.24,0.94,3.91,1.87,5.02c1.7,2.02,4.61,3.03,8.72,3.03c2.47,0,4.47-0.27,6.01-0.8
		c2.92-1.02,4.38-2.91,4.38-5.69c0-1.62-0.71-2.87-2.14-3.76c-1.43-0.87-3.7-1.63-6.81-2.29l-5.31-1.16
		c-5.21-1.15-8.8-2.41-10.75-3.76c-3.3-2.26-4.95-5.8-4.95-10.61c0-4.39,1.62-8.04,4.85-10.94c3.23-2.9,7.98-4.36,14.24-4.36
		c5.23,0,9.69,1.37,13.38,4.11c3.69,2.74,5.63,6.71,5.81,11.92h-9.84c-0.18-2.95-1.5-5.04-3.95-6.29c-1.64-0.82-3.67-1.23-6.1-1.23
		c-2.71,0-4.86,0.53-6.48,1.6c-1.61,1.06-2.42,2.55-2.42,4.46c0,1.75,0.8,3.06,2.39,3.92c1.02,0.58,3.19,1.25,6.51,2.03l8.6,2.03
		c3.77,0.89,6.59,2.07,8.48,3.56c2.92,2.31,4.38,5.64,4.38,10.01c0,4.48-1.73,8.2-5.19,11.16c-3.46,2.96-8.35,4.44-14.67,4.44
		c-6.45,0-11.53-1.46-15.22-4.37c-3.7-2.91-5.55-6.92-5.55-12.02H556.15z"/>
</g>
<g>
	<path class="st1" d="M369.12,374.65c-0.86-0.36-1.27-1.35-0.91-2.21s1.35-1.27,2.21-0.91l1.47,0.57c0.86,0.36,1.27,1.35,0.91,2.21
		s-1.35,1.27-2.21,0.91L369.12,374.65z"/>
</g>
<g>
	<path class="st1" d="M437.79,259.7l22.31,8.94l13.61-13.61c8.22,15.09,12.34,31.83,12.34,48.56c0,25.99-9.91,51.99-29.74,71.82
		s-45.83,29.74-71.82,29.74c-15.64,0-31.27-3.59-45.57-10.76c-2.87-1.44-6.36-0.43-8.08,2.28l-1.26,1.99
		c16.93,9.79,35.92,14.69,54.91,14.69c28.09,0,56.19-10.72,77.61-32.14c21.43-21.43,32.14-49.52,32.14-77.61
		c0-27.87-10.56-55.75-31.65-77.11l0.01-0.01c-0.08-0.08-0.17-0.16-0.25-0.24c-0.08-0.08-0.16-0.17-0.24-0.25l-0.01,0.01
		c-21.36-21.1-49.24-31.66-77.11-31.65c-28.09,0-56.19,10.72-77.61,32.14c-21.43,21.43-32.14,49.52-32.14,77.61
		c0,18.99,4.9,37.98,14.69,54.91l1.99-1.26c2.71-1.72,3.72-5.22,2.28-8.08c-7.18-14.3-10.76-29.93-10.76-45.57
		c0-25.99,9.91-51.99,29.74-71.82s45.83-29.74,71.82-29.74c17.66,0,35.32,4.58,51.05,13.74l-13.98,13.98l9.18,22.91L437.79,259.7"/>
</g>
<g>
	<g>
		<line class="st3" x1="399.55" y1="385.45" x2="392.43" y2="354.1"/>
		<g>
			
				<ellipse transform="matrix(0.9752 -0.2214 0.2214 0.9752 -75.8723 96.3647)" class="st0" cx="391.83" cy="386.56" rx="9.22" ry="5.8"/>
		</g>
		<line class="st3" x1="423.86" y1="380" x2="416.74" y2="348.65"/>
		<g>
			
				<ellipse transform="matrix(0.9752 -0.2214 0.2214 0.9752 -74.0606 101.6128)" class="st0" cx="416.14" cy="381.1" rx="9.22" ry="5.8"/>
		</g>
		<g>
			
				<rect x="391.56" y="351.25" transform="matrix(0.9754 -0.2204 0.2204 0.9754 -68.224 98.0543)" class="st0" width="27.5" height="7.04"/>
		</g>
	</g>
	<g>
		<line class="st3" x1="390.71" y1="237.46" x2="385.25" y2="206.7"/>
		<g>
			<path class="st0" d="M385.54,207.57c0,0,11.9,7.22,16.9,6.33c5-0.89-12.32,9.19-15.01,4.3
				C384.74,213.31,385.54,207.57,385.54,207.57z"/>
		</g>
		<g>
			
				<ellipse transform="matrix(0.9846 -0.1748 0.1748 0.9846 -35.7678 70.6408)" class="st0" cx="383.05" cy="238.33" rx="8.96" ry="5.63"/>
		</g>
	</g>
	<g>
		<path class="st4" d="M320.99,290.71c0.17,0.94-0.39,1.51-0.95,1.77c-0.57,0.3-1.19,0.44-1.79,0.47c-1.21,0.05-2.3-0.31-3.3-0.66
			c-0.61-0.21-1.24-0.61-1.7-1.07c-0.47-0.46-0.83-0.98-1.11-1.5c-0.55-1.05-0.84-2.12-1.03-3.17c-0.36-2.11-0.33-4.18-0.04-6.25
			c0.15-1.04,0.39-2.07,0.77-3.12c0.19-0.51,0.47-1.11,0.78-1.6c0.28-0.46,0.59-0.9,0.92-1.33c1.32-1.69,2.97-3.26,5.25-4.14
			c1.13-0.44,2.44-0.63,3.72-0.45c1.29,0.17,2.46,0.66,3.49,1.36c2.06,1.44,3.27,3.55,3.97,5.63c0.69,2.1,0.92,4.28,0.78,6.44
			c-0.07,1.08-0.25,2.17-0.54,3.22c-0.27,0.99-0.58,1.96-0.94,2.92c-0.72,1.91-1.61,3.79-2.8,5.55c-1.18,1.75-2.68,3.43-4.67,4.64
			c-1.97,1.21-4.43,1.81-6.74,1.61c-1.16-0.1-2.25-0.33-3.32-0.7c-1.07-0.37-2.15-0.88-3.1-1.59c-1.95-1.39-3.34-3.41-4.15-5.44
			c-0.83-2.05-1.24-4.13-1.47-6.17c-0.13-1.01-0.16-2.06-0.21-3.03l-0.1-2.85c-0.06-1.89-0.14-3.78-0.35-5.6
			c-0.21-1.81-0.52-3.55-1.24-4.97c-0.34-0.68-0.86-1.49-1.25-1.87c-0.45-0.42-0.69-0.48-1.02-0.44c-0.36,0.05-0.94,0.39-1.45,0.93
			c-0.51,0.52-1.03,1.25-1.42,1.93c-0.37,0.65-0.54,1.28-0.51,1.77c0.03,0.48,0.25,0.94,0.72,1.43c0.96,0.98,2.64,1.72,4.32,2.25
			c1.68,0.52,3.62,0.92,5.48,1.37l5.62,1.34c3.75,0.91,7.49,1.87,11.22,2.94c3.73,1.08,7.44,2.21,11.11,3.75
			c0.92,0.4,1.84,0.8,2.75,1.3c0.91,0.52,1.84,1.01,2.78,1.96c0.86,0.95,1.43,1.96,1.8,3.17c0.35,1.19,0.39,2.48,0.13,3.7
			c-0.54,2.45-2.26,4.44-4.3,5.52c-1.02,0.56-2.11,0.93-3.21,1.11c-0.55,0.1-1.1,0.14-1.65,0.16c-0.27,0.01-0.55,0-0.82,0
			c-0.27,0.03-0.56,0-0.75-1.36l0.02-0.37c0.3-1.34,0.48-1.36,0.7-1.33l0.62-0.06c0.41-0.06,0.81-0.13,1.2-0.24
			c0.77-0.23,1.52-0.5,2.16-0.91c1.3-0.79,2.28-1.98,2.62-3.3c0.17-0.66,0.18-1.34,0.02-2.01c-0.15-0.64-0.53-1.36-0.94-1.85
			c-0.39-0.45-1.14-0.96-1.9-1.37c-0.77-0.42-1.61-0.81-2.46-1.17c-3.44-1.41-7.1-2.51-10.76-3.54c-3.67-1.02-7.39-1.95-11.12-2.83
			l-5.61-1.3c-1.88-0.45-3.72-0.8-5.72-1.39c-0.98-0.29-1.97-0.65-2.94-1.12c-0.97-0.47-1.96-1.06-2.85-1.94
			c-0.89-0.86-1.67-2.19-1.76-3.64c-0.1-1.44,0.36-2.72,0.91-3.74c0.55-0.99,1.14-1.86,1.96-2.73c0.81-0.83,1.85-1.7,3.4-2.01
			c0.77-0.15,1.63-0.08,2.38,0.2c0.75,0.27,1.35,0.71,1.84,1.17c0.49,0.45,0.87,0.98,1.16,1.42c0.31,0.45,0.6,0.94,0.86,1.44
			c1.02,2.03,1.45,4.13,1.77,6.11c0.31,2,0.48,3.95,0.64,5.89l0.18,2.91c0.07,0.95,0.08,1.83,0.21,2.72c0.2,1.77,0.56,3.5,1.19,5.01
			c0.61,1.53,1.49,2.79,2.68,3.66c1.14,0.87,2.78,1.39,4.3,1.59c1.52,0.16,3-0.13,4.31-0.93c1.32-0.79,2.47-2.02,3.43-3.44
			c0.97-1.43,1.75-3.04,2.39-4.72c0.32-0.84,0.6-1.7,0.84-2.57c0.23-0.81,0.37-1.61,0.44-2.45c0.13-1.67-0.04-3.39-0.54-4.95
			c-0.49-1.55-1.35-2.92-2.46-3.71c-1.15-0.81-2.44-0.99-3.78-0.55c-1.35,0.45-2.69,1.53-3.76,2.82c-0.27,0.32-0.52,0.66-0.76,1.01
			c-0.21,0.32-0.36,0.59-0.52,0.97c-0.31,0.74-0.53,1.58-0.71,2.44c-0.34,1.72-0.45,3.54-0.25,5.24c0.19,1.69,0.82,3.31,1.85,3.68
			c0.78,0.34,1.6,0.44,2.32,0.47c0.36,0.01,0.7,0.02,1.04,0c0.33-0.07,0.64,0.02,1.45,0.23L320.99,290.71z"/>
	</g>
	<g>
		<g>
			
				<ellipse transform="matrix(0.354 -0.9352 0.9352 0.354 21.8806 611.5316)" class="st0" cx="453.63" cy="289.93" rx="4.77" ry="5.05"/>
		</g>
		<g>
			<path class="st4" d="M448.84,288.14c1.06-2.19,2.62-4.13,4.78-5.55c1.07-0.71,2.31-1.23,3.62-1.53c1.32-0.28,2.71-0.29,4.04-0.08
				c0.67,0.11,1.32,0.28,1.95,0.48c0.61,0.19,1.22,0.4,1.83,0.67c1.22,0.52,2.42,1.25,3.49,2.26c1.07,1,1.97,2.33,2.44,3.79
				c0.49,1.46,0.6,2.99,0.45,4.4c-0.07,0.71-0.2,1.4-0.38,2.06c-0.09,0.33-0.19,0.66-0.3,0.98l-0.17,0.48l-0.09,0.24l-0.18,0.39
				c-0.51,0.98-0.97,1.44-1.45,1.97c-0.47,0.5-0.95,0.94-1.44,1.36c-1.93,1.66-4.04,2.91-6.23,4.01c-2.21,1.05-4.54,1.87-6.98,2.3
				c-2.42,0.42-4.98,0.48-7.37-0.19l0.25-1.81c4.33-0.1,8.38-1.84,12.02-4.1c1.83-1.11,3.54-2.45,5.04-3.84
				c0.37-0.35,0.71-0.71,1.01-1.06c0.29-0.32,0.57-0.75,0.57-0.81l0.16-0.51c0.07-0.22,0.13-0.45,0.18-0.67
				c0.1-0.45,0.18-0.89,0.23-1.32c0.17-1.75-0.13-3.18-1.13-4.51c-0.51-0.66-1.21-1.26-2.03-1.79c-0.41-0.27-0.85-0.51-1.31-0.74
				c-0.44-0.2-0.89-0.37-1.34-0.5c-1.81-0.53-3.76-0.41-5.65,0.39c-1.87,0.79-3.69,2.15-5.19,3.75L448.84,288.14z"/>
		</g>
		<g>
			
				<ellipse transform="matrix(0.354 -0.9352 0.9352 0.354 32.7461 636.5055)" class="st0" cx="477.14" cy="294.55" rx="2.42" ry="2.57"/>
		</g>
		<g>
			
				<ellipse transform="matrix(0.354 -0.9352 0.9352 0.354 24.7016 638.4962)" class="st0" cx="474.56" cy="301.37" rx="2.42" ry="2.57"/>
		</g>
	</g>
	<g>
		<line class="st3" x1="374.48" y1="289.34" x2="347.88" y2="271.27"/>
		<g>
			
				<ellipse transform="matrix(0.562 -0.8271 0.8271 0.562 -82.465 435.0963)" class="st0" cx="369.59" cy="295.41" rx="9.22" ry="5.8"/>
		</g>
		<line class="st3" x1="388.53" y1="268.76" x2="361.94" y2="250.7"/>
		<g>
			
				<ellipse transform="matrix(0.562 -0.8271 0.8271 0.562 -59.2914 437.7102)" class="st0" cx="383.64" cy="274.84" rx="9.22" ry="5.8"/>
		</g>
		<g>
			
				<rect x="344.01" y="259.45" transform="matrix(0.5629 -0.8265 0.8265 0.5629 -60.9713 410.6552)" class="st0" width="27.5" height="7.04"/>
		</g>
	</g>
	<g>
		<line class="st3" x1="432.21" y1="319.08" x2="401.18" y2="315.5"/>
		<g>
			<path class="st0" d="M402.08,315.47c0,0,10.33-9.33,10.91-14.37s5.27,14.44-0.18,15.61
				C407.36,317.88,402.08,315.47,402.08,315.47z"/>
		</g>
		<g>
			
				<ellipse transform="matrix(0.1148 -0.9934 0.9934 0.1148 56.876 717.1719)" class="st0" cx="430.84" cy="326.67" rx="8.96" ry="5.63"/>
		</g>
	</g>
</g>
</svg>
