<?xml version="1.0" standalone="no"?>
<!DOCTYPE svg PUBLIC "-//W3C//DTD SVG 20010904//EN"
 "http://www.w3.org/TR/2001/REC-SVG-20010904/DTD/svg10.dtd">
<svg version="1.0" xmlns="http://www.w3.org/2000/svg"
 width="1891.000000pt" height="577.000000pt" viewBox="0 0 1891.000000 577.000000"
 preserveAspectRatio="xMidYMid meet">

<g transform="translate(0.000000,577.000000) scale(0.100000,-0.100000)"
fill="#000000" stroke="none">
<path d="M0 2885 l0 -2885 9455 0 9455 0 0 2885 0 2885 -9455 0 -9455 0 0
-2885z m2854 2371 c5 -19 29 -36 108 -74 125 -60 165 -74 243 -81 l60 -6 -51
-33 c-76 -48 -171 -84 -244 -91 l-66 -6 38 -210 c22 -126 35 -224 32 -245 -8
-50 -35 -82 -96 -115 -42 -23 -68 -30 -134 -33 -103 -5 -165 18 -190 71 -22
47 -12 82 36 128 55 52 122 72 224 67 l82 -4 -24 135 c-98 555 -95 518 -46
520 15 1 24 -7 28 -23z m6312 -476 c110 -28 194 -72 266 -138 76 -70 132 -155
158 -240 34 -109 42 -102 -128 -102 l-148 0 -23 55 c-30 73 -96 138 -169 167
-46 18 -77 22 -162 23 -93 0 -111 -3 -162 -27 -114 -53 -195 -157 -234 -298
-28 -102 -27 -351 3 -445 39 -124 110 -204 228 -256 140 -62 323 -34 434 66
44 40 98 139 108 198 l6 37 -172 0 -171 0 0 125 0 125 310 0 310 0 0 -405 0
-406 -102 3 -102 3 -13 80 c-8 44 -15 85 -17 91 -2 6 -35 -19 -73 -55 -120
-115 -222 -154 -403 -154 -199 0 -335 55 -470 192 -69 69 -94 103 -127 171
-67 140 -78 196 -78 415 0 168 3 199 23 268 76 264 250 443 494 507 105 27
306 27 414 0z m-2424 -627 l3 -618 378 -3 377 -2 0 -135 0 -135 -530 0 -530 0
0 755 0 755 150 0 150 0 2 -617z m1258 -138 l0 -755 -155 0 -155 0 0 755 0
755 155 0 155 0 0 -755z m2230 465 l0 -290 295 0 295 0 0 290 0 290 155 0 155
0 0 -755 0 -755 -155 0 -155 0 0 340 0 340 -295 0 -295 0 0 -340 0 -340 -155
0 -155 0 0 755 0 755 155 0 155 0 0 -290z m2290 160 l0 -130 -222 -2 -223 -3
-3 -622 -2 -623 -155 0 -155 0 0 625 0 625 -225 0 -225 0 0 130 0 130 605 0
605 0 0 -130z m-9952 -637 c168 -115 321 -222 339 -239 29 -29 33 -38 33 -86
0 -88 -25 -145 -95 -214 -87 -88 -163 -104 -217 -47 -19 21 -23 35 -23 91 1
84 35 151 112 222 48 44 51 49 35 62 -56 48 -395 269 -402 262 -22 -24 -293
-428 -294 -439 0 -7 109 -88 244 -180 135 -92 256 -179 269 -193 20 -22 23
-33 19 -91 -4 -79 -33 -143 -90 -201 -146 -152 -300 -60 -227 135 17 45 38 75
85 122 l63 62 -62 44 c-34 24 -154 106 -267 182 -113 76 -209 142 -214 147 -6
5 3 27 24 55 18 27 105 153 192 281 88 127 162 232 165 232 3 0 143 -93 311
-207z m1462 42 l45 -45 -1200 -1200 -1200 -1200 0 -68 c0 -56 -4 -75 -25 -105
-78 -114 -245 -104 -309 20 -14 28 -14 118 0 146 38 73 115 114 193 103 l41
-6 1200 1200 c660 660 1202 1200 1205 1200 3 0 26 -20 50 -45z m-3302 -225
c18 -11 46 -41 62 -66 29 -46 60 -156 60 -214 0 -33 18 -45 89 -56 38 -6 39
-5 51 32 18 55 65 117 115 153 104 74 221 53 292 -53 41 -60 55 -111 57 -204
l2 -73 79 -34 c135 -59 185 -116 185 -210 0 -98 -84 -185 -191 -200 -56 -8
-73 0 -67 35 2 17 14 26 44 35 92 27 134 72 134 143 0 54 -37 91 -132 130
l-72 30 -42 -88 c-49 -102 -111 -175 -181 -210 -102 -53 -261 -24 -337 61 -69
76 -95 150 -104 307 l-7 104 -76 24 c-89 28 -135 56 -166 103 -40 59 -26 132
38 206 57 64 111 79 167 45z m4059 -420 c76 -32 138 -102 153 -173 16 -69 2
-153 -34 -207 -48 -73 -211 -173 -332 -205 -32 -8 -96 -15 -141 -15 -81 0 -83
1 -83 24 0 21 6 24 53 29 109 11 289 107 374 199 69 76 69 169 0 236 -17 17
-49 38 -69 46 -43 18 -124 21 -165 5 l-27 -10 40 -18 c65 -30 91 -103 57 -162
-40 -67 -130 -74 -190 -14 -46 46 -47 106 0 166 41 54 94 97 143 115 54 20
156 13 221 -16z m341 -266 c24 -16 28 -44 12 -75 -15 -28 -74 -26 -94 3 -21
30 -20 44 4 68 24 24 48 25 78 4z m-58 -174 c24 -24 25 -38 4 -68 -30 -43
-104 -20 -104 33 0 51 62 73 100 35z m-1541 -60 c28 -96 32 -277 7 -319 -7
-11 14 -15 251 -42 182 -21 194 -23 227 -51 123 -101 55 -408 -90 -408 -103 0
-154 185 -91 324 19 40 23 58 14 61 -7 2 -138 17 -292 35 -376 42 -345 35
-345 77 0 30 2 34 21 28 47 -15 269 249 269 320 0 29 17 15 29 -25z m-2001
-118 c10 -7 12 -108 10 -473 l-3 -464 -27 -3 c-51 -6 -52 2 -44 487 4 245 9
448 12 453 7 10 35 10 52 0z m7310 -293 c110 -28 186 -73 277 -164 135 -134
198 -295 211 -536 17 -290 -56 -519 -216 -679 -130 -131 -266 -180 -494 -180
-240 0 -374 50 -507 187 -84 86 -121 143 -156 241 -71 195 -80 455 -22 663 44
159 147 304 279 393 64 43 185 83 284 96 96 11 255 2 344 -21z m9486 1 c205
-52 343 -185 381 -367 8 -38 15 -74 15 -80 0 -10 -37 -13 -150 -13 -144 0
-150 1 -150 20 0 58 -56 137 -120 170 -127 65 -354 43 -425 -42 -52 -61 -53
-158 -2 -206 36 -34 88 -51 354 -117 144 -36 280 -76 317 -93 126 -59 195
-150 216 -286 37 -239 -112 -450 -371 -522 -92 -26 -376 -26 -469 0 -99 27
-183 71 -246 128 -92 85 -129 158 -143 281 l-7 67 147 0 147 0 7 -37 c29 -154
142 -220 362 -211 154 6 226 40 264 123 24 52 24 102 -1 143 -37 60 -111 91
-345 142 -324 71 -435 123 -501 236 -70 120 -71 302 -3 436 53 104 193 203
329 232 101 22 301 20 394 -4z m-11056 -20 c146 -41 243 -109 321 -225 54 -81
85 -155 96 -228 l7 -47 -154 0 -153 0 -17 48 c-45 125 -122 191 -249 212 -119
20 -218 -11 -295 -92 -93 -98 -125 -194 -131 -398 -7 -224 28 -352 124 -448
75 -74 130 -97 238 -97 78 0 97 4 147 28 72 35 120 91 154 178 l27 69 153 0
153 0 -20 -69 c-66 -240 -226 -405 -441 -456 -83 -19 -274 -19 -358 1 -178 41
-321 157 -404 325 -56 114 -73 179 -88 327 -13 133 -1 291 33 412 68 245 254
427 484 475 95 20 276 13 373 -15z m2892 -592 c74 -324 137 -588 140 -588 3 0
66 266 140 590 l135 590 222 0 223 0 0 -750 0 -750 -140 0 -140 0 0 628 c0
352 -4 620 -9 612 -7 -13 -281 -1214 -281 -1233 0 -4 -69 -7 -153 -7 l-152 0
-140 627 -140 626 -3 -626 -2 -627 -145 0 -145 0 0 750 0 750 227 -2 228 -3
135 -587z m1610 586 c0 -7 259 -1133 266 -1157 3 -10 8 -17 10 -15 2 3 62 261
134 574 72 313 133 577 136 587 5 15 25 17 230 17 l224 0 0 -750 0 -750 -145
0 -145 0 0 627 c0 344 -2 624 -5 622 -2 -3 -66 -277 -140 -610 -75 -332 -138
-612 -141 -621 -5 -16 -21 -18 -154 -18 -133 0 -149 2 -154 18 -3 9 -66 289
-141 621 -74 332 -137 606 -140 609 -3 3 -5 -277 -5 -621 l0 -627 -140 0 -140
0 0 750 0 750 225 0 c124 0 225 -3 225 -6z m2335 -731 c143 -405 261 -742 263
-750 3 -10 -28 -13 -162 -13 l-165 0 -50 153 -49 152 -279 3 -280 2 -49 -152
-50 -153 -163 -3 c-153 -2 -163 -1 -156 15 3 10 124 348 267 751 l261 732 176
0 176 0 260 -737z m1080 226 c160 -281 295 -519 302 -528 10 -13 12 95 13 512
l0 527 140 0 140 0 0 -750 0 -750 -154 0 -153 0 -304 532 -304 532 -3 -532 -2
-532 -145 0 -145 0 0 750 0 750 163 0 162 0 290 -511z m1755 487 c150 -49 258
-143 330 -288 57 -116 80 -234 80 -413 0 -410 -171 -691 -462 -760 -50 -12
-140 -15 -430 -15 l-368 0 0 751 0 750 398 -3 c347 -4 404 -6 452 -22z
m-15967 -334 c222 -222 317 -324 317 -340 0 -24 -34 -47 -53 -35 -7 4 -153
150 -325 324 -293 297 -329 339 -305 362 25 25 63 -7 366 -311z m2737 -734
c46 -205 84 -390 83 -411 -1 -52 -41 -99 -110 -134 -47 -23 -74 -29 -143 -31
-74 -2 -90 0 -125 20 -81 47 -82 125 -3 192 56 49 126 71 219 70 l75 -1 -54
241 c-30 133 -56 243 -58 245 -4 4 -525 -108 -532 -115 -2 -1 26 -137 64 -301
37 -164 66 -308 66 -321 -5 -65 -66 -123 -163 -153 -104 -32 -193 -22 -248 30
-105 98 68 255 263 239 31 -3 56 -2 56 2 0 4 -31 148 -70 319 -38 172 -70 318
-70 325 0 7 104 35 288 76 158 35 296 67 307 71 11 4 31 8 45 8 25 1 26 -1
110 -371z m-2532 170 c16 -16 15 -33 -4 -52 -13 -13 -44 -16 -180 -16 -95 0
-174 4 -185 10 -18 10 -26 50 -12 63 12 13 368 8 381 -5z m1576 -4 c19 -19 20
-36 4 -52 -17 -17 -909 -17 -926 0 -16 16 -15 55 1 61 6 3 213 6 459 6 393 1
448 -1 462 -15z m-1476 -246 c7 -7 12 -19 12 -28 0 -8 -146 -161 -323 -338
-270 -269 -328 -323 -348 -320 -16 2 -25 11 -27 27 -3 20 51 78 320 348 177
177 330 323 338 323 9 0 21 -5 28 -12z m810 -311 c177 -177 322 -326 322 -331
0 -19 -22 -46 -38 -46 -17 0 -662 637 -662 654 0 19 22 46 38 46 10 0 162
-145 340 -323z m-567 213 c17 -10 19 -23 19 -165 0 -84 -3 -160 -6 -169 -8
-21 -60 -21 -68 0 -3 9 -6 82 -6 164 0 122 3 151 16 164 18 19 20 19 45 6z"/>
<path d="M626 3725 c-37 -39 -51 -81 -38 -110 12 -26 86 -68 141 -80 l34 -7
-6 47 c-15 109 -48 175 -88 175 -11 0 -30 -11 -43 -25z"/>
<path d="M1175 3614 c-57 -30 -101 -81 -119 -141 -5 -17 -3 -23 7 -23 8 0 77
-18 153 -39 102 -29 141 -36 147 -28 12 20 -3 109 -28 162 -37 78 -95 103
-160 69z"/>
<path d="M864 3383 c3 -21 8 -64 11 -95 11 -121 58 -200 140 -234 95 -39 181
-11 250 84 36 49 82 149 72 158 -4 5 -197 60 -269 78 -27 6 -28 5 -28 -39 0
-95 39 -135 131 -135 32 0 39 -4 39 -19 0 -11 -12 -23 -30 -31 -40 -17 -115 2
-153 38 -31 30 -57 105 -57 168 l0 42 -50 11 c-28 6 -53 11 -56 11 -2 0 -2
-17 0 -37z"/>
<path d="M8539 2250 c-70 -12 -132 -43 -185 -92 -61 -56 -88 -100 -120 -195
-35 -102 -44 -298 -20 -412 33 -154 115 -275 225 -328 51 -26 66 -28 171 -28
137 0 180 15 264 95 97 92 146 235 146 430 0 320 -135 512 -375 533 -33 3 -81
2 -106 -3z"/>
<path d="M13567 1837 c-54 -162 -97 -298 -97 -301 0 -3 88 -6 196 -6 155 0
195 3 191 13 -2 7 -44 136 -92 287 -48 151 -91 281 -95 288 -4 8 -47 -109
-103 -281z"/>
<path d="M16390 1721 l0 -503 188 4 c169 3 192 6 237 26 143 65 213 208 222
452 8 218 -28 362 -112 439 -64 59 -116 71 -342 78 l-193 6 0 -502z"/>
</g>
</svg>
