<?xml version="1.0" encoding="UTF-8" standalone="no"?>
<svg
   xmlns:dc="http://purl.org/dc/elements/1.1/"
   xmlns:cc="http://creativecommons.org/ns#"
   xmlns:rdf="http://www.w3.org/1999/02/22-rdf-syntax-ns#"
   xmlns:svg="http://www.w3.org/2000/svg"
   xmlns="http://www.w3.org/2000/svg"
   xmlns:sodipodi="http://sodipodi.sourceforge.net/DTD/sodipodi-0.dtd"
   xmlns:inkscape="http://www.inkscape.org/namespaces/inkscape"
   id="Layer_4"
   data-name="Layer 4"
   viewBox="0 0 2084.9468 1703.8947"
   version="1.1"
   sodipodi:docname="logo.svg"
   width="2084.9468"
   height="1703.8947"
   inkscape:version="0.92.3 (2405546, 2018-03-11)">
  <metadata
     id="metadata39">
    <rdf:RDF>
      <cc:Work
         rdf:about="">
        <dc:format>image/svg+xml</dc:format>
        <dc:type
           rdf:resource="http://purl.org/dc/dcmitype/StillImage" />
        <dc:title>sketch loading-01</dc:title>
      </cc:Work>
    </rdf:RDF>
  </metadata>
  <sodipodi:namedview
     pagecolor="#ffffff"
     bordercolor="#666666"
     borderopacity="1"
     objecttolerance="10"
     gridtolerance="10"
     guidetolerance="10"
     inkscape:pageopacity="0"
     inkscape:pageshadow="2"
     inkscape:window-width="1853"
     inkscape:window-height="1025"
     id="namedview37"
     showgrid="false"
     fit-margin-top="0"
     fit-margin-left="0"
     fit-margin-right="0"
     fit-margin-bottom="0"
     inkscape:zoom="0.1008547"
     inkscape:cx="-1540.0218"
     inkscape:cy="906.80027"
     inkscape:window-x="67"
     inkscape:window-y="27"
     inkscape:window-maximized="1"
     inkscape:current-layer="Layer_4" />
  <defs
     id="defs4">
    <style
       id="style2">.cls-1,.cls-2,.cls-3,.cls-4,.cls-5,.cls-6,.cls-7{fill:#d94e41;}.cls-2{opacity:0.5;}.cls-3{opacity:0.8;}.cls-4{opacity:0.6;}.cls-5{opacity:0.7;}.cls-6{opacity:0.4;}.cls-7{opacity:0.3;}</style>
  </defs>
  <title
     id="title6">sketch loading-01</title>
  <path
     class="cls-1"
     d="m 1431.4359,617.91436 a 33.94,33.94 0 0 1 -4.65,0.32 32.5,32.5 0 0 1 -32.45,-32.55 l 0.25,-167 a 32.500038,32.500038 0 1 1 65,0.1 l -0.25,167 a 32.52,32.52 0 0 1 -27.9,32.13 z"
     id="path8"
     inkscape:connector-curvature="0"
     style="fill:#d94e41" />
  <path
     class="cls-2"
     d="m 1429.7759,1703.5644 a 32.48,32.48 0 0 1 -37.1,-32.22 l 0.25,-167 a 32.500038,32.500038 0 1 1 65,0.1 l -0.25,167 a 32.5,32.5 0 0 1 -27.9,32.12 z"
     id="path10"
     inkscape:connector-curvature="0"
     style="opacity:0.5;fill:#d94e41" />
  <path
     class="cls-3"
     d="m 2057.0659,1080.3844 a 32.42,32.42 0 0 1 -4.65,0.33 l -167,-0.26 a 32.500038,32.500038 0 1 1 0.1,-65 l 167,0.26 a 32.5,32.5 0 0 1 4.55,64.67 z"
     id="path12"
     inkscape:connector-curvature="0"
     style="opacity:0.8;fill:#d94e41" />
  <path
     class="cls-1"
     d="m 1828.4359,846.63436 a 32.5,32.5 0 0 1 -20.66,-60.42 l 145.13,-82.69 a 32.502088,32.502088 0 0 1 32.18,56.48 l -145.13,82.69 a 32.47,32.47 0 0 1 -11.52,3.94 z"
     id="path14"
     inkscape:connector-curvature="0"
     style="fill:#d94e41" />
  <path
     class="cls-1"
     d="m 1660.5859,679.40436 a 32.5,32.5 0 0 1 -32.2,-49.25 l 87.71,-142.14 a 32.509124,32.509124 0 1 1 55.34,34.13 l -87.7,142.15 a 32.44,32.44 0 0 1 -23.15,15.11 z"
     id="path16"
     inkscape:connector-curvature="0"
     style="fill:#d94e41" />
  <path
     class="cls-4"
     d="m 1740.9559,1619.9844 a 32.52,32.52 0 0 1 -32.84,-16.14 l -82.43,-145.27 a 32.5,32.5 0 1 1 56.53,-32.08 l 82.44,145.27 a 32.49,32.49 0 0 1 -12.22,44.33 32.12,32.12 0 0 1 -11.48,3.89 z"
     id="path18"
     inkscape:connector-curvature="0"
     style="opacity:0.6;fill:#d94e41" />
  <path
     class="cls-5"
     d="m 1972.8259,1394.6544 a 32.37,32.37 0 0 1 -20.57,-3.91 l -145.31,-82.36 a 32.5,32.5 0 1 1 32,-56.55 l 145.31,82.36 a 32.5,32.5 0 0 1 -11.48,60.46 z"
     id="path20"
     inkscape:connector-curvature="0"
     style="opacity:0.7;fill:#d94e41" />
  <path
     class="cls-6"
     d="m 1115.6359,1616.9444 a 32.5,32.5 0 0 1 -32.88,-48.09 l 81.79,-145.64 a 32.502966,32.502966 0 0 1 56.68,31.83 l -81.79,145.63 a 32.44,32.44 0 0 1 -23.8,16.27 z"
     id="path22"
     inkscape:connector-curvature="0"
     style="opacity:0.4;fill:#d94e41" />
  <path
     class="cls-7"
     d="m 883.84587,1387.2744 a 32.5,32.5 0 0 1 -20.41,-60.56 l 145.83003,-81.44 a 32.5,32.5 0 1 1 31.69,56.75 l -145.83003,81.44 a 32.29,32.29 0 0 1 -11.28,3.81 z"
     id="path24"
     inkscape:connector-curvature="0"
     style="opacity:0.3;fill:#d94e41" />
  <path
     class="cls-1"
     d="m 1453.6059,1044.9544 -1,-0.68 -300.59,-202.92004 31.22,-46.16 a 18.81,18.81 0 0 0 -5.08,-26 l -75.32,-50.71 40.19,-59.76 a 18.81,18.81 0 0 0 -5.09,-26.07 l -336.13003,-226.29 v -0.21 l -329.77,-222 a 345.12,345.12 0 0 0 -20.84,30.71 l 236.24,159.23 -0.11,0.27 413.62003,278.9 -39.51,59.5 -83.69003,123.86 -40.11,59.62 -1.82,-1.22 -0.23,0.35 -119.88,-80.69 -531.59,-357.83 c -6,9.85 -11.7,19.91 -16.92,30.09 l -1.36,2.69 93.21,62.26 112.52,75.86 133.66,90 -0.21,0.09 92.42,62.18 112.74,75.3 121.91,82 a 18.7,18.7 0 0 0 26,-5.09 l 40.24,-59.76 75.33003,50.71 a 18.74,18.74 0 0 0 26.07,-5.09 l 31.12,-46.22 300.7,202.85004 a 18.76,18.76 0 0 0 22.08,-29.82 z m -374.73,-162.65004 -59.73,-40.21 62.28,-92.49 59.76,40.23 z"
     id="path26"
     inkscape:connector-curvature="0"
     style="fill:#d94e41" />
  <path
     class="cls-1"
     d="m 1442.2259,1077.3744 a 19.08,19.08 0 0 1 -10.93,-2.16 l -300.33,-202.60004 -30.84,45.81 a 19.26,19.26 0 0 1 -26.77,5.23 l -74.92003,-50.44 -40,59.35 a 19.28,19.28 0 0 1 -26.73,5.22 l -121.91,-82 -112.73,-75.3 -93.17,-62.73 0.21,-0.09 -132.87,-89.45 -112.47,-75.91 -93.58,-62.5 0.2,-0.4 1.37,-2.69 c 4.81,-9.39 10.35,-19.24 16.93,-30.12 l 0.27,-0.45 0.44,0.3 651.1,438.23 0.23,-0.34 1.82,1.22 39.82,-59.21 83.70003,-123.86 39.14,-59.07 -413.55003,-278.86 0.12,-0.26 -236.23,-159.29 0.25,-0.41 a 347.24,347.24 0 0 1 20.87,-30.75 l 0.29,-0.38 330.41,222.45 v 0.2 l 335.86003,226.12 a 19.39,19.39 0 0 1 5.23,26.77 l -39.92,59.34 74.91,50.44 a 19.36,19.36 0 0 1 5.21,26.69 l -30.93,45.75 301.22,203.34004 v 0 a 19.26,19.26 0 0 1 -8,32 19.67,19.67 0 0 1 -3.72,0.81 z m -311.53,-206.15004 0.41,0.28 300.7,202.86004 a 18.29,18.29 0 0 0 24.66,-7.65 18.28,18.28 0 0 0 -3.18,-21.38 l -1,-0.65 -301,-203.19004 31.49,-46.58 a 18.35,18.35 0 0 0 -4.94,-25.3 l -75.74,-51 0.28,-0.41 40.2,-59.76 a 18.38,18.38 0 0 0 -5,-25.38 l -336.30003,-226.46 v -0.21 l -329.1,-221.57 a 347.52,347.52 0 0 0 -20.28,29.88 l 236.11,159.21 -0.11,0.27 413.69003,279 -39.69,59.89 -83.70003,123.87 -40.38,60 -1.82,-1.21 -0.23,0.34 -0.42,-0.28 -651.08,-438.23 c -6.44,10.68 -11.89,20.36 -16.62,29.61 -0.4,0.76 -0.78,1.52 -1.17,2.29 l 92.84,62 112.53,75.87 134.45,90.52 -0.22,0.08 91.59,61.67 112.77,75.31 121.91,82 a 18.28,18.28 0 0 0 25.34,-4.95 l 40.52,-60.17 75.74003,51 a 18.25,18.25 0 0 0 25.38,-5 z m -51.68,11.78 -60.58,-40.81 62.83,-93.32 60.59,40.8 z m -59.17,-41.08 58.89,39.69 61.76,-91.67 -58.94,-39.68 z"
     id="path28"
     inkscape:connector-curvature="0"
     style="fill:#d94e41" />
  <path
     class="cls-1"
     d="m 219.62587,576.48436 a 21.8,21.8 0 0 1 -14.53,-3.66 l -50.84,-34.34 a 22,22 0 0 1 -5.92,-30.53 l 291.39,-431.449996 a 22,22 0 0 1 30.54,-5.91 l 50.84,34.329996 a 22,22 0 0 1 5.92,30.54 l -291.39,431.44 a 21.88,21.88 0 0 1 -14,9.29 c -0.7,0.12 -1.36,0.22 -2.01,0.29 z m -39.19,-58.92 34.26,23.14 280.21,-414.86 -34.26,-23.14 z m 285.81,-423.149996 z"
     id="path30"
     inkscape:connector-curvature="0"
     style="fill:#d94e41" />
  <path
     class="cls-1"
     d="m 252.76587,384.09436 a 21.8,21.8 0 0 1 -14.53,-3.66 l -104.11,-70.29 a 22,22 0 0 1 -5.92,-30.54 l 90.92,-134.62 a 22,22 0 0 1 30.54,-5.89 l 104.11,70.32 a 22,22 0 0 1 5.92,30.53 l -90.92,134.6 a 21.9,21.9 0 0 1 -14,9.28 c -0.7,0.13 -1.34,0.27 -2.01,0.27 z m -92.44,-94.89 87.53,59.11 79.72,-118 -87.53,-59.11 z m 85.32,-126.31 z"
     id="path32"
     inkscape:connector-curvature="0"
     style="fill:#d94e41" />
  <path
     class="cls-1"
     d="m 75.045866,401.33436 a 21.88,21.88 0 0 1 -14.52,-3.66 l -50.8399996,-34.34 a 22,22 0 0 1 -5.92,-30.54 L 221.99587,9.6743643 v 0 a 22,22 0 0 1 30.53,-5.91 l 50.85,34.3299997 a 22,22 0 0 1 5.92,30.53 L 91.065866,391.75436 a 21.88,21.88 0 0 1 -14,9.29 c -0.7,0.12 -1.36,0.22 -2.02,0.29 z m -39.16,-58.92 34.26,23.14 207.000004,-306.539996 -34.26,-23.14 z M 248.51587,27.584364 Z m -13.26,-8.95 z"
     id="path34"
     inkscape:connector-curvature="0"
     style="fill:#d94e41" />
</svg>
