<?xml version="1.0" encoding="utf-8"?>
<!-- Generator: Adobe Illustrator 22.0.1, SVG Export Plug-In . SVG Version: 6.00 Build 0)  -->
<svg version="1.1"
	 id="svg96" inkscape:export-filename="/home/mlipp/shirt.png" inkscape:export-xdpi="900" inkscape:export-ydpi="900" inkscape:version="0.92.1 r15371" sodipodi:docname="meltdown shirt.svg" xmlns:cc="http://creativecommons.org/ns#" xmlns:dc="http://purl.org/dc/elements/1.1/" xmlns:inkscape="http://www.inkscape.org/namespaces/inkscape" xmlns:rdf="http://www.w3.org/1999/02/22-rdf-syntax-ns#" xmlns:sodipodi="http://sodipodi.sourceforge.net/DTD/sodipodi-0.dtd" xmlns:svg="http://www.w3.org/2000/svg"
	 xmlns="http://www.w3.org/2000/svg" xmlns:xlink="http://www.w3.org/1999/xlink" x="0px" y="0px" viewBox="0 0 383.9 746.9"
	 style="enable-background:new 0 0 383.9 746.9;" xml:space="preserve">
<style type="text/css">
	.st0{fill:#FF9600;}
</style>
<g id="g94" transform="translate(-192.31069,69.279241)">
	<g id="g4185" transform="translate(27.961471,-153.33074)">
		<ellipse id="ellipse82" class="st0" cx="366.6" cy="698" rx="9.7" ry="12.9"/>
		<path id="path84" inkscape:connector-curvature="0" class="st0" d="M543.4,166.2c-61-26.7-121.8-53.8-182.4-81.1
			c-2.8-1.4-6.1-1.4-8.8,0c-61.1,27.1-122.1,54.2-183.1,81.2c-3.1,0.8-5.1,3.8-4.7,6.9c0.4,41.6,0,83.2,0.4,124.7
			c0.2,52.8,16.1,104.2,45.5,147.8c0,0.9-0.1,1.8-0.1,2.5c-0.8,9.6,5.6,26.1,13.6,19.9c0.9-0.7,1.6-1,2.2-1.2
			c1.2,1.5,2.4,2.9,3.6,4.3c0.7,4.5,0.1,11.3,0.2,15.1c0.1,7,1.1,25.1,15,18.1c3.8-1.9,6.5-5,8.5-8.5c1,0.9,1.9,1.8,2.9,2.6
			c0.1,1.3,0.4,2.6,0.8,4.1c2.6,9.8,1.1,81,1.1,81s1.7,15.7,12.2,15.7s11.3-15.7,11.3-15.7v-47.9c0,0,2.2-8.8,12.9-6.1
			c10.7,2.7,10.7,13.5,10.7,13.5v107.6c0,0,1.3,11.1,11.3,11.1c9.1,0,10.5-12.8,10.5-12.8l5.5-104.5c4.9,1.8,9.9,3.5,15,5
			c2.6,0.8,5.4,1.3,8.1,1.3l0.4,56.7c0,0,1.2,26.5,14.4,26c13-0.5,13.1-27.8,13.1-27.8v-41.8c0,0,2.5-13,10.3-13s9.8,10.7,9.8,16.5
			s1,20.8,1.4,24.5s4.8,10.9,12,11c7.1,0.1,11.5-10.7,11.5-14.5s0.8-50,0.8-50s-0.8-17.5,10.2-18.6c13.9-1.5,10.7,8.5,12.7,11.4
			s5,3.5,8.5,3.7s10.3-4.2,11-12.9c0.4-5.5,1.4-25.8,2-39.8c5.6-6,11-12.4,16-19c38-47.8,58.6-107.1,58.4-168.1v-53.9
			c-0.2-22.4-0.2-44.9,0.1-67.3C548.6,170.6,546.6,167.4,543.4,166.2L543.4,166.2z M515.1,198.6v55.9v44.6c0.2,33-7.1,65.4-20.8,95
			c-16.8,40.5-39.5,73.5-46.2,73.7c-3.3,0.1-4.6,3-6.4,7.4c-2,4.8-4.2,11.5-6.8,12.9c-4,2.2-5.5,1.7-10,2.1
			c-7.6,0.7-6,21.2-7.9,26.7c-0.6,1.7-2.7,6.5-6.8,7.5c-1.9,0.5-4.5-0.3-6.8-2.2c-4.3-3.4-2.3-12.9-8.3-17.1
			c-10.4-7.4-16.6,7-16.6,7v15.6c0,0-0.4,11.7-6.6,9.4c-6.2-2.2-5.2-15.5-5.2-15.5v-12.5c-1,0.3-2,0.6-3.1,1c-4.8,1.5-10,1.5-14.8,0
			c-5.6-1.7-11.1-3.6-16.4-5.8c-0.5,4.1-1.3,9.1-2.6,10.1c-2.5,1.8-6.5,2.5-10.5-0.2c-3.7-2.5-5.7-11.4-6.1-17.5
			c0-0.5,0-0.9-0.1-1.3c-28.2-14.8-52.8-36.1-71.5-62.4c-28.5-38-43.9-84.2-44.2-131.6c-0.4-34.5,0-68.9,0-103.4
			c-0.3-2.6,1.3-5,3.8-5.7c50.4-22.3,100.9-44.8,151.4-67.4c2.3-1.2,5-1.2,7.3,0c50.4,22.6,100.8,45,151.2,67.2
			C513.9,193.1,515.5,195.8,515.1,198.6L515.1,198.6z"/>
		<path id="path88" inkscape:connector-curvature="0" class="st0" d="M359.5,155c-1.9-1-4.2-1-6.2,0c-42.7,19-85.2,37.9-127.8,56.8
			c-2,0.7-3.3,2.6-3.2,4.7v87.3c0.1,9.5,0.8,19.1,2.3,28.5c1.5,9.3,3.6,18.4,6.4,27.4L433.5,188L359.5,155z"/>
		<path id="path90" inkscape:connector-curvature="0" class="st0" d="M487.1,211.7l-23.7-10.5L242.8,388c2.3,4.4,4.7,8.8,7.3,13
			v22.7c0,0-1.1,8.3,5.2,9.7c6.2,1.4,6.6-5.9,6.6-5.9v-9.6c3.4,4.4,7,8.7,10.8,12.8L449,281.5v6.1c0,0-1.1,8.3,5.2,9.7
			c6.2,1.4,6.6-5.9,6.6-5.9v-19.9l9.6-8.1c0.8,1.4,2,2.6,4,3c6.2,1.4,6.6-5.9,6.6-5.9v-6.2l9.4-8V217
			C490.8,214.7,489.4,212.4,487.1,211.7L487.1,211.7z"/>
		<path id="path92" inkscape:connector-curvature="0" class="st0" d="M490.5,285L294.4,451.1c3.4,2.7,7,5.2,10.6,7.7
			c0.1,0.3,0.3,0.7,0.4,1.1c1.4,3.8,7.8,11.6,12.6,8.4c2.4-1.6,6.4,3.9,6.4,6.8s2.3,6.8,7.3,6.8c3.7,0,5.9-2.7,7.1-5.7
			c3.7,1.4,7.4,2.6,11.1,3.7c4.1,1.3,8.4,1.3,12.5,0c11.4-3.4,22.4-8,32.7-13.6v17.3c0,0,2.5,6.6,8.2,6.6c5,0,7.3-4.2,8-8.4
			c0.7-4.1,1.5-22.5,4.8-25.2c3.3-2.8,4.9,6.8,15.3,6.9c8.2,0.1,9.4-18.4,16.5-34.3c2.7-6,15.5-29.7,15.5-29.7
			c17.7-29.3,27.1-63.1,27-97.7C490.5,296.3,490.5,290.6,490.5,285z"/>
	</g>
	<g id="text4535">
		<path id="path4537" class="st0" d="M248.5,676.1h-13.5l-0.5-25.1c-0.2-5.8-0.3-11.4-0.3-16.9c0-3.8,0-6.7,0.1-8.5l-7,43.8h-13.4
			l-7.4-43.9c0.1,3.4,0.2,8.2,0.2,14.3c0,4.9,0,8.7-0.1,11.4l-0.5,25h-13.4l3.8-63.4H214l6.7,43.3l6-43.3h18L248.5,676.1z"/>
		<path id="path4539" class="st0" d="M288.7,612.7l-1.5,10.2h-17.6v15.9h15.5v10.1h-15.5v16.7h18.8v10.4h-33.2v-63.4L288.7,612.7z"
			/>
		<path id="path4541" class="st0" d="M309,612.7v52H329l-1.5,11.3h-32.8v-63.4H309z"/>
		<path id="path4543" class="st0" d="M362.2,612.7l-1.5,11h-12.2v52.4h-14.4v-52.4h-12.9v-11H362.2z"/>
		<path id="path4545" class="st0" d="M382.1,612.7c5.5,0,10.2,0.8,14.1,2.5c4,1.6,7.2,4.7,9.6,9.3c2.5,4.6,3.7,11.1,3.7,19.6
			c0,11.9-2.4,20.2-7.2,25c-4.8,4.7-11.2,7-19.2,7h-17v-63.4L382.1,612.7z M380.5,623v42.6h3.5c2.4,0,4.4-0.6,5.9-1.8
			c1.6-1.3,2.8-3.5,3.7-6.6c0.9-3.2,1.3-7.6,1.3-13.2c0-5.7-0.5-10-1.4-13.1c-0.9-3-2.1-5.1-3.7-6.2c-1.5-1.2-3.5-1.7-5.9-1.7H380.5
			z"/>
		<path id="path4547" class="st0" d="M438.6,611.1c7.8,0,13.7,2.8,17.8,8.3c4.1,5.5,6.2,13.8,6.2,24.9c0,11-2.1,19.3-6.2,24.9
			s-10.1,8.4-17.8,8.4c-7.7,0-13.7-2.7-17.8-8.2c-4.1-5.5-6.1-13.9-6.1-25.1c0-11,2-19.2,6.1-24.8
			C424.9,614,430.9,611.1,438.6,611.1L438.6,611.1z M438.6,621.7c-3.2,0-5.5,1.7-6.9,5.2c-1.4,3.4-2.1,9.2-2.1,17.5
			c0,5.7,0.3,10.2,0.9,13.5c0.7,3.3,1.6,5.7,2.9,7.1c1.3,1.4,3.1,2.1,5.2,2.1c2.2,0,3.9-0.7,5.2-2.1c1.3-1.4,2.3-3.7,2.9-7
			c0.7-3.4,1-7.9,1-13.6c0-8.3-0.7-14.1-2.2-17.6C444.2,623.4,441.8,621.7,438.6,621.7L438.6,621.7z"/>
		<path id="path4549" class="st0" d="M529.5,612.7l-8,63.4h-18.7l-5.2-49.1l-5.8,49.1h-18.3l-7.7-63.4h13.7l4.6,52.4l6.2-52.4h14.8
			l5.9,52.4l5.3-52.4H529.5z"/>
		<path id="path4551" class="st0" d="M576.1,676.1h-17.7L545,625.9c0.6,5.3,1.1,9.8,1.4,13.3c0.3,3.5,0.5,7.8,0.5,12.9v24h-12.3
			v-63.4h17.7l13.3,50.2c-1.3-8.4-1.9-16.3-1.9-23.7v-26.5h12.4V676.1z"/>
	</g>
</g>
</svg>
