<svg xmlns="http://www.w3.org/2000/svg" viewBox="0 0 317.81 280.66"><defs><style>.a{fill:none;stroke:#31a5bf;stroke-miterlimit:10;stroke-width:5px;}.b{fill:#31a5bf;}.c{fill:#faa446;}</style></defs><title>rambleed</title><circle class="a" cx="18.44" cy="146.35" r="4.05"/><line class="a" x1="16.68" y1="159.06" x2="16.28" y2="169.52"/><line class="a" x1="24.58" y1="159.36" x2="24.19" y2="169.82"/><line class="a" x1="32.49" y1="159.66" x2="32.09" y2="170.12"/><line class="a" x1="40.39" y1="159.96" x2="40" y2="170.42"/><line class="a" x1="48.3" y1="160.26" x2="47.9" y2="170.72"/><line class="a" x1="56.21" y1="160.56" x2="55.81" y2="171.02"/><line class="a" x1="64.11" y1="160.86" x2="63.71" y2="171.33"/><line class="a" x1="72.02" y1="161.16" x2="71.62" y2="171.63"/><line class="a" x1="79.92" y1="161.46" x2="79.52" y2="171.93"/><line class="a" x1="71.62" y1="171.63" x2="72.02" y2="161.16"/><line class="a" x1="87.83" y1="161.76" x2="87.43" y2="172.23"/><line class="a" x1="95.73" y1="162.06" x2="95.33" y2="172.53"/><line class="a" x1="103.64" y1="162.36" x2="103.24" y2="172.83"/><line class="a" x1="111.54" y1="162.66" x2="111.14" y2="173.13"/><line class="a" x1="103.24" y1="172.83" x2="103.64" y2="162.36"/><line class="a" x1="119.45" y1="162.96" x2="119.05" y2="173.43"/><line class="a" x1="111.14" y1="173.13" x2="111.54" y2="162.66"/><line class="a" x1="127.35" y1="163.26" x2="126.95" y2="173.73"/><line class="a" x1="119.05" y1="173.43" x2="119.45" y2="162.96"/><line class="a" x1="135.26" y1="163.56" x2="134.86" y2="174.03"/><line class="a" x1="126.95" y1="173.73" x2="127.35" y2="163.26"/><path class="a" d="M131.36,139.44l12.69-34.39-8.64-23.7L148.89,54,73.63,51.16,15.7,49a2.74,2.74,0,0,0-2.85,2.64L12.1,71.29a2.72,2.72,0,0,0,2.33,2.82C22.86,75.23,29.19,80.39,29,86.33S22,96.93,13.55,97.41A2.71,2.71,0,0,0,11,100L9.33,144.11l-.85,22.36a2.76,2.76,0,0,0,2.65,2.86L133.69,174l9.61-13.88Z"/><rect class="b" x="91.44" y="75.9" width="38.45" height="25.8" rx="4.98" transform="matrix(1, 0.04, -0.04, 1, 3.45, -4.14)"/><rect class="b" x="36.38" y="73.81" width="38.45" height="25.8" rx="4.98" transform="translate(3.33 -2.05) rotate(2.18)"/><rect class="b" x="90.04" y="112.79" width="38.45" height="25.8" rx="4.98" transform="matrix(1, 0.04, -0.04, 1, 4.85, -4.06)"/><rect class="b" x="34.98" y="110.7" width="38.45" height="25.8" rx="4.98" transform="translate(4.73 -1.97) rotate(2.18)"/><rect class="b" x="171.19" y="62.5" width="38.45" height="25.8" rx="4.98" transform="translate(-14.28 68.81) rotate(-19.76)"/><rect class="b" x="222.78" y="43.96" width="38.45" height="25.8" rx="4.98" transform="translate(-4.97 85.16) rotate(-19.76)"/><rect class="b" x="183.67" y="97.24" width="38.45" height="25.8" rx="4.98" transform="translate(-25.29 75.08) rotate(-19.76)"/><rect class="b" x="235.26" y="78.71" width="38.45" height="25.8" rx="4.98" transform="translate(-15.98 91.43) rotate(-19.76)"/><circle class="a" cx="295.45" cy="102.49" r="4.05"/><line class="a" x1="196.74" y1="151.51" x2="200.28" y2="161.37"/><line class="a" x1="204.18" y1="148.84" x2="207.72" y2="158.69"/><line class="a" x1="211.63" y1="146.16" x2="215.17" y2="156.02"/><line class="a" x1="215.17" y1="156.02" x2="211.63" y2="146.16"/><line class="a" x1="233.96" y1="138.14" x2="237.5" y2="148"/><line class="a" x1="241.41" y1="135.47" x2="244.95" y2="145.32"/><line class="a" x1="248.85" y1="132.79" x2="252.39" y2="142.65"/><line class="a" x1="256.3" y1="130.12" x2="259.84" y2="139.97"/><line class="a" x1="263.74" y1="127.44" x2="267.28" y2="137.3"/><line class="a" x1="271.19" y1="124.77" x2="274.73" y2="134.62"/><line class="a" x1="278.63" y1="122.09" x2="282.17" y2="131.95"/><line class="a" x1="286.08" y1="119.42" x2="289.62" y2="129.27"/><line class="a" x1="293.52" y1="116.75" x2="297.06" y2="126.6"/><line class="a" x1="300.97" y1="114.07" x2="304.51" y2="123.93"/><line class="a" x1="304.51" y1="123.93" x2="300.97" y2="114.07"/><path class="a" d="M221.68,150.76l-7-19.57a2.75,2.75,0,0,1,1.66-3.52l2.27-.81a2.75,2.75,0,0,1,3.52,1.66l7,19.56a2.75,2.75,0,0,0,3.52,1.66l76.71-27.56a2.75,2.75,0,0,0,1.66-3.52L291.7,64.86l-3.15-8.76a2.73,2.73,0,0,0-3.22-1.75c-8.24,2.11-16-.31-18.05-5.9s2.47-12.42,10.17-16A2.73,2.73,0,0,0,278.82,29l-6.66-18.54a2.75,2.75,0,0,0-3.52-1.66L161,47.48l-2.29,30.39,16.87,18.76,1.08,36.63L195.46,148l-3.73,16.48L220,154.28A2.75,2.75,0,0,0,221.68,150.76Z"/><path class="c" d="M142,208.28a30.92,30.92,0,0,1-.09-8.57,18.56,18.56,0,0,1,2.07-6.44,12.23,12.23,0,0,1,3.89-4.26,12.61,12.61,0,0,1,5.37-2A12.27,12.27,0,0,1,164,190.5q4.41,4.33,5.72,14a30.92,30.92,0,0,1,.09,8.57,17.77,17.77,0,0,1-2.12,6.44,12.47,12.47,0,0,1-4,4.28,13.36,13.36,0,0,1-5.55,2,12.46,12.46,0,0,1-6-.53,11.92,11.92,0,0,1-4.77-3.22,18.33,18.33,0,0,1-3.44-5.72A34.51,34.51,0,0,1,142,208.28Zm8-1.09q.53,3.83,1.17,6.83a24.14,24.14,0,0,0,1.58,5,8.23,8.23,0,0,0,2.12,3,3.48,3.48,0,0,0,2.8.75,4.91,4.91,0,0,0,2.95-1.32,6.11,6.11,0,0,0,1.54-3.13,19.76,19.76,0,0,0,.31-5.18q-.15-3.12-.75-7.53c-.34-2.56-.73-4.83-1.14-6.83a25.08,25.08,0,0,0-1.53-5,7.3,7.3,0,0,0-2.2-3,4.27,4.27,0,0,0-3.22-.7,4.47,4.47,0,0,0-2.72,1.29,6.12,6.12,0,0,0-1.4,3.11,22.29,22.29,0,0,0-.25,5.21Q149.39,202.84,150,207.19Z"/><path class="c" d="M197.14,196.05l-17.87,5.46-.67-2.22c.74-.64,1.51-1.24,2.29-1.8s1.6-1.08,2.43-1.56l-7.25-23.7-.72-3.11a15.53,15.53,0,0,1-2.81,1.53,24.57,24.57,0,0,1-3.17,1.08l-.84-1.83a61.54,61.54,0,0,0,5.37-3.78A39.67,39.67,0,0,0,179,161.4l1.76-.54,10,32.79c.92-.05,1.86-.07,2.81,0s1.92.1,2.89.22Z"/><path class="c" d="M238.56,208l-14.91,11.27-1.4-1.85c.48-.86,1-1.69,1.54-2.49s1.13-1.56,1.75-2.3l-14.95-19.77-1.75-2.67a14.94,14.94,0,0,1-2.11,2.4,25.13,25.13,0,0,1-2.6,2.11l-1.42-1.43a64.1,64.1,0,0,0,3.74-5.4,39.6,39.6,0,0,0,3.15-6.18l1.46-1.1L231.74,208c.85-.37,1.72-.7,2.63-1s1.83-.56,2.79-.79Z"/><path class="c" d="M187.87,241.42a30.5,30.5,0,0,1-3.56-7.8,18.37,18.37,0,0,1-.72-6.72,12.22,12.22,0,0,1,1.83-5.47,12.46,12.46,0,0,1,4.11-4,12.28,12.28,0,0,1,11.3-1.22q5.78,2.17,10.9,10.5a30.86,30.86,0,0,1,3.57,7.79,18,18,0,0,1,.67,6.75,12.47,12.47,0,0,1-1.95,5.55,13.46,13.46,0,0,1-4.26,4.09,12.51,12.51,0,0,1-5.66,1.93,11.92,11.92,0,0,1-5.67-1A18.07,18.07,0,0,1,193,248,34.62,34.62,0,0,1,187.87,241.42Zm6.9-4.25q2,3.29,3.83,5.76a24.46,24.46,0,0,0,3.48,3.94,8.34,8.34,0,0,0,3.15,1.88,3.5,3.5,0,0,0,2.87-.45,5,5,0,0,0,2.16-2.4,6.17,6.17,0,0,0,.14-3.49,19.93,19.93,0,0,0-1.83-4.86c-.93-1.86-2.18-4.06-3.73-6.58-1.35-2.2-2.63-4.12-3.82-5.78a24.77,24.77,0,0,0-3.42-4,7.26,7.26,0,0,0-3.22-1.83,4.29,4.29,0,0,0-3.24.67,4.42,4.42,0,0,0-2,2.28,6.19,6.19,0,0,0,0,3.41,22.47,22.47,0,0,0,1.88,4.86C192,232.49,193.23,234.67,194.77,237.17Z"/><path class="c" d="M184.94,277.44l-18.67-.76.09-2.32c.92-.36,1.84-.67,2.77-.94s1.86-.49,2.81-.67L173,248l.35-3.18a15,15,0,0,1-3.16.52,23.5,23.5,0,0,1-3.35,0l-.19-2a59.48,59.48,0,0,0,6.32-1.79,39,39,0,0,0,6.36-2.77l1.83.08-1.4,34.26c.89.25,1.78.55,2.66.89s1.78.73,2.66,1.16Z"/><path class="c" d="M144.07,147.16a30.57,30.57,0,0,1-.1-8.57,18.49,18.49,0,0,1,2.07-6.44,12.23,12.23,0,0,1,3.89-4.26,12.7,12.7,0,0,1,5.38-2,12.25,12.25,0,0,1,10.82,3.47q4.4,4.34,5.71,14a30.57,30.57,0,0,1,.1,8.57,17.78,17.78,0,0,1-2.13,6.44,12.35,12.35,0,0,1-4,4.28,13.39,13.39,0,0,1-5.56,2,12.47,12.47,0,0,1-6-.52,12.09,12.09,0,0,1-4.77-3.23,18.21,18.21,0,0,1-3.44-5.72A34.56,34.56,0,0,1,144.07,147.16Zm8-1.09c.34,2.55.73,4.83,1.16,6.82a25.07,25.07,0,0,0,1.58,5,8.31,8.31,0,0,0,2.12,3,3.49,3.49,0,0,0,2.8.76,5.05,5.05,0,0,0,3-1.32,6.19,6.19,0,0,0,1.54-3.13,20.38,20.38,0,0,0,.3-5.19c-.1-2.07-.35-4.59-.75-7.53q-.51-3.82-1.14-6.83a24.37,24.37,0,0,0-1.52-5,7.32,7.32,0,0,0-2.2-3,4.26,4.26,0,0,0-3.23-.7,4.34,4.34,0,0,0-2.71,1.29,6.13,6.13,0,0,0-1.41,3.11,22.2,22.2,0,0,0-.25,5.2Q151.5,141.71,152.1,146.07Z"/></svg>