<svg width="120" height="120" xmlns="http://www.w3.org/2000/svg" xmlns:xlink="http://www.w3.org/1999/xlink" overflow="hidden"><defs><clipPath id="clip0"><rect x="0" y="0" width="120" height="120"/></clipPath><clipPath id="clip1"><path d="M59.6064 25.6722 87.3839 45.5967 67.4594 73.3741 39.6819 53.4496Z" fill-rule="evenodd" clip-rule="evenodd"/></clipPath><clipPath id="clip2"><path d="M59.6064 25.6722 87.3839 45.5967 67.4594 73.3741 39.6819 53.4496Z" fill-rule="evenodd" clip-rule="evenodd"/></clipPath><clipPath id="clip3"><path d="M59.6064 25.6722 87.3839 45.5967 67.4594 73.3741 39.6819 53.4496Z" fill-rule="evenodd" clip-rule="evenodd"/></clipPath></defs><g clip-path="url(#clip0)"><rect x="0" y="0" width="120" height="120" fill="#FFFFFF" fill-opacity="0"/><g><g><g><path d="M22 34 29 34 29 38 22 38Z" fill="#C04F15"/><path d="M22 26 29 26 29 30 22 30Z" fill="#C04F15"/><path d="M22 42 29 42 29 46 22 46Z" fill="#C04F15"/><path d="M22 66 29 66 29 70 22 70Z" fill="#C04F15"/><path d="M22 58 29 58 29 62 22 62Z" fill="#C04F15"/><path d="M22 50 29 50 29 54 22 54Z" fill="#C04F15"/><path d="M91 58 98 58 98 62 91 62Z" fill="#C04F15"/><path d="M91 66 98 66 98 70 91 70Z" fill="#C04F15"/><path d="M91 50 98 50 98 54 91 54Z" fill="#C04F15"/><path d="M91 26 98 26 98 30 91 30Z" fill="#C04F15"/><path d="M91 42 98 42 98 46 91 46Z" fill="#C04F15"/><path d="M91 34 98 34 98 38 91 38Z" fill="#C04F15"/><path d="M62 10 66 10 66 17 62 17Z" fill="#C04F15"/><path d="M78 10 82 10 82 17 78 17Z" fill="#C04F15"/><path d="M70 10 74 10 74 17 70 17Z" fill="#C04F15"/><path d="M54 10 58 10 58 17 54 17Z" fill="#C04F15"/><path d="M38 10 42 10 42 17 38 17Z" fill="#C04F15"/><path d="M46 10 50 10 50 17 46 17Z" fill="#C04F15"/><path d="M46 79 50 79 50 86 46 86Z" fill="#C04F15"/><path d="M38 79 42 79 42 86 38 86Z" fill="#C04F15"/><path d="M54 79 58 79 58 86 54 86Z" fill="#C04F15"/><path d="M62 79 66 79 66 86 62 86Z" fill="#C04F15"/><path d="M70 79 74 79 74 86 70 86Z" fill="#C04F15"/><path d="M78 79 82 79 82 86 78 86Z" fill="#C04F15"/><path d="M47 35 73 35 73 61 47 61Z" fill="#C04F15"/><path d="M83 21 37 21C34.7909 21 33 22.7909 33 25L33 71C33 73.2091 34.7909 75 37 75L83 75C85.2091 75 87 73.2091 87 71L87 25C87 22.7909 85.2091 21 83 21ZM77 65 43 65 43 31 77 31Z" fill="#C04F15"/></g></g></g><path d="M32 25.2503C32 22.9029 33.9029 21 36.2503 21L83.7496 21C86.0971 21 88 22.9029 88 25.2503L88 70.7497C88 73.0971 86.0971 75 83.7496 75L36.2503 75C33.9029 75 32 73.0971 32 70.7497Z" fill="#C04F15" fill-rule="evenodd"/><g clip-path="url(#clip1)"><g clip-path="url(#clip2)"><g clip-path="url(#clip3)"><path d="M25.4602 8.19C24.57 8.19 23.8578 8.90218 23.8578 9.75679 23.8578 9.75679 23.8578 9.75679 23.8578 9.75679L23.8578 16.7361C23.8578 16.9497 23.7154 17.0922 23.5017 17.0922 23.2881 17.0922 23.1457 16.9497 23.1457 16.7361L23.1457 6.30274C23.1457 5.44813 22.5403 4.73596 21.6857 4.62913 20.7243 4.52231 19.9409 5.27009 19.9409 6.23152L19.9409 16.7361C19.9409 16.9497 19.7984 17.0922 19.5848 17.0922 19.3711 17.0922 19.2287 16.9497 19.2287 16.7361L19.2287 4.05939 19.2287 4.05939C19.1931 3.16917 18.4453 2.49261 17.5907 2.52822 16.7361 2.52822 16.0595 3.20478 16.0239 4.05939L16.0239 4.05939 16.0239 16.7361C16.0239 16.9497 15.8815 17.0922 15.6678 17.0922 15.4542 17.0922 15.3117 16.9497 15.3117 16.7361L15.3117 6.23152C15.2761 5.34131 14.5284 4.66474 13.6737 4.70035 12.8191 4.73596 12.1426 5.41252 12.1426 6.23152L12.1426 20.5106C12.1426 20.5462 12.0714 20.5462 12.0714 20.5106L10.647 14.2435C10.4334 13.282 9.47192 12.6767 8.51048 12.8904 7.54905 13.104 6.9437 14.0654 7.15735 15.0269L9.29387 24.6412C9.4007 25.0329 9.64996 25.389 9.97044 25.6383L13.8874 28.665 13.8874 31.3357 24.2139 31.3357 24.2139 29.5552C24.2139 27.027 27.0626 26.849 27.0626 22.0774L27.0626 9.79239C27.0626 8.90218 26.3504 8.19 25.4602 8.19 25.4602 8.19 25.4602 8.19 25.4602 8.19L25.4602 8.19Z" fill="#262626" transform="matrix(0.812579 0.582856 -0.582854 0.812577 59.6064 25.6722)"/></g></g></g><path d="M53.5425 44.3171 47.8317 42.1291" stroke="#262626" stroke-width="2" stroke-miterlimit="8" fill="none" fill-rule="evenodd"/><path d="M61.1577 38.6387 63.1147 30.9637" stroke="#262626" stroke-width="2" stroke-miterlimit="8" fill="none" fill-rule="evenodd"/><path d="M55 41 52 38" stroke="#262626" stroke-width="2" stroke-miterlimit="8" fill="none" fill-rule="evenodd"/><path d="M58 39C57.6667 37.3333 57.4375 34.9752 57 34" stroke="#262626" stroke-width="2" stroke-miterlimit="8" fill="none" fill-rule="evenodd"/><path d="M45 58C45.9945 59.2614 46.9891 60.5229 48.1557 60.8833 49.3224 61.2437 50.6612 60.7031 52 60.1625" stroke="#262626" stroke-width="2" stroke-miterlimit="8" fill="none" fill-rule="evenodd"/><path d="M44 60C45.5717 61.8116 47.1435 63.6233 48.8101 63.9456 50.4768 64.268 52.2384 63.1011 54 61.9341" stroke="#262626" stroke-width="2" stroke-miterlimit="8" fill="none" fill-rule="evenodd"/><path d="M37.5001 29.8846C37.5001 28.0154 39.0154 26.5001 40.8846 26.5001L79.1155 26.5001C80.9847 26.5001 82.5001 28.0154 82.5001 29.8846L82.5001 66.1155C82.5001 67.9847 80.9847 69.5001 79.1155 69.5001L40.8846 69.5001C39.0154 69.5001 37.5001 67.9847 37.5001 66.1155Z" stroke="#FFFFFF" stroke-width="3" stroke-miterlimit="8" fill="none" fill-rule="evenodd"/><text fill="#C04F15" font-family="Roboto,Roboto_MSFontService,sans-serif" font-weight="400" font-size="24" transform="translate(31.0833 115)">SLAP</text></g></svg>