<svg width="1000" height="1000" viewBox="0 0 1000 1000" fill="none" xmlns="http://www.w3.org/2000/svg">
<path d="M67.6449 458.915C32.4449 580.915 141.644 665.415 287.645 700.415L287.644 619.915C280.144 632.415 121 601.5 139.5 502C154.3 422.4 234.311 438.415 278.144 465.415L295.144 381.915C233.978 356.748 102.845 336.915 67.6449 458.915Z" fill="#1D84C3" stroke="#185D87" stroke-width="15"/>
<path d="M628.04 357.111C627.806 357.245 627.293 357.569 626.47 358.295C624.788 359.778 622.911 361.931 620.712 364.56C618.694 366.971 616.288 369.931 614.022 372.178C612.87 373.32 611.49 374.55 609.945 375.522C608.476 376.447 606.146 377.595 603.268 377.516C600.177 377.43 597.303 377.324 595.156 377.222C594.09 377.171 593.16 377.119 592.457 377.067C592.117 377.043 591.755 377.013 591.43 376.976C591.279 376.958 591.029 376.928 590.749 376.878C590.65 376.86 590.486 376.825 590.284 376.777C590.048 376.75 589.687 376.714 589.201 376.672C588.088 376.576 586.553 376.471 584.881 376.382C582.299 376.245 580.319 376.117 578.817 375.896C577.073 375.641 575.446 375.191 573.787 374.174C573.766 374.161 573.393 373.931 572.036 373.597C570.659 373.258 568.635 372.896 565.484 372.454C553.346 370.753 547.941 371.681 544.119 372.46C542.182 372.855 539.515 373.5 536.656 373.64C533.538 373.792 530.325 373.38 526.434 372.209C524.689 371.684 522.31 372.089 518.679 373.391C517.352 373.866 515.033 374.787 513.354 375.239C512.453 375.482 510.995 375.815 509.36 375.735C508.584 375.697 507.647 375.554 506.669 375.209C505.035 375.973 503.11 377.144 501.075 378.36C500.168 378.902 499.035 379.575 498.072 380.043C497.686 380.231 496.742 380.684 495.609 380.924C495.112 381.029 493.714 381.295 492.02 380.873C489.969 380.362 487.815 378.877 486.791 376.354C485.994 376.238 485.122 375.997 484.253 375.564C483.052 376.151 481.45 376.894 479.875 377.368C478.842 377.679 477.357 378.027 475.678 377.969C473.918 377.908 471.605 377.374 469.604 375.578C469.488 375.588 469.351 375.598 469.192 375.614C466.553 375.886 462.239 376.472 454.801 375.168C450.553 374.423 448.031 373.965 446.254 373.694C444.502 373.428 444.028 373.437 443.814 373.45C443.46 373.471 443.179 373.53 441.337 373.905C439.662 374.247 437.319 374.701 433.621 375.211C430.155 375.689 426.642 376.046 423.871 376.36C420.84 376.705 418.984 376.973 418.049 377.226C414.621 378.15 411.113 377.814 408.476 377.374C405.77 376.923 402.949 376.161 400.905 375.646C400.265 375.484 399.709 375.349 399.225 375.237L398.738 376.544L393.339 376.359H393.337C393.336 376.359 393.333 376.358 393.331 376.358C393.326 376.358 393.318 376.358 393.308 376.357C393.287 376.357 393.255 376.356 393.213 376.354C393.129 376.352 393.002 376.347 392.838 376.342C392.509 376.331 392.025 376.315 391.407 376.296C390.172 376.257 388.404 376.202 386.277 376.142C382.022 376.021 376.342 375.876 370.626 375.779C364.892 375.683 359.192 375.636 354.869 375.707C353.131 375.735 351.693 375.783 350.601 375.846L350.291 376.181L347.257 376.352C344.144 376.527 340.653 376.835 339.54 376.999C337.463 377.305 332.577 377.478 328.731 377.484C324.114 377.492 318.413 375.865 313.188 374.058C307.702 372.16 301.684 369.67 296.091 367.296C290.383 364.873 285.215 362.614 281.036 360.98C278.952 360.166 277.314 359.586 276.122 359.245C275.796 359.152 275.544 359.089 275.357 359.047C270.195 360.057 267.054 361.859 264.225 364.914C261.155 368.229 258.913 371.913 253.632 384.133L250.877 390.507L250.848 390.574L250.817 390.642L230.988 434.159C230.508 435.305 227.961 441.342 225.036 448.263C212.213 478.61 205.781 497.6 198.727 525.865C196.061 536.544 194.664 543.641 193.426 553.179C193.657 553.789 193.826 554.45 193.916 555.164C194.237 557.7 193.377 559.703 192.755 560.807L196.811 611.082C196.944 611.254 197.072 611.427 197.192 611.605C198.209 613.113 198.875 615.144 199.299 616.344C203.702 628.824 212.976 641.616 228.048 654.855C230.315 656.847 237.057 662.396 243.034 667.177C251.294 673.784 256.045 677.616 258.899 680.236C261.927 683.017 263.311 684.889 264.542 687.369L264.787 687.874C267.627 693.865 272.361 698.525 282.232 703.295C312.166 717.761 353.327 725.373 428.886 729.466C438.27 729.974 487.397 730.221 496.803 729.808C535.642 728.099 573.488 723.731 601.997 717.718C620.489 713.817 629.555 711.188 638.625 707.304C650.16 702.363 655.736 698.826 659.839 694.692C661.109 693.413 661.696 692.737 662.149 692.111C662.608 691.479 663.083 690.686 663.939 689.03C664.91 687.153 665.836 685.338 667.202 683.658C668.535 682.019 670.146 680.689 671.876 679.243C674.111 677.375 679.715 672.878 684.34 669.236C697.368 658.977 700.674 656.111 707.329 649.449C719.637 637.129 726.851 625.958 731.252 613.032C731.623 611.944 732.175 610.302 732.993 608.981C733.502 608.161 734.346 607.054 735.714 606.166C737.127 605.248 738.502 604.951 739.411 604.841C739.278 604.857 739.501 604.834 740.234 604.616C740.882 604.424 741.713 604.145 742.683 603.785C744.622 603.066 746.906 602.105 749.061 601.076C757.408 597.09 775.496 586.951 779.801 583.92C779.589 584.069 779.788 583.933 780.711 583.076C781.468 582.373 782.472 581.414 783.658 580.256C786.026 577.945 789.034 574.934 792.098 571.792C803.726 559.864 805.496 557.598 809.398 550.823C812.788 544.94 819.842 531.071 821.895 526.292C824.479 520.274 828.183 509.017 832.418 494.03C842.36 458.845 847.392 444.124 855.004 428.679C861.835 414.819 866.095 408.554 875.119 399.589C883.823 390.943 893.348 384.084 907.812 375.801C914.671 371.872 918.4 370.066 927.154 366.386C928.145 365.969 929.221 365.468 930.126 365.01C930.577 364.781 930.949 364.582 931.224 364.426C931.369 364.343 931.455 364.29 931.493 364.267C931.873 363.974 931.974 363.749 932.001 363.68C932.036 363.589 932.036 363.52 932.023 363.463C932.011 363.405 931.978 363.323 931.884 363.229C931.803 363.149 931.571 362.956 931.027 362.834C931.016 362.832 930.754 362.739 929.227 362.81C927.609 362.884 925.093 363.11 920.689 363.564C917.54 363.889 908.519 364.316 900.682 364.538C892.797 364.762 884.207 365.112 881.568 365.307C878.49 365.534 870.654 365.775 864.142 365.859L864.093 365.86H839.86C839.736 365.868 839.549 365.881 839.306 365.898C838.799 365.935 838.051 365.995 837.126 366.086C835.267 366.269 832.737 366.571 830.028 367.046C827.295 367.526 824.53 368.157 822.147 368.958C819.636 369.803 818.166 370.637 817.514 371.209C807.152 380.295 802.392 386.311 797.052 396.772C793.52 403.69 792.091 406.888 785.37 423.099C778.36 440.005 776.731 443.72 773.229 450.604C768.492 459.917 763.024 468.218 756.949 475.195C751.333 481.645 744.293 486.449 735.43 490.25C732.77 491.39 729.741 492.477 727.311 493.242C726.105 493.622 724.926 493.961 723.944 494.189C723.485 494.297 722.868 494.427 722.232 494.501C721.943 494.534 721.367 494.591 720.677 494.552C720.333 494.532 719.726 494.477 719.005 494.275C718.374 494.099 716.966 493.625 715.671 492.33C714.762 491.421 714.303 490.481 714.208 490.293C714.031 489.94 713.904 489.626 713.832 489.44C713.685 489.061 713.553 488.658 713.45 488.339C713.242 487.691 712.941 486.7 712.584 485.546C711.84 483.143 710.651 479.375 708.721 473.781C702.381 455.411 704.526 448.735 686.973 409.469C681.742 397.769 676.481 385.753 675.332 382.857C669.164 367.311 664.457 362.46 658.907 360.248C654.692 358.568 652.742 358.152 628.04 357.111ZM588.822 376.271C588.861 376.289 588.898 376.306 588.934 376.322C588.897 376.306 588.86 376.289 588.822 376.271ZM588.431 376.077C588.483 376.105 588.535 376.131 588.585 376.156C588.534 376.131 588.482 376.105 588.431 376.077ZM588.031 375.849C588.145 375.919 588.256 375.982 588.362 376.04C588.254 375.981 588.143 375.917 588.031 375.849Z" fill="#1D84C3" stroke="#185D87" stroke-width="15"/>
<path d="M390.654 486.302C387.971 489.373 384.522 493.403 380.307 498.393L369.63 511.596L398.73 537.769C400.834 539.691 402.045 541.719 402.363 543.852C402.776 546.626 402.005 549.221 400.051 551.639C398.098 554.056 395.665 555.481 392.755 555.915C389.737 556.364 386.852 555.485 384.099 553.278C378.47 548.773 369.065 540.55 355.884 528.609C352.162 533.58 346.335 540.881 338.404 550.513C335.852 553.346 333.94 555.676 332.669 557.5C330.663 560.307 328.178 561.931 325.214 562.373C322.303 562.806 319.562 562.151 316.988 560.408C314.469 558.656 313.003 556.394 312.59 553.62C312.129 550.526 313.811 546.65 317.634 541.992C320.739 538.422 323.847 534.878 326.959 531.362C329.762 527.619 334.14 521.869 340.091 514.113C336.454 510.402 332.789 506.694 329.098 502.991C324.648 498.638 320.577 495.345 316.885 493.115C313.741 491.238 311.954 488.86 311.526 485.979C311.113 483.206 311.798 480.596 313.582 478.149C315.413 475.641 317.81 474.166 320.774 473.725C324.6 473.155 330.45 476.183 338.322 482.807L353.711 497.364C357.774 492.833 361.81 488.307 365.819 483.784C370.801 478.026 374.274 473.229 376.237 469.393C378.07 465.794 380.765 463.73 384.322 463.2C387.232 462.767 389.97 463.395 392.535 465.085C395.155 466.767 396.671 468.995 397.084 471.768C397.6 475.235 395.457 480.08 390.654 486.302Z" fill="#094367"/>
<path d="M542.141 534.864C545.593 532.454 550.051 529.272 555.516 525.319L569.501 514.737L547.138 480.995C545.529 478.526 544.836 476.177 545.061 473.948C545.352 471.05 546.778 468.633 549.337 466.695C551.897 464.757 554.681 463.94 557.691 464.243C560.812 464.557 563.464 466.174 565.647 469.096C570.114 475.061 577.401 485.728 587.509 501.098C592.478 497.039 600.134 491.167 610.477 483.484C613.739 481.279 616.235 479.419 617.963 477.905C620.674 475.588 623.561 474.584 626.627 474.892C629.636 475.195 632.202 476.551 634.325 478.96C636.391 481.363 637.279 484.013 636.987 486.91C636.662 490.142 634.004 493.618 629.014 497.337C625.016 500.143 621.02 502.921 617.028 505.672C613.286 508.729 607.467 513.406 599.571 519.704C602.255 524.364 604.967 529.027 607.707 533.693C611.037 539.206 614.258 543.555 617.372 546.738C620.03 549.426 621.207 552.274 620.904 555.283C620.613 558.181 619.268 560.634 616.87 562.645C614.411 564.705 611.649 565.581 608.583 565.273C604.626 564.874 599.565 560.341 593.4 551.672L581.755 533.108C576.559 536.638 571.39 540.171 566.249 543.706C559.825 548.238 555.149 552.186 552.221 555.55C549.482 558.708 546.274 560.102 542.596 559.732C539.586 559.429 537.017 558.101 534.889 555.748C532.706 553.39 531.76 550.762 532.051 547.864C532.415 544.242 535.779 539.909 542.141 534.864Z" fill="#094367"/>
<path d="M476.483 596.835C492.831 596.301 508.742 596.403 522.151 597.605C534.975 598.755 547.436 601.035 555.361 606.102C560.014 609.077 561.374 615.26 558.399 619.913C555.424 624.566 549.24 625.926 544.587 622.952C541.181 620.774 533.213 618.678 520.365 617.526C508.101 616.426 493.095 616.303 477.137 616.825C445.257 617.867 410.521 621.451 388.307 624.438C382.834 625.174 377.799 621.333 377.063 615.86C376.327 610.386 380.168 605.352 385.641 604.616C408.318 601.566 443.752 597.906 476.483 596.835Z" fill="#094367"/>
<path d="M396.229 608.269C397.349 611.036 398.4 614.533 398.412 618.241C398.425 622.037 397.305 626.595 393.592 630.191L393.225 630.536L392.835 630.873C388.747 634.231 382.699 633.828 379.098 629.871C375.907 626.364 375.678 621.207 378.261 617.466C378.144 617.009 377.961 616.442 377.689 615.77C376.431 612.659 374.07 609.122 372.229 606.868C368.736 602.591 369.372 596.291 373.65 592.798C377.927 589.305 384.227 589.941 387.72 594.219C390.335 597.42 393.972 602.691 396.229 608.269Z" fill="#094367"/>
<path d="M544.622 609.107C545.162 606.238 546.05 602.928 547.623 599.945C549.1 597.145 551.862 593.39 556.697 591.734L557.172 591.58L557.668 591.442C562.799 590.156 568.093 593.108 569.655 598.225C571.044 602.772 569.031 607.545 565.074 609.814C564.832 610.435 564.54 611.415 564.278 612.807C563.574 616.548 563.476 621.118 563.642 624.136C563.943 629.65 559.718 634.365 554.203 634.667C548.689 634.969 543.974 630.743 543.672 625.229C543.45 621.174 543.531 614.902 544.622 609.107Z" fill="#094367"/>
<path d="M294.975 353.027V341.527C294.975 341.527 396.056 365.866 462.948 365.866C529.839 365.866 627.5 350.027 627.5 350.027L617.542 372.075L583.848 381.035V414.434L537.272 408.732L519.787 431.527L462.948 411.527L420.271 431.527L403.771 411.527L380.053 388.027L339.834 396.027L294.975 353.027Z" fill="#185D87"/>
<path d="M488.686 146.307L472.415 135.603C467.243 132.218 465.722 128.897 467.853 125.641C470.253 121.973 474.34 122.029 480.114 125.807C480.662 126.166 481.255 126.573 481.894 127.03L505.72 90.618C502.264 90.7021 500.181 90.5113 499.469 90.0457C497.937 89.0429 496.954 87.6181 496.521 85.7713C496.115 83.9424 496.386 82.3027 497.336 80.8522C498.32 79.347 500.249 78.4006 503.121 78.0131L509.963 77.6822L517.603 76.9363C520.623 76.8015 523.091 77.3609 525.006 78.6144C527.469 80.2261 527.734 82.5098 525.8 85.4655C523.669 88.7222 520.533 93.2167 516.391 98.949C512.249 104.681 506.588 113.035 499.407 124.009L492.907 133.943L495.616 135.716C497.203 136.755 498.199 138.13 498.604 139.841C499.036 141.57 498.76 143.187 497.775 144.692C496.79 146.197 495.419 147.098 493.662 147.394C491.932 147.708 490.273 147.346 488.686 146.307Z" fill="#FF4D00"/>
<path d="M637.088 173.222C628.96 166.072 626.156 157.376 628.675 147.134C630.553 139.552 635.11 131.648 642.347 123.421C648.525 116.398 655.727 111.8 663.954 109.628C673.821 107.027 682.463 108.988 689.879 115.511C696.903 121.689 699.859 129.321 698.749 138.407C697.803 146.069 694.349 153.288 688.387 160.066C678.753 171.018 669.661 177.591 661.111 179.783C652.561 181.976 644.554 179.789 637.088 173.222ZM681.418 125.056C677.44 121.557 672.509 120.725 666.624 122.562C661.488 124.142 656.922 127.204 652.926 131.747C647.655 137.739 644.159 142.852 642.437 147.087C639.653 153.916 640.667 159.448 645.481 163.682C649.508 167.224 654.138 168.052 659.37 166.164C664.624 164.252 670.48 159.625 676.939 152.282C682.102 146.413 685.048 141.208 685.776 136.665C686.53 132.144 685.077 128.275 681.418 125.056Z" fill="#FF4D00"/>
<path d="M432.046 324.603L415.679 314.045C410.476 310.708 408.925 307.401 411.027 304.125C413.393 300.436 417.48 300.455 423.289 304.181C423.839 304.534 424.436 304.936 425.079 305.388L448.574 268.761C445.12 268.876 443.035 268.705 442.319 268.245C440.777 267.257 439.782 265.841 439.332 263.998C438.91 262.173 439.166 260.531 440.102 259.072C441.074 257.558 442.994 256.594 445.862 256.18L452.7 255.787L460.334 254.972C463.352 254.81 465.825 255.347 467.752 256.583C470.229 258.173 470.514 260.454 468.607 263.427C466.506 266.703 463.41 271.226 459.321 276.995C455.231 282.765 449.646 291.169 442.564 302.208L436.154 312.201L438.88 313.949C440.476 314.973 441.485 316.339 441.905 318.046C442.353 319.771 442.091 321.391 441.12 322.905C440.148 324.419 438.786 325.332 437.031 325.644C435.304 325.974 433.642 325.627 432.046 324.603Z" fill="#FF4D00"/>
<path d="M614.974 182.378L603.907 198.404C600.407 203.5 597.054 204.946 593.845 202.742C590.233 200.261 590.38 196.176 594.287 190.488C594.657 189.949 595.078 189.365 595.55 188.736L559.68 164.1C559.687 167.557 559.449 169.636 558.968 170.336C557.931 171.846 556.485 172.797 554.629 173.188C552.791 173.553 551.158 173.245 549.729 172.263C548.246 171.245 547.343 169.296 547.02 166.416L546.843 159.568L546.268 151.913C546.201 148.891 546.816 146.437 548.112 144.55C549.778 142.123 552.067 141.91 554.979 143.91C558.187 146.113 562.61 149.349 568.248 153.618C573.886 157.888 582.111 163.735 592.921 171.16L602.708 177.881L604.541 175.212C605.615 173.648 607.011 172.683 608.731 172.317C610.469 171.924 612.08 172.236 613.562 173.255C615.045 174.273 615.915 175.664 616.172 177.428C616.447 179.164 616.048 180.814 614.974 182.378Z" fill="#FF4D00"/>
<path d="M609.067 301.026L597.016 285.726C593.179 280.88 592.786 277.249 595.837 274.833C599.273 272.112 603.133 273.457 607.417 278.868C607.823 279.38 608.256 279.955 608.718 280.59L642.833 253.578C639.529 252.565 637.612 251.726 637.085 251.059C635.948 249.623 635.466 247.96 635.639 246.071C635.832 244.208 636.608 242.738 637.967 241.662C639.377 240.546 641.506 240.258 644.353 240.798L650.949 242.647L658.433 244.355C661.34 245.182 663.505 246.492 664.926 248.287C666.753 250.595 666.282 252.845 663.513 255.038C660.462 257.454 656.065 260.726 650.324 264.855C644.582 268.984 636.57 275.119 626.288 283.261L616.981 290.63L618.991 293.169C620.168 294.656 620.678 296.275 620.521 298.026C620.385 299.803 619.611 301.25 618.201 302.367C616.791 303.483 615.205 303.904 613.445 303.63C611.704 303.381 610.245 302.513 609.067 301.026Z" fill="#FF4D00"/>
<path d="M492.286 238.819C493.206 228.033 498.533 220.61 508.267 216.549C515.482 213.554 524.547 212.522 535.464 213.453C544.784 214.249 552.762 217.309 559.397 222.635C567.354 229.025 570.912 237.141 570.072 246.982C569.277 256.302 564.896 263.215 556.929 267.722C550.205 271.514 542.346 273.026 533.352 272.259C518.818 271.019 508.129 267.612 501.284 262.039C494.44 256.466 491.44 248.726 492.286 238.819ZM557.368 245.849C557.818 240.57 555.556 236.11 550.582 232.468C546.259 229.277 541.083 227.424 535.054 226.909C527.103 226.231 520.913 226.458 516.483 227.59C509.337 229.409 505.491 233.512 504.946 239.9C504.49 245.244 506.576 249.459 511.203 252.546C515.863 255.635 523.065 257.595 532.809 258.426C540.597 259.091 546.534 258.366 550.621 256.253C554.704 254.172 556.953 250.704 557.368 245.849Z" fill="#FF4D00"/>
<path d="M600.288 352.532L586.481 366.269C582.11 370.64 578.549 371.449 575.797 368.697C572.698 365.598 573.588 361.609 578.468 356.729C578.93 356.267 579.451 355.769 580.029 355.238L549.259 324.468C548.635 327.867 548.022 329.868 547.421 330.469C546.126 331.764 544.53 332.435 542.633 332.481C540.76 332.504 539.211 331.903 537.985 330.677C536.713 329.405 536.181 327.324 536.389 324.433L537.465 317.669L538.297 310.037C538.783 307.054 539.835 304.753 541.454 303.134C543.535 301.052 545.825 301.261 548.323 303.758C551.075 306.51 554.833 310.5 559.597 315.726C564.361 320.953 571.38 328.203 580.653 337.476L589.048 345.871L591.338 343.582C592.679 342.241 594.228 341.547 595.986 341.5C597.767 341.431 599.293 342.032 600.565 343.304C601.837 344.576 602.438 346.103 602.369 347.883C602.323 349.641 601.629 351.19 600.288 352.532Z" fill="#FF4D00"/>
<path d="M446.343 395.484C437.399 389.385 433.549 381.098 434.793 370.625C435.727 362.87 439.281 354.466 445.454 345.414C450.724 337.686 457.308 332.24 465.206 329.076C474.681 325.284 483.498 326.17 491.658 331.735C499.386 337.005 503.256 344.217 503.269 353.37C503.269 361.09 500.726 368.678 495.641 376.136C487.422 388.187 479.205 395.825 470.989 399.05C462.772 402.274 454.557 401.086 446.343 395.484ZM484.431 342.245C480.054 339.26 475.058 339.04 469.443 341.584C464.539 343.782 460.383 347.381 456.974 352.38C452.478 358.973 449.635 364.476 448.446 368.891C446.52 376.01 448.206 381.375 453.502 384.987C457.933 388.009 462.629 388.262 467.591 385.747C472.57 383.205 477.815 377.894 483.325 369.815C487.729 363.357 490.014 357.83 490.18 353.232C490.373 348.653 488.457 344.991 484.431 342.245Z" fill="#FF4D00"/>
<path d="M332.158 224.815C332.159 224.815 332.161 224.815 332.161 224.815C332.158 224.815 332.146 224.814 332.129 224.811C332.093 224.807 332.031 224.799 331.942 224.786C331.763 224.761 331.48 224.72 331.104 224.66C330.352 224.539 329.233 224.343 327.843 224.052C325.05 223.466 321.225 222.507 317.102 221.021C308.564 217.944 300.089 213.093 295.754 205.941C292.416 200.435 291.758 196.848 292.082 194.245C292.407 191.633 293.899 188.58 297.918 184.506C301.979 180.39 307.957 175.887 316.122 170.303C324.516 164.562 333.738 158.65 345.503 150.679C356.867 142.979 366.175 136.833 374.242 132.314C382.333 127.781 388.698 125.167 394.156 124.183C399.383 123.242 403.933 123.765 408.651 125.909C413.576 128.147 419.032 132.313 425.621 139.278C430.152 144.067 431.01 152.387 429.653 161.607C429.017 165.928 427.973 169.88 427.077 172.771C426.633 174.207 426.232 175.358 425.949 176.133C425.807 176.519 425.696 176.812 425.623 176.997C425.588 177.089 425.561 177.155 425.546 177.193C425.541 177.204 425.538 177.213 425.535 177.219L423.522 182.124L427.474 185.659C443.374 199.879 465.629 205.735 490.018 208.094C512.232 210.243 537.412 209.574 563.028 208.897C562.005 211.249 559.78 214.655 554.927 218.891C540.556 231.432 505.212 249.445 421.102 267.115L418.285 267.708L416.588 270.032C371.926 331.193 334.492 350.839 309.359 355.952C296.751 358.517 286.917 357.5 280.378 355.947C280.106 355.883 279.84 355.814 279.579 355.747C298.781 332.682 315.334 311.629 326.315 292.307C338.526 270.818 344.732 249.951 338.403 229.993L336.943 225.392L332.158 224.815Z" fill="#1D84C3" stroke="#185D87" stroke-width="15"/>
<path d="M249.5 445L221.5 436.5L248 375.5L270.5 384L249.5 445Z" fill="#1D84C3"/>
<path d="M295.001 700.001L204.002 663.501L163.499 595.5L205.5 608L295.001 700.001Z" fill="#1D84C3"/>
<path d="M402.021 798C403.238 798.155 403.616 798.22 404.013 798.448C404.445 798.697 404.913 799.147 406.02 800.264C406.279 802.771 406.278 802.871 406.238 806.062V806.072C406.235 807.17 406.232 808.267 406.229 809.397C406.103 810.864 406.045 811.434 405.861 811.957C405.698 812.423 405.426 812.87 404.789 813.843H364.707V842.564H399.001C399.75 843.78 400.097 844.713 400.271 845.675C400.476 846.804 400.454 848.002 400.46 849.866V849.877C400.474 850.881 400.487 851.885 400.501 852.918C400.351 854.312 400.284 854.832 400.02 855.416C399.752 856.007 399.279 856.67 398.221 858.101H364.707V890.163H404.754C405.988 892.33 406.575 893.998 406.83 895.713C407.102 897.539 407.006 899.467 406.822 902.219C406.139 903.37 405.456 904.523 404.757 905.702C396.778 905.763 388.8 905.806 380.82 905.836H380.819C378.038 905.849 375.257 905.866 372.476 905.888C368.487 905.918 364.498 905.932 360.507 905.943H360.499C359.252 905.956 358.005 905.969 356.721 905.982C354.996 905.983 354.993 905.983 353.227 905.983H353.221C352.222 905.989 351.223 905.993 350.195 905.999C348.907 905.849 348.44 905.783 347.889 905.521C347.301 905.24 346.619 904.736 345.103 903.587C343.996 899.991 344.283 896.32 344.273 892.256V892.253L344.258 889.307C344.242 886.084 344.232 882.862 344.224 879.639V879.638L344.213 876.308L344.177 858.869L344.15 849.842L344.106 840.817C344.085 836.203 344.077 831.587 344.074 826.971V826.97C344.072 825.86 344.069 824.75 344.064 823.64L344.046 820.31C344.026 817.215 344.026 814.12 344.032 811.022V811.009C344.022 810.094 344.011 809.179 344 808.236C344.011 806.633 344.019 805.474 344.08 804.558C344.141 803.648 344.25 803.042 344.436 802.54C344.801 801.549 345.505 800.797 347.312 798.968C349.328 797.993 350.995 798.187 353.68 798.172H353.681C354.796 798.164 355.912 798.157 357.062 798.148L357.061 798.147C358.875 798.142 358.876 798.143 360.729 798.138H360.729C361.967 798.133 363.204 798.127 364.479 798.122L372.345 798.106C376.371 798.098 380.397 798.072 384.421 798.046L384.42 798.045C386.961 798.039 389.502 798.036 392.043 798.033H392.05C393.259 798.023 394.468 798.013 395.713 798.002C396.829 798.004 397.944 798.006 399.094 798.009H399.1C400.557 798.004 400.579 798.004 402.021 798Z" fill="#FF4D00" stroke="#1E1E1E" stroke-width="2"/>
<path d="M437.46 798.003H440.938V798.004L444.683 798.069H444.695C446.599 798.078 446.6 798.077 448.542 798.086V798.087C452.595 798.11 456.648 798.163 460.705 798.216H460.711L468.962 798.272C475.535 798.317 482.108 798.385 488.682 798.47C491.349 802.258 491.207 805.644 490.713 810.564C490.262 811.691 489.813 812.818 489.353 813.969H448.213V842.625H482.86C484.012 844.188 484.551 845.107 484.83 846.048C485.137 847.081 485.156 848.215 485.124 850.409V850.42C485.121 851.349 485.118 852.279 485.114 853.235C484.988 854.494 484.932 854.962 484.753 855.429C484.586 855.862 484.307 856.311 483.661 857.285H448.213V890.113L449.22 890.106C453.61 890.077 453.61 890.077 458.089 890.048L458.088 890.047L466.563 890.015L472.472 889.98C475.294 889.96 478.116 889.951 480.94 889.943H480.947C481.83 889.935 482.713 889.927 483.622 889.918C485.605 889.918 487.592 889.993 489.592 890.087C490.255 890.757 490.46 891 490.587 891.313C490.748 891.71 490.801 892.253 490.915 893.796C490.911 894.978 490.908 896.162 490.903 897.381V897.388C490.91 899.162 490.909 899.177 490.915 900.956C490.802 902.539 490.751 903.159 490.566 903.706C490.405 904.185 490.134 904.628 489.487 905.604C481.305 905.686 473.122 905.743 464.938 905.782H464.938C463.514 905.791 462.09 905.801 460.667 905.812L456.396 905.851C452.314 905.891 448.232 905.91 444.146 905.925H444.137L440.269 905.977C438.506 905.977 438.501 905.977 436.694 905.978H436.688C435.67 905.985 434.652 905.992 433.604 905.999C432.303 905.801 431.862 905.716 431.331 905.385C430.738 905.015 430.048 904.344 428.516 902.812C428.212 899.694 428.093 896.773 428.111 893.632L428.11 893.619C428.103 892.634 428.096 891.649 428.089 890.634C428.07 887.378 428.075 884.121 428.083 880.86V880.855C428.079 878.592 428.073 876.327 428.067 874.063C428.059 869.319 428.063 864.574 428.075 859.828C428.09 853.737 428.069 847.646 428.04 841.557C428.022 836.884 428.023 832.211 428.03 827.536V827.535C428.031 825.288 428.025 823.042 428.013 820.795C427.998 817.663 428.01 814.532 428.029 811.396V811.38C428.02 810.457 428.01 809.534 428 808.584C428.045 804.895 428.191 802.585 430.029 799.713C431.347 798.91 432.363 798.491 433.407 798.265C434.523 798.023 435.724 797.987 437.46 798.003Z" fill="#FF4D00" stroke="#1E1E1E" stroke-width="2"/>
<path d="M327.72 799C328.894 800.593 329.435 801.563 329.71 802.557C330.014 803.658 330.018 804.862 329.986 807.125V807.136C329.983 808.135 329.98 809.134 329.977 810.162C329.852 811.531 329.794 812.097 329.596 812.725C329.41 813.312 329.098 813.962 328.439 815.278H298.859V904.514C296.71 905.427 295.22 906.029 293.737 906.413C292.343 906.774 290.93 906.95 288.962 906.978L288.083 906.98H288.069C287.108 906.987 286.147 906.993 285.158 906.999C283.8 906.836 283.252 906.762 282.541 906.473C281.826 906.181 280.956 905.674 279.17 904.607V815.278H249.596C248.915 813.852 248.543 812.757 248.332 811.65C248.091 810.388 248.048 809.065 248.042 807.136V807.125C248.028 806.135 248.014 805.144 248 804.125C248.151 802.753 248.221 802.246 248.486 801.671C248.757 801.086 249.234 800.425 250.306 799H327.72Z" fill="#FF4D00" stroke="#1E1E1E" stroke-width="2"/>
<path d="M585.736 790C589.439 790.271 592.12 790.99 595.449 792.555C596.273 793.845 596.641 794.764 596.819 795.707C597.017 796.755 596.995 797.873 596.987 799.682V799.69C596.994 801.105 596.993 801.12 596.999 802.534C596.889 803.809 596.84 804.281 596.666 804.749C596.511 805.167 596.249 805.597 595.659 806.501C595.076 806.401 594.49 806.301 593.891 806.197L593.868 806.193L593.845 806.19L592.466 806.028C589.271 805.677 586.216 805.526 582.905 805.769L582.531 805.796L582.268 806.063C580.033 808.327 578.837 809.958 578.211 811.896C577.606 813.768 577.562 815.873 577.406 818.897C577.288 821.199 577.168 823.501 577.046 825.873L576.992 826.925H592.298C593.043 828.136 593.388 829.066 593.562 830.024C593.765 831.151 593.743 832.346 593.749 834.206V834.216C593.763 835.217 593.776 836.219 593.79 837.249C593.641 838.64 593.573 839.159 593.31 839.742C593.043 840.332 592.573 840.992 591.52 842.418H577.045V904.511C573.914 906.426 571.212 905.946 566.895 905.934H566.889C565.336 905.938 563.782 905.941 562.183 905.945C560.205 905.832 559.427 905.777 558.908 905.599C558.53 905.469 558.294 905.275 557.632 904.612C557.465 902.468 557.466 902.333 557.477 899.215V895.479C557.485 894.139 557.494 892.799 557.503 891.419V891.414L557.51 887.275C557.519 882.897 557.54 878.519 557.561 874.139V874.137C557.569 871.175 557.576 868.212 557.583 865.25C557.601 857.974 557.629 850.699 557.663 843.423L557.668 842.418H547.303C546.176 840.869 545.638 839.953 545.353 839.013C545.04 837.982 545.005 836.85 545.02 834.678V834.665C545.013 833.751 545.006 832.837 545 831.896C545.162 830.621 545.234 830.149 545.499 829.59C545.771 829.015 546.247 828.349 547.3 826.925H557.697L557.663 825.892L557.576 823.327C557.37 812.695 558.009 804.097 564.763 795.831C567.615 793.709 570.138 792.3 572.793 791.404C575.479 790.499 578.351 790.101 581.909 790.065L581.916 790.064C583.814 790.032 583.829 790.032 585.736 790Z" fill="#FF4D00" stroke="#1E1E1E" stroke-width="2"/>
<path d="M745.817 791C747.722 791.153 748.485 791.226 749.204 791.508C749.884 791.774 750.548 792.239 752 793.307V904.505C749.817 905.421 748.304 906.025 746.797 906.411C745.38 906.774 743.944 906.95 741.946 906.978L741.055 906.98H741.042C739.568 906.99 739.547 906.99 738.085 906.999C736.708 906.836 736.149 906.761 735.425 906.47C734.698 906.177 733.813 905.668 732 904.599V792.521C735.019 790.711 737.367 791.051 741.526 791.042H741.534C742.948 791.028 744.362 791.014 745.817 791Z" fill="#FF4D00" stroke="#1E1E1E" stroke-width="2"/>
<path d="M690.017 836.083C690.011 834.747 690.006 833.411 690 832.036C690.222 829.721 690.632 828.692 691.274 828.116C691.948 827.513 693.094 827.199 695.438 827C696.835 827.014 698.232 827.028 699.671 827.042H699.679C701.077 827.045 702.475 827.048 703.914 827.051C705.787 827.177 706.594 827.238 707.354 827.443C708.028 827.626 708.68 827.929 710 828.582V904.606C708.155 905.688 706.956 906.261 705.74 906.581C704.418 906.929 703.011 906.995 700.626 906.98H700.614C699.035 906.99 699.015 906.99 697.444 906.999C694.606 906.687 692.828 905.898 690.297 904.571C690.241 894.856 690.198 885.141 690.171 875.426C690.158 870.821 690.141 866.215 690.112 861.609C690.085 857.17 690.07 852.73 690.063 848.29V848.289L690.036 843.194C690.018 840.827 690.017 838.459 690.017 836.087V836.083Z" fill="#FF4D00" stroke="#1E1E1E" stroke-width="2"/>
<path d="M511.176 886.468C515.5 881.173 523.005 881.206 529.605 883.364C530.552 884.067 530.948 884.376 531.408 884.951C531.914 885.584 532.486 886.524 533.695 888.534C534.001 891.092 533.999 891.128 533.98 894.042V894.055C533.987 895.032 533.992 896.01 533.999 897.016C533.65 899.995 532.962 901.823 531.381 904.361C529.555 905.714 528.383 906.324 527.168 906.627C525.877 906.949 524.473 906.948 522.046 906.95L522.033 906.951C520.883 906.967 519.733 906.982 518.549 906.998C516.791 906.769 515.696 906.508 514.762 906.037C513.853 905.579 513.022 904.886 511.874 903.665C509.647 898.009 509.395 892.321 511.176 886.468Z" fill="#FF4D00" stroke="#1E1E1E" stroke-width="2"/>
<mask id="path-27-inside-1_53_2" fill="white">
<path d="M603.874 834.242C615.826 820.339 643.487 821.01 658.391 829.14C664.021 833.809 666.6 838.792 668.023 845.906C668.095 847.898 668.122 849.892 668.118 851.886C668.118 853.686 668.117 853.686 668.117 855.523C668.113 856.814 668.109 858.105 668.104 859.435C668.103 860.76 668.102 862.086 668.101 863.451C668.096 867.687 668.086 871.923 668.075 876.158C668.071 879.029 668.067 881.9 668.063 884.771C668.054 891.81 668.041 898.85 668.023 905.89C664.49 907.656 662.689 907.804 658.807 907.816C657.783 907.83 656.759 907.844 655.705 907.858C653.027 907.556 653.027 907.556 650.527 905.057C649.955 901.985 649.955 901.984 649.694 899.225C648.938 899.963 648.182 900.703 647.403 901.464C638.747 908.211 630.544 909.379 619.703 908.39C611.89 906.507 607.02 903.143 602.207 896.726C598.97 890.684 599.049 884.255 599.708 877.564C602.268 870.549 606.823 866.505 613.038 862.568C624.237 858.055 635.306 858.191 647.195 858.402C647.005 856.387 646.792 854.374 646.57 852.362C646.454 851.241 646.338 850.12 646.219 848.965C645.726 845.509 645.725 845.509 642.196 842.573C635.709 839.33 627.793 840.169 621.005 842.365C618.073 843.465 615.465 844.711 612.674 846.166C609.706 847.572 609.705 847.572 605.54 846.739C602.95 842.855 603.105 838.711 603.874 834.242ZM647.195 871.732C637.766 871.363 629.302 870.537 621.682 876.887C620.069 880.186 620.069 880.186 620.536 886.729C621.726 890.298 623.196 891.37 626.368 893.394C634.052 894.1 638.402 892.916 644.645 888.655C648.107 883.78 648.106 883.779 647.195 871.732Z"/>
</mask>
<path d="M603.874 834.242C615.826 820.339 643.487 821.01 658.391 829.14C664.021 833.809 666.6 838.792 668.023 845.906C668.095 847.898 668.122 849.892 668.118 851.886C668.118 853.686 668.117 853.686 668.117 855.523C668.113 856.814 668.109 858.105 668.104 859.435C668.103 860.76 668.102 862.086 668.101 863.451C668.096 867.687 668.086 871.923 668.075 876.158C668.071 879.029 668.067 881.9 668.063 884.771C668.054 891.81 668.041 898.85 668.023 905.89C664.49 907.656 662.689 907.804 658.807 907.816C657.783 907.83 656.759 907.844 655.705 907.858C653.027 907.556 653.027 907.556 650.527 905.057C649.955 901.985 649.955 901.984 649.694 899.225C648.938 899.963 648.182 900.703 647.403 901.464C638.747 908.211 630.544 909.379 619.703 908.39C611.89 906.507 607.02 903.143 602.207 896.726C598.97 890.684 599.049 884.255 599.708 877.564C602.268 870.549 606.823 866.505 613.038 862.568C624.237 858.055 635.306 858.191 647.195 858.402C647.005 856.387 646.792 854.374 646.57 852.362C646.454 851.241 646.338 850.12 646.219 848.965C645.726 845.509 645.725 845.509 642.196 842.573C635.709 839.33 627.793 840.169 621.005 842.365C618.073 843.465 615.465 844.711 612.674 846.166C609.706 847.572 609.705 847.572 605.54 846.739C602.95 842.855 603.105 838.711 603.874 834.242ZM647.195 871.732C637.766 871.363 629.302 870.537 621.682 876.887C620.069 880.186 620.069 880.186 620.536 886.729C621.726 890.298 623.196 891.37 626.368 893.394C634.052 894.1 638.402 892.916 644.645 888.655C648.107 883.78 648.106 883.779 647.195 871.732Z" fill="#FF4D00"/>
<path d="M603.874 834.242L602.357 832.938L601.997 833.358L601.903 833.903L603.874 834.242ZM658.391 829.14L659.667 827.6L659.518 827.477L659.348 827.384L658.391 829.14ZM668.023 845.906L670.022 845.834L670.016 845.673L669.985 845.514L668.023 845.906ZM668.118 851.886L666.118 851.882L666.118 851.886L668.118 851.886ZM668.117 855.523L670.117 855.53L670.117 855.524L668.117 855.523ZM668.104 859.435L666.104 859.428L666.104 859.433L668.104 859.435ZM668.101 863.451L670.101 863.453L670.101 863.453L668.101 863.451ZM668.075 876.158L666.075 876.153L666.075 876.155L668.075 876.158ZM668.063 884.771L670.063 884.773L670.063 884.773L668.063 884.771ZM668.023 905.89L668.918 907.679L670.02 907.127L670.023 905.895L668.023 905.89ZM658.807 907.816L658.8 905.816L658.79 905.816L658.779 905.817L658.807 907.816ZM655.705 907.858L655.481 909.846L655.606 909.86L655.732 909.858L655.705 907.858ZM650.527 905.057L648.561 905.423L648.675 906.033L649.113 906.471L650.527 905.057ZM649.694 899.225L651.685 899.037L651.292 894.867L648.296 897.794L649.694 899.225ZM647.403 901.464L648.633 903.041L648.721 902.972L648.801 902.894L647.403 901.464ZM619.703 908.39L619.235 910.334L619.376 910.368L619.521 910.381L619.703 908.39ZM602.207 896.726L600.444 897.67L600.516 897.804L600.607 897.926L602.207 896.726ZM599.708 877.564L597.829 876.879L597.742 877.117L597.718 877.368L599.708 877.564ZM613.038 862.568L612.291 860.713L612.122 860.781L611.968 860.879L613.038 862.568ZM647.195 858.402L647.16 860.402L649.397 860.442L649.186 858.214L647.195 858.402ZM646.57 852.362L644.581 852.568L644.582 852.582L646.57 852.362ZM646.219 848.965L648.208 848.759L648.204 848.721L648.199 848.682L646.219 848.965ZM642.196 842.573L643.475 841.036L643.298 840.888L643.091 840.784L642.196 842.573ZM621.005 842.365L620.389 840.462L620.346 840.476L620.303 840.493L621.005 842.365ZM612.674 846.166L613.53 847.973L613.564 847.957L613.598 847.94L612.674 846.166ZM605.54 846.739L603.876 847.849L604.335 848.538L605.148 848.7L605.54 846.739ZM647.195 871.732L649.19 871.582L649.055 869.804L647.274 869.734L647.195 871.732ZM621.682 876.887L620.401 875.35L620.073 875.624L619.885 876.008L621.682 876.887ZM620.536 886.729L618.541 886.871L618.559 887.122L618.639 887.361L620.536 886.729ZM626.368 893.394L625.293 895.08L625.702 895.341L626.185 895.385L626.368 893.394ZM644.645 888.655L645.772 890.307L646.068 890.105L646.275 889.813L644.645 888.655ZM603.874 834.242L605.391 835.546C610.868 829.174 620.139 825.965 630.133 825.426C640.1 824.889 650.36 827.037 657.433 830.895L658.391 829.14L659.348 827.384C651.518 823.113 640.495 820.861 629.918 821.432C619.368 822.001 608.832 825.407 602.357 832.938L603.874 834.242ZM658.391 829.14L657.114 830.679C662.336 835.01 664.714 839.558 666.062 846.298L668.023 845.906L669.985 845.514C668.487 838.025 665.705 832.607 659.667 827.6L658.391 829.14ZM668.023 845.906L666.025 845.978C666.095 847.94 666.122 849.909 666.118 851.882L668.118 851.886L670.118 851.889C670.122 849.876 670.095 847.856 670.022 845.834L668.023 845.906ZM668.118 851.886L666.118 851.886C666.118 852.785 666.118 853.235 666.118 853.69C666.117 854.145 666.117 854.604 666.117 855.523L668.117 855.523L670.117 855.524C670.117 854.605 670.117 854.146 670.118 853.692C670.118 853.237 670.118 852.786 670.118 851.886L668.118 851.886ZM668.117 855.523L666.117 855.517C666.115 856.162 666.113 856.808 666.111 857.458C666.109 858.108 666.107 858.763 666.105 859.428L668.104 859.435L670.104 859.441C670.107 858.776 670.109 858.121 670.111 857.471C670.113 856.82 670.115 856.175 670.117 855.53L668.117 855.523ZM668.104 859.435L666.104 859.433C666.104 860.095 666.103 860.758 666.103 861.426C666.102 862.094 666.101 862.766 666.101 863.449L668.101 863.451L670.101 863.453C670.101 862.77 670.102 862.098 670.103 861.43C670.103 860.762 670.104 860.099 670.104 859.436L668.104 859.435ZM668.101 863.451L666.101 863.449C666.096 867.683 666.086 871.917 666.075 876.153L668.075 876.158L670.075 876.163C670.086 871.928 670.096 867.691 670.101 863.453L668.101 863.451ZM668.075 876.158L666.075 876.155C666.071 879.026 666.067 881.897 666.063 884.768L668.063 884.771L670.063 884.773C670.067 881.902 670.071 879.032 670.075 876.161L668.075 876.158ZM668.063 884.771L666.063 884.768C666.054 891.807 666.041 898.846 666.023 905.885L668.023 905.89L670.023 905.895C670.041 898.854 670.054 891.813 670.063 884.773L668.063 884.771ZM668.023 905.89L667.129 904.101C665.471 904.93 664.318 905.33 663.176 905.545C661.999 905.767 660.744 905.81 658.8 905.816L658.807 907.816L658.813 909.816C660.751 909.81 662.338 909.773 663.916 909.476C665.529 909.173 667.042 908.616 668.918 907.679L668.023 905.89ZM658.807 907.816L658.779 905.817C658.268 905.824 657.756 905.83 657.241 905.837C656.725 905.844 656.205 905.851 655.678 905.859L655.705 907.858L655.732 909.858C656.259 909.851 656.779 909.844 657.294 909.837C657.81 909.83 658.322 909.823 658.834 909.816L658.807 907.816ZM655.705 907.858L655.93 905.871C654.463 905.705 654.234 905.649 654.001 905.522C653.675 905.346 653.295 904.996 651.942 903.642L650.527 905.057L649.113 906.471C650.259 907.617 651.129 908.516 652.097 909.04C653.159 909.614 654.269 909.709 655.481 909.846L655.705 907.858ZM650.527 905.057L652.493 904.69C651.93 901.67 651.94 901.73 651.685 899.037L649.694 899.225L647.703 899.412C647.97 902.239 647.979 902.299 648.561 905.423L650.527 905.057ZM649.694 899.225L648.296 897.794C647.918 898.164 647.54 898.533 647.159 898.906C646.779 899.278 646.395 899.653 646.005 900.033L647.403 901.464L648.801 902.894C649.191 902.514 649.575 902.138 649.955 901.766C650.336 901.394 650.714 901.024 651.092 900.655L649.694 899.225ZM647.403 901.464L646.174 899.886C638.051 906.218 630.416 907.359 619.885 906.398L619.703 908.39L619.521 910.381C630.671 911.399 639.443 910.204 648.633 903.041L647.403 901.464ZM619.703 908.39L620.172 906.445C612.838 904.678 608.358 901.593 603.807 895.526L602.207 896.726L600.607 897.926C605.683 904.693 610.943 908.336 619.235 910.334L619.703 908.39ZM602.207 896.726L603.97 895.781C601.032 890.298 601.046 884.389 601.698 877.76L599.708 877.564L597.718 877.368C597.053 884.122 596.908 891.07 600.444 897.67L602.207 896.726ZM599.708 877.564L601.587 878.25C603.93 871.828 608.065 868.085 614.108 864.258L613.038 862.568L611.968 860.879C605.581 864.924 600.606 869.27 597.829 876.879L599.708 877.564ZM613.038 862.568L613.786 864.423C624.555 860.084 635.225 860.19 647.16 860.402L647.195 858.402L647.231 856.403C635.387 856.192 623.92 856.027 612.291 860.713L613.038 862.568ZM647.195 858.402L649.186 858.214C648.995 856.185 648.781 854.16 648.558 852.143L646.57 852.362L644.582 852.582C644.804 854.588 645.015 856.59 645.204 858.591L647.195 858.402ZM646.57 852.362L648.56 852.157C648.502 851.596 648.444 851.035 648.385 850.47C648.327 849.906 648.268 849.337 648.208 848.759L646.219 848.965L644.229 849.171C644.289 849.748 644.348 850.317 644.406 850.882C644.465 851.447 644.523 852.008 644.581 852.568L646.57 852.362ZM646.219 848.965L648.199 848.682C647.973 847.098 647.817 845.746 647.039 844.509C646.323 843.372 645.115 842.399 643.475 841.036L642.196 842.573L640.917 844.111C642.807 845.683 643.363 846.178 643.653 846.639C643.881 847 643.972 847.376 644.239 849.247L646.219 848.965ZM642.196 842.573L643.091 840.784C635.915 837.197 627.379 838.201 620.389 840.462L621.005 842.365L621.621 844.268C628.207 842.137 635.504 841.463 641.302 844.362L642.196 842.573ZM621.005 842.365L620.303 840.493C617.267 841.631 614.58 842.918 611.75 844.392L612.674 846.166L613.598 847.94C616.351 846.505 618.88 845.298 621.707 844.238L621.005 842.365ZM612.674 846.166L611.818 844.359C610.225 845.113 609.845 845.263 609.396 845.299C608.853 845.342 608.15 845.222 605.932 844.778L605.54 846.739L605.148 848.7C607.095 849.09 608.476 849.386 609.716 849.286C611.051 849.179 612.155 848.625 613.53 847.973L612.674 846.166ZM605.54 846.739L607.204 845.63C605.058 842.411 605.097 838.93 605.845 834.581L603.874 834.242L601.903 833.903C601.114 838.493 600.842 843.298 603.876 847.849L605.54 846.739ZM647.195 871.732L647.274 869.734C638.07 869.373 628.725 868.414 620.401 875.35L621.682 876.887L622.962 878.423C629.879 872.659 637.463 873.352 647.117 873.731L647.195 871.732ZM621.682 876.887L619.885 876.008C619.104 877.605 618.531 878.734 618.342 880.36C618.172 881.827 618.315 883.704 618.541 886.871L620.536 886.729L622.531 886.586C622.29 883.211 622.2 881.817 622.315 880.823C622.413 879.988 622.646 879.467 623.478 877.765L621.682 876.887ZM620.536 886.729L618.639 887.361C619.299 889.342 620.091 890.781 621.254 892.014C622.363 893.189 623.735 894.086 625.293 895.08L626.368 893.394L627.444 891.707C625.83 890.678 624.88 890.027 624.163 889.268C623.501 888.567 622.963 887.685 622.433 886.096L620.536 886.729ZM626.368 893.394L626.185 895.385C630.161 895.751 633.422 895.641 636.553 894.822C639.684 894.003 642.545 892.51 645.772 890.307L644.645 888.655L643.517 887.003C640.502 889.062 638.067 890.291 635.54 890.952C633.015 891.613 630.258 891.743 626.551 891.402L626.368 893.394ZM644.645 888.655L646.275 889.813C647.968 887.429 649.137 885.838 649.538 883.181C649.899 880.781 649.635 877.47 649.19 871.582L647.195 871.732L645.201 871.883C645.667 878.041 645.858 880.754 645.582 882.585C645.345 884.158 644.783 885.006 643.014 887.497L644.645 888.655Z" fill="#1E1E1E" mask="url(#path-27-inside-1_53_2)"/>
<path d="M701.862 793C703.763 793.147 705.186 793.5 706.451 794.137C707.68 794.755 708.818 795.673 710.12 797.044C711.245 800.806 711.047 804.248 710.832 808.406C710.144 809.878 709.819 810.565 709.468 811.129C709.137 811.661 708.778 812.088 708.004 812.989C705.143 813.957 702.597 813.897 699.318 813.933H699.312C698.111 813.955 696.91 813.975 695.675 813.998C694.041 813.854 693.425 813.788 692.808 813.513C692.179 813.233 691.527 812.728 690.032 811.53C688.737 807.155 688.862 802.464 689.325 797.747C690.784 795.612 692.018 794.5 693.389 793.879C694.831 793.225 696.55 793.053 699.133 793.037H699.141C700.039 793.025 700.938 793.012 701.862 793Z" fill="#FF4D00" stroke="#1E1E1E" stroke-width="2"/>
</svg>
